<?xml version="1.0" encoding="UTF-8"?>
<svg id="_레이어_2" data-name="레이어 2" xmlns="http://www.w3.org/2000/svg" xmlns:xlink="http://www.w3.org/1999/xlink" viewBox="0 0 1232.62 92.35">
  <defs>
    <style>
      .cls-1 {
        fill: none;
      }

      .cls-2 {
        fill: url(#_무제_그라디언트_101-2);
      }

      .cls-3 {
        fill: #4a808e;
      }

      .cls-4 {
        isolation: isolate;
      }

      .cls-5 {
        clip-path: url(#clippath-1);
      }

      .cls-6 {
        fill: url(#_무제_그라디언트_101);
      }

      .cls-7 {
        clip-path: url(#clippath);
      }
    </style>
    <clipPath id="clippath">
      <polygon class="cls-1" points="82.99 0 9.23 0 0 0 0 0 0 92.35 9.23 92.35 9.23 9.23 82.99 9.23 82.99 92.35 92.22 92.35 92.22 9.23 92.22 0 82.99 0"/>
    </clipPath>
    <linearGradient id="_무제_그라디언트_101" data-name="무제 그라디언트 101" x1="0" y1="0" x2="92.35" y2="92.35" gradientUnits="userSpaceOnUse">
      <stop offset=".1" stop-color="#223e65"/>
      <stop offset=".9" stop-color="#61c49c"/>
    </linearGradient>
    <clipPath id="clippath-1">
      <polygon class="cls-1" points="66.34 17.54 59.44 17.54 50.21 17.54 50.21 26.78 50.21 83.11 42.14 83.11 42.14 26.78 42.14 17.54 32.91 17.54 26.01 17.54 16.78 17.54 16.78 26.78 16.78 92.35 26.01 92.35 26.01 26.78 32.91 26.78 32.91 92.35 32.92 92.35 42.14 92.35 50.21 92.35 59.44 92.35 59.44 92.35 59.44 26.78 66.34 26.78 66.34 92.35 75.57 92.35 75.57 26.78 75.57 17.54 66.34 17.54"/>
    </clipPath>
    <linearGradient id="_무제_그라디언트_101-2" data-name="무제 그라디언트 101" y1=".52" x2="92.35" y2="92.87" xlink:href="#_무제_그라디언트_101"/>
  </defs>
  <g id="_레이어_1-2" data-name="레이어 1">
    <g>
      <g class="cls-7">
        <rect class="cls-6" x="0" y="0" width="92.35" height="92.35"/>
      </g>
      <g class="cls-5">
        <rect class="cls-2" x="0" y=".52" width="92.35" height="92.35"/>
      </g>
    </g>
    <g>
      <g>
        <path d="M190.35,6.31c.9,0,1.47.34,1.47,1.35,0,.68-.79,1.92-.79,7.11,0,4.29.68,11.51.68,13.55,0,1.47-.45,2.03-1.35,2.03-.79,0-1.24-.45-1.58-2.03-1.92-10.61-7.79-18.4-17.84-18.4h-4.06c-1.47,0-2.26.68-2.26,2.6v67.73c0,1.92.79,2.6,2.26,2.6h6.77c.79,0,1.35.45,1.35,1.24s-.56,1.24-1.35,1.24h-33.75c-.79,0-1.35-.45-1.35-1.24s.56-1.24,1.35-1.24h6.77c1.47,0,2.26-.68,2.26-2.6V12.52c0-1.92-.79-2.6-2.26-2.6h-4.06c-10.05,0-15.92,7.79-17.83,18.4-.34,1.58-.79,2.03-1.58,2.03s-1.35-.56-1.35-2.03c0-2.03.68-9.26.68-13.55,0-5.19-.79-6.43-.79-7.11,0-1.02.56-1.35,1.47-1.35,1.02,0,2.15,1.13,12.98,1.13h41.2c10.84,0,11.85-1.13,12.98-1.13Z"/>
        <path d="M227.71,82.84h7.34c.79,0,1.35.45,1.35,1.24s-.56,1.24-1.35,1.24h-33.98c-.79,0-1.35-.45-1.35-1.24s.56-1.24,1.35-1.24h6.43c1.47,0,2.26-.68,2.26-2.6V12.52c0-1.92-.79-2.6-2.26-2.6h-6.43c-.79,0-1.35-.45-1.35-1.24s.56-1.24,1.35-1.24h33.98c.79,0,1.35.45,1.35,1.24s-.56,1.24-1.35,1.24h-7.34c-1.47,0-2.26.68-2.26,2.6v32.62h36.35V12.52c0-1.92-.79-2.6-2.26-2.6h-7.34c-.79,0-1.35-.45-1.35-1.24s.56-1.24,1.35-1.24h33.98c.79,0,1.35.45,1.35,1.24s-.56,1.24-1.35,1.24h-6.43c-1.47,0-2.26.68-2.26,2.6v67.73c0,1.92.79,2.6,2.26,2.6h6.43c.79,0,1.35.45,1.35,1.24s-.56,1.24-1.35,1.24h-33.98c-.79,0-1.35-.45-1.35-1.24s.56-1.24,1.35-1.24h7.34c1.47,0,2.26-.68,2.26-2.6v-32.4h-36.35v32.4c0,1.92.79,2.6,2.26,2.6Z"/>
        <path d="M346.02,55.41c0,1.02-.45,1.58-1.24,1.58-.68,0-.9-.34-1.58-1.81-3.05-6.66-9.93-9.48-19.08-9.48h-3.61v34.54c0,1.92.79,2.6,2.26,2.6h10.84c14.79,0,20.77-10.5,22.8-19.87.34-1.58.9-2.03,1.69-2.03,1.13,0,1.47.45,1.47,1.81,0,3.05-1.35,10.95-1.35,16.71,0,2.71.23,4.18.23,4.85,0,1.13-.56,1.47-1.47,1.47-1.02,0-2.14-.45-5.53-.45h-55.31c-.79,0-1.35-.45-1.35-1.24s.56-1.24,1.35-1.24h6.43c1.47,0,2.26-.68,2.26-2.6V12.52c0-1.92-.79-2.6-2.26-2.6h-6.43c-.79,0-1.35-.45-1.35-1.24s.56-1.24,1.35-1.24h47.98c7.9,0,10.39-.56,11.4-.56,1.13,0,1.47.34,1.47,1.35,0,8.13.23,14.45.23,17.38,0,1.13-.56,1.69-1.35,1.69s-1.35-.45-1.69-2.03c-2.48-12.42-10.38-15.35-20.54-15.35h-10.84c-1.47,0-2.26.68-2.26,2.6v30.48h3.61c9.14,0,16.14-2.82,19.08-9.71.45-1.13.9-1.58,1.58-1.58.79,0,1.24.45,1.24,1.35,0,2.03-1.36,5.76-1.36,11.29s1.36,9.03,1.36,11.06Z"/>
        <path d="M425.15,56.43v23.82c0,1.92.71,2.6,2.03,2.6h7.52c.71,0,1.22.45,1.22,1.24s-.51,1.24-1.22,1.24h-31.49c-.71,0-1.22-.45-1.22-1.24s.51-1.24,1.22-1.24h5.79c1.32,0,2.03-.68,2.03-2.6V12.52c0-1.92-.71-2.6-2.03-2.6h-5.79c-.71,0-1.22-.45-1.22-1.24s.51-1.24,1.22-1.24h28.14c17.68,0,30.88,6.77,30.88,23.82,0,18.06-15.24,25.17-32,25.17h-5.08ZM425.15,12.52v41.43h3.96c12.5,0,18.08-6.77,18.08-22.69s-5.28-21.33-16.46-21.33h-3.56c-1.32,0-2.03.68-2.03,2.6Z"/>
        <path d="M491.59,82.84h6.6c.71,0,1.22.45,1.22,1.24s-.51,1.24-1.22,1.24h-30.58c-.71,0-1.22-.45-1.22-1.24s.51-1.24,1.22-1.24h5.79c1.32,0,2.03-.68,2.03-2.6V12.52c0-1.92-.71-2.6-2.03-2.6h-5.79c-.71,0-1.22-.45-1.22-1.24s.51-1.24,1.22-1.24h30.58c.71,0,1.22.45,1.22,1.24s-.51,1.24-1.22,1.24h-6.6c-1.32,0-2.03.68-2.03,2.6v32.62h32.71V12.52c0-1.92-.71-2.6-2.03-2.6h-6.6c-.71,0-1.22-.45-1.22-1.24s.51-1.24,1.22-1.24h30.58c.71,0,1.22.45,1.22,1.24s-.51,1.24-1.22,1.24h-5.79c-1.32,0-2.03.68-2.03,2.6v67.73c0,1.92.71,2.6,2.03,2.6h5.79c.71,0,1.22.45,1.22,1.24s-.51,1.24-1.22,1.24h-30.58c-.71,0-1.22-.45-1.22-1.24s.51-1.24,1.22-1.24h6.6c1.32,0,2.03-.68,2.03-2.6v-32.4h-32.71v32.4c0,1.92.71,2.6,2.03,2.6Z"/>
        <path d="M624.78,82.84h.71c.71,0,1.22.45,1.22,1.24s-.51,1.24-1.22,1.24h-30.38c-.71,0-1.22-.45-1.22-1.24s.51-1.24,1.22-1.24h2.54c2.03,0,3.15-1.02,3.15-3.16,0-2.37-1.32-5.53-2.95-9.93l-3.66-9.93h-25.6l-.41,1.24c-2.44,6.77-4.17,11.85-4.17,16.37,0,3.95,1.93,5.42,3.96,5.42h.2c.71,0,1.22.45,1.22,1.24s-.51,1.24-1.22,1.24h-19.61c-.71,0-1.22-.45-1.22-1.24s.51-1.24,1.22-1.24h.71c5.28,0,9.45-3.16,13.51-14.22l23.26-63.21c.71-1.81,2.03-1.81,2.74,0l24.89,67.73c2.54,6.89,5.99,9.71,11.07,9.71ZM569.62,57.22h23.67l-11.58-31.83h-.51l-11.58,31.83Z"/>
        <path d="M688.99,86.57c-13.21,0-14.43-6.21-18.9-19.64-2.24-6.77-5.38-15.24-13.51-15.24h-4.78v28.56c0,1.92.71,2.6,2.03,2.6h6.6c.71,0,1.22.45,1.22,1.24s-.51,1.24-1.22,1.24h-30.58c-.71,0-1.22-.45-1.22-1.24s.51-1.24,1.22-1.24h5.79c1.32,0,2.03-.68,2.03-2.6V12.52c0-1.92-.71-2.6-2.03-2.6h-5.79c-.71,0-1.22-.45-1.22-1.24s.51-1.24,1.22-1.24h30.88c13.71,0,28.34,6.21,28.34,20.54,0,12.42-10.46,19.08-21.84,21.79,7.31,2.94,11.99,7.34,16.46,17.05,4.37,9.59,7.42,14.79,14.12,15.69,1.22.11,1.63.56,1.63,1.13,0,1.47-3.76,2.94-10.46,2.94ZM651.81,12.52v36.69h4.78c11.78,0,18.29-7.45,18.29-21.22,0-12.87-5.08-18.06-16.36-18.06h-4.67c-1.32,0-2.03.68-2.03,2.6Z"/>
        <path d="M794.65,7.44c.71,0,1.22.45,1.22,1.24s-.51,1.24-1.22,1.24h-5.79c-1.32,0-2.03.68-2.03,2.6v67.73c0,1.92.71,2.6,2.03,2.6h5.79c.71,0,1.22.45,1.22,1.24s-.51,1.24-1.22,1.24h-30.58c-.71,0-1.22-.45-1.22-1.24s.51-1.24,1.22-1.24h6.6c1.32,0,2.03-.68,2.03-2.6V12.52h-.3l-28.04,72.47h-2.84l-27.84-71.57h-.3v18.74c0,47.19,2.54,50.68,7.11,50.68h1.52c.71,0,1.22.45,1.22,1.24s-.51,1.24-1.22,1.24h-19c-.71,0-1.22-.45-1.22-1.24s.51-1.24,1.22-1.24h.71c4.57,0,7.11-3.5,7.11-50.68V12.52c0-1.92-.71-2.6-1.93-2.6h-5.89c-.71,0-1.22-.45-1.22-1.24s.51-1.24,1.22-1.24h21.13c2.34,0,2.84.45,4.37,4.18l20.93,53.17,20.42-52.15c1.83-4.52,2.13-5.19,4.67-5.19h20.12Z"/>
        <path d="M875.22,82.84h.71c.71,0,1.22.45,1.22,1.24s-.51,1.24-1.22,1.24h-30.38c-.71,0-1.22-.45-1.22-1.24s.51-1.24,1.22-1.24h2.54c2.03,0,3.15-1.02,3.15-3.16,0-2.37-1.32-5.53-2.95-9.93l-3.66-9.93h-25.6l-.41,1.24c-2.44,6.77-4.17,11.85-4.17,16.37,0,3.95,1.93,5.42,3.96,5.42h.2c.71,0,1.22.45,1.22,1.24s-.51,1.24-1.22,1.24h-19.61c-.71,0-1.22-.45-1.22-1.24s.51-1.24,1.22-1.24h.71c5.28,0,9.45-3.16,13.51-14.22l23.26-63.21c.71-1.81,2.03-1.81,2.74,0l24.89,67.73c2.54,6.89,5.99,9.71,11.07,9.71ZM820.06,57.22h23.67l-11.58-31.83h-.51l-11.58,31.83Z"/>
      </g>
      <circle class="cls-3" cx="1226.75" cy="81.2" r="5.87"/>
    </g>
    <g class="cls-4">
      <g class="cls-4">
        <g class="cls-4">
          <g class="cls-4">
            <g class="cls-4">
              <g class="cls-4">
                <g class="cls-4">
                  <g class="cls-4">
                    <g class="cls-4">
                      <path d="M930.8,54.02l.46-1.66h3.04c3,0,5.76-.44,8.28-1.33,2.51-.89,4.69-2.22,6.53-4,1.84-1.78,3.27-3.96,4.28-6.53,1.01-2.58,1.52-5.52,1.52-8.83s-.71-5.75-2.12-7.31c-1.41-1.56-3.56-2.35-6.44-2.35-1.78,0-3.11.41-4,1.24-.89.83-1.67,2.44-2.35,4.83l-12.51,47.47c-.49,1.84-.78,3.33-.87,4.46-.09,1.14.32,1.96,1.24,2.48.92.52,2.58.84,4.97.97l-.37,1.84c-1.84-.12-4-.2-6.49-.23-2.48-.03-5.11-.05-7.87-.05-2.94,0-5.8.02-8.56.05-2.76.03-4.94.11-6.53.23l.37-1.84c2.09-.12,3.71-.37,4.88-.74,1.16-.37,2.08-1.1,2.76-2.21.67-1.1,1.29-2.76,1.84-4.97l12.05-45.63c.55-1.9.83-3.4.83-4.51s-.45-1.93-1.33-2.48c-.89-.55-2.5-.86-4.83-.92l.46-1.84c1.1.06,2.45.11,4.05.14,1.59.03,3.27.06,5.01.09,1.75.03,3.36.05,4.83.05,2.82,0,5.32-.03,7.5-.09,2.18-.06,4.28-.09,6.3-.09,7.48,0,13.02,1.04,16.61,3.13,3.59,2.09,5.38,5.31,5.38,9.66s-1.49,7.9-4.46,10.99c-2.98,3.1-7.1,5.52-12.38,7.27s-11.41,2.62-18.4,2.62l-3.68.09ZM932.27,52.64c1.78.12,3.27.23,4.46.32s2.24.18,3.13.28c.89.09,1.76.17,2.62.23,2.58.31,4.98.68,7.22,1.1,2.24.43,4.14,1.09,5.7,1.98,1.56.89,2.71,2.1,3.45,3.63.74,1.53.95,3.53.64,5.98l-1.29,9.48c-.18,1.96-.06,3.53.37,4.69.43,1.17,1.26,1.75,2.48,1.75s2.28-.57,3.17-1.7c.89-1.13,1.7-2.77,2.44-4.92l.46-1.29h2.12l-.37,1.2c-1.1,3.8-2.78,6.62-5.01,8.46-2.24,1.84-5.26,2.76-9.06,2.76-4.23,0-7.25-1.01-9.06-3.04-1.81-2.02-2.5-4.57-2.07-7.64l1.38-10.49c.31-2.51.21-4.61-.28-6.3-.49-1.69-1.72-2.96-3.68-3.82-1.96-.86-4.97-1.29-9.02-1.29l.18-1.38Z"/>
                      <path d="M984.34,65.33c2.51-.98,4.91-2.08,7.18-3.31,2.27-1.23,4.2-2.58,5.8-4.05,2.39-2.15,4.31-4.65,5.75-7.5,1.44-2.85,2.16-5.93,2.16-9.25,0-1.23-.12-2.04-.37-2.44-.25-.4-.61-.6-1.1-.6-1.35,0-2.81.69-4.37,2.07-1.56,1.38-3.11,3.22-4.65,5.52-1.54,2.3-2.93,4.92-4.19,7.87-1.26,2.94-2.27,6.01-3.04,9.2-.77,3.19-1.15,6.29-1.15,9.29,0,3.44.66,5.78,1.98,7.04,1.32,1.26,3.02,1.89,5.11,1.89,1.66,0,3.71-.55,6.16-1.66,2.45-1.1,4.88-3.07,7.27-5.89l1.47.74c-1.29,2.02-2.98,3.99-5.06,5.89-2.09,1.9-4.51,3.45-7.27,4.65s-5.77,1.79-9.02,1.79c-2.76,0-5.23-.49-7.41-1.47-2.18-.98-3.9-2.44-5.15-4.37-1.26-1.93-1.89-4.31-1.89-7.13,0-3.25.54-6.59,1.61-10.03,1.07-3.43,2.59-6.76,4.55-9.98,1.96-3.22,4.32-6.13,7.08-8.74,2.76-2.61,5.83-4.66,9.2-6.16,3.37-1.5,6.96-2.25,10.76-2.25,2.7,0,4.97.6,6.81,1.79,1.84,1.2,2.76,3.02,2.76,5.47s-.66,4.63-1.98,6.72c-1.32,2.09-3.08,3.99-5.29,5.7-2.21,1.72-4.68,3.25-7.41,4.6-2.73,1.35-5.52,2.52-8.37,3.5-2.85.98-5.54,1.75-8.05,2.3l.09-1.2Z"/>
                      <path d="M1048.37,38.28c-2.27,0-4.51.97-6.72,2.9-2.21,1.93-4.19,4.52-5.93,7.77-1.75,3.25-3.14,6.9-4.19,10.95-1.04,4.05-1.56,8.22-1.56,12.51,0,3.25.64,5.6,1.93,7.04,1.29,1.44,2.97,2.16,5.06,2.16,1.96,0,3.96-.58,5.98-1.75,2.02-1.17,4.08-3.28,6.16-6.35l1.84.74c-1.23,2.02-2.81,3.99-4.74,5.89-1.93,1.9-4.17,3.45-6.72,4.65-2.55,1.2-5.41,1.79-8.6,1.79-4.29,0-7.82-1.15-10.58-3.45-2.76-2.3-4.14-5.87-4.14-10.72,0-3,.47-6.16,1.43-9.48.95-3.31,2.31-6.55,4.09-9.71,1.78-3.16,3.96-6,6.53-8.51,2.58-2.51,5.49-4.52,8.74-6.03,3.25-1.5,6.78-2.25,10.58-2.25,3.37,0,6.09.84,8.14,2.53,2.05,1.69,3.08,3.79,3.08,6.3,0,1.66-.4,3.27-1.2,4.83-.8,1.56-1.89,2.85-3.27,3.86-1.38,1.01-2.93,1.52-4.65,1.52-1.47,0-2.71-.47-3.73-1.43-1.01-.95-1.52-2.25-1.52-3.91,0-2.51.84-4.68,2.53-6.49,1.69-1.81,3.63-2.99,5.84-3.54-.49-.61-1.09-1.07-1.79-1.38-.71-.31-1.58-.46-2.62-.46Z"/>
                      <path d="M1072.38,85.3h-12.97l11.22-39.74c.43-1.66.57-2.84.41-3.54-.15-.7-.63-1.06-1.43-1.06-1.1,0-2.12.54-3.04,1.61-.92,1.07-1.9,2.96-2.94,5.66l-1.75,4.69h-1.75l2.48-6.99c.92-2.45,2.02-4.35,3.31-5.7,1.29-1.35,2.74-2.31,4.37-2.9s3.3-.87,5.01-.87c1.96,0,3.46.38,4.51,1.15,1.04.77,1.75,1.79,2.12,3.08.37,1.29.51,2.68.41,4.19s-.32,2.99-.69,4.46l-9.29,35.97ZM1095.94,38.47c-1.23,0-2.55.37-3.96,1.1-1.41.74-2.85,2.06-4.32,3.96-1.47,1.9-3.02,4.54-4.65,7.91-1.63,3.37-3.28,7.68-4.97,12.93-1.69,5.24-3.42,11.58-5.2,19l2.02-12.42c1.96-6.75,3.74-12.33,5.34-16.74,1.59-4.42,3.2-7.93,4.83-10.53,1.62-2.61,3.34-4.46,5.15-5.57,1.81-1.1,3.88-1.66,6.21-1.66s4.23.71,5.52,2.12c1.29,1.41,1.93,3.19,1.93,5.34,0,1.72-.38,3.3-1.15,4.74-.77,1.44-1.81,2.61-3.13,3.5-1.32.89-2.81,1.33-4.46,1.33-1.78,0-3.16-.47-4.14-1.43-.98-.95-1.47-2.31-1.47-4.09,0-1.47.34-2.84,1.01-4.09.67-1.26,1.59-2.35,2.76-3.27s2.45-1.53,3.86-1.84c-.18-.06-.37-.12-.55-.18-.18-.06-.4-.09-.64-.09Z"/>
                      <path d="M1137.43,53c-2.27,6.75-4.45,12.31-6.53,16.7-2.09,4.39-4.12,7.79-6.12,10.21-1.99,2.42-4.03,4.14-6.12,5.15-2.09,1.01-4.29,1.52-6.62,1.52-2.58,0-4.55-.55-5.93-1.66-1.38-1.1-2.15-2.7-2.3-4.78-.15-2.08.23-4.57,1.15-7.45l8.92-27.14c.61-1.78.75-2.99.41-3.63-.34-.64-.87-.97-1.61-.97-.8,0-1.69.45-2.67,1.33-.98.89-2.03,2.87-3.13,5.93l-1.66,4.42h-1.75l2.3-6.72c.92-2.58,2.07-4.54,3.45-5.89,1.38-1.35,2.85-2.28,4.42-2.81,1.56-.52,3.05-.78,4.46-.78,2.76,0,4.81.6,6.16,1.79,1.35,1.2,2.08,2.88,2.21,5.06.12,2.18-.31,4.77-1.29,7.77l-8.28,24.84c-1.35,4.05-1.04,6.07.92,6.07,1.17,0,2.48-.77,3.96-2.3,1.47-1.53,3.02-3.65,4.65-6.35,1.62-2.7,3.23-5.86,4.83-9.48,1.59-3.62,3.13-7.51,4.6-11.68,1.47-4.17,2.76-8.43,3.86-12.79l-2.3,13.62ZM1141.94,77.48c-.43,1.53-.61,2.68-.55,3.45.06.77.58,1.15,1.56,1.15,1.1,0,2.13-.54,3.08-1.61.95-1.07,1.89-2.96,2.81-5.66l1.75-4.69h1.75l-2.48,6.99c-.8,2.39-1.86,4.28-3.17,5.66-1.32,1.38-2.76,2.36-4.32,2.94-1.56.58-3.17.87-4.83.87s-3.05-.28-4.19-.83c-1.14-.55-2.01-1.32-2.62-2.3-.61-1.16-.87-2.56-.78-4.19.09-1.62.38-3.48.87-5.57l9.29-35.97c2.51-.06,4.89-.18,7.13-.37,2.24-.18,4.31-.49,6.21-.92l-11.5,41.03Z"/>
                      <path d="M1168.98,45.55c1.04-3.07.7-4.6-1.01-4.6-1.1,0-2.12.55-3.04,1.66-.92,1.1-1.87,2.98-2.85,5.61l-1.84,4.69h-1.75l2.58-6.99c.86-2.45,1.95-4.35,3.27-5.7,1.32-1.35,2.79-2.31,4.42-2.9,1.62-.58,3.33-.87,5.11-.87,2.15,0,3.83.4,5.06,1.2,1.23.8,2.05,1.83,2.48,3.08.43,1.26.58,2.64.46,4.14s-.43,2.99-.92,4.46l-9.66,28.15c-.55,1.66-.69,2.84-.41,3.54.28.71.84,1.06,1.7,1.06.8,0,1.67-.46,2.62-1.38s2.01-2.88,3.17-5.89l1.66-4.42h1.75l-2.39,6.72c-.86,2.52-1.96,4.45-3.31,5.8-1.35,1.35-2.81,2.3-4.37,2.85-1.56.55-3.14.83-4.74.83-2.64,0-4.65-.58-6.03-1.75-1.38-1.16-2.13-2.85-2.25-5.06-.12-2.21.31-4.81,1.29-7.82l9.02-26.4ZM1172.48,22.37c.12-2.64,1.09-4.66,2.9-6.07,1.81-1.41,3.97-2.12,6.49-2.12,2.27,0,4,.54,5.2,1.61,1.2,1.07,1.73,2.56,1.61,4.46-.12,2.39-1.1,4.34-2.94,5.84-1.84,1.5-4.05,2.25-6.62,2.25-2.15,0-3.82-.54-5.01-1.61s-1.73-2.53-1.61-4.37Z"/>
                      <path d="M1200.9,77.48c-.43,1.6-.38,2.76.14,3.5.52.74,1.3,1.1,2.35,1.1,1.29,0,2.58-.64,3.86-1.93,1.29-1.29,2.42-3.28,3.4-5.98l1.38-3.77h1.75l-1.84,5.34c-1.23,3.68-3.02,6.41-5.38,8.19s-5.17,2.67-8.42,2.67c-2.82,0-5-.64-6.53-1.93-1.53-1.29-2.44-3.05-2.71-5.29-.28-2.24-.04-4.71.69-7.41l13.8-47.93c2.64-.06,5.03-.18,7.18-.37,2.15-.18,4.2-.49,6.16-.92l-15.82,54.74ZM1222.8,37.73l-.28,1.84h-31.92l.46-1.84h31.74Z"/>
                    </g>
                  </g>
                </g>
              </g>
            </g>
          </g>
        </g>
      </g>
    </g>
  </g>
</svg>