<?xml version="1.0" encoding="UTF-8"?>
<svg id="_레이어_2" data-name="레이어 2" xmlns="http://www.w3.org/2000/svg" xmlns:xlink="http://www.w3.org/1999/xlink" viewBox="0 0 511.6 50.46">
  <defs>
    <style>
      .cls-1 {
        letter-spacing: 0em;
      }

      .cls-2, .cls-3, .cls-4 {
        isolation: isolate;
      }

      .cls-3 {
        fill: #17202a;
        font-family: PlayfairDisplay-Bold, 'Playfair Display';
        font-size: 46px;
      }

      .cls-3, .cls-4 {
        font-weight: 700;
      }

      .cls-5 {
        fill: url(#_무제_그라디언트_2);
      }

      .cls-6 {
        fill: url(#_무제_그라디언트_2-2);
      }

      .cls-7 {
        letter-spacing: 0em;
      }

      .cls-8 {
        letter-spacing: -.02em;
      }

      .cls-9 {
        letter-spacing: 0em;
      }

      .cls-4 {
        font-family: PlayfairDisplay-BoldItalic, 'Playfair Display';
        font-size: 37.39px;
        font-style: italic;
      }
    </style>
    <linearGradient id="_무제_그라디언트_2" data-name="무제 그라디언트 2" x1="-.07" y1="1056.15" x2="36.69" y2="1092.91" gradientTransform="translate(0 1099.6072) scale(1 -1)" gradientUnits="userSpaceOnUse">
      <stop offset="0" stop-color="#2e3d5f"/>
      <stop offset="1" stop-color="#8abfa0"/>
    </linearGradient>
    <linearGradient id="_무제_그라디언트_2-2" data-name="무제 그라디언트 2" x1="5.19" y1="1057.72" x2="31.7" y2="1084.23" xlink:href="#_무제_그라디언트_2"/>
  </defs>
  <g id="_레이어_1-2" data-name=" 레이어 1">
    <g class="cls-2">
      <g class="cls-2">
        <g class="cls-2">
          <g class="cls-2">
            <g class="cls-2">
              <g class="cls-2">
                <g class="cls-2">
                  <text class="cls-3" transform="translate(50.34 39.28)"><tspan x="0" y="0">THE </tspan><tspan class="cls-9" x="107.41" y="0">P</tspan><tspan class="cls-7" x="136.66" y="0">H</tspan><tspan class="cls-8" x="173.46" y="0">A</tspan><tspan class="cls-1" x="203.23" y="0">RMA</tspan></text>
                </g>
              </g>
            </g>
          </g>
        </g>
      </g>
    </g>
    <g class="cls-2">
      <g class="cls-2">
        <g class="cls-2">
          <g class="cls-2">
            <g class="cls-2">
              <g class="cls-2">
                <g class="cls-2">
                  <text class="cls-4" transform="translate(374.6 39.37)"><tspan x="0" y="0">Recruit.</tspan></text>
                </g>
              </g>
            </g>
          </g>
        </g>
      </g>
    </g>
    <g>
      <polygon class="cls-5" points="33.07 6.62 3.82 6.62 0 6.62 0 10.45 0 43.52 3.82 43.52 3.82 10.45 33.07 10.45 33.07 43.52 36.62 43.52 36.62 10.45 36.62 6.62 33.07 6.62"/>
      <polygon class="cls-6" points="23.78 13.73 20.22 13.73 20.22 17.28 20.22 39.7 16.94 39.7 16.94 17.28 16.94 13.73 13.12 13.73 10.38 13.73 6.83 13.73 6.83 17.28 6.83 43.52 10.38 43.52 10.38 17.28 13.12 17.28 13.12 39.7 13.12 43.52 16.94 43.52 20.22 43.52 23.78 43.52 23.78 39.7 23.78 17.28 26.51 17.28 26.51 43.52 30.06 43.52 30.06 17.28 30.06 13.73 26.51 13.73 23.78 13.73"/>
    </g>
  </g>
</svg>