<?xml version="1.0" encoding="UTF-8"?>
<svg id="_레이어_2" data-name="레이어 2" xmlns="http://www.w3.org/2000/svg" viewBox="0 0 507.83 50.46">
  <defs>
    <style>
      .cls-1 {
        letter-spacing: 0em;
      }

      .cls-2, .cls-3, .cls-4 {
        isolation: isolate;
      }

      .cls-2, .cls-5 {
        fill: #f2f2f2;
      }

      .cls-6 {
        letter-spacing: 0em;
      }

      .cls-7 {
        letter-spacing: -.02em;
      }

      .cls-4 {
        fill: #fff;
        font-family: PlayfairDisplay-Bold, 'Playfair Display';
        font-size: 46px;
        font-weight: 700;
      }

      .cls-8 {
        letter-spacing: 0em;
      }
    </style>
  </defs>
  <g id="_레이어_1-2" data-name=" 레이어 1">
    <g>
      <g class="cls-3">
        <g class="cls-3">
          <g class="cls-3">
            <text class="cls-4" transform="translate(50.43 39.28)"><tspan x="0" y="0">THE </tspan><tspan class="cls-8" x="107.41" y="0">P</tspan><tspan class="cls-6" x="136.66" y="0">H</tspan><tspan class="cls-7" x="173.46" y="0">A</tspan><tspan class="cls-1" x="203.23" y="0">RMA</tspan></text>
          </g>
        </g>
      </g>
      <g>
        <polygon class="cls-5" points="33.07 6.78 3.82 6.78 0 6.78 0 10.6 0 43.67 3.82 43.67 3.82 10.6 33.07 10.6 33.07 43.67 36.62 43.67 36.62 10.6 36.62 6.78 33.07 6.78"/>
        <polygon class="cls-5" points="23.78 13.88 20.22 13.88 20.22 17.44 20.22 39.85 16.94 39.85 16.94 17.44 16.94 13.88 13.12 13.88 10.38 13.88 6.83 13.88 6.83 17.44 6.83 43.67 10.38 43.67 10.38 17.44 13.12 17.44 13.12 39.85 13.12 43.67 16.94 43.67 20.22 43.67 23.78 43.67 23.78 39.85 23.78 17.44 26.51 17.44 26.51 43.67 30.06 43.67 30.06 17.44 30.06 13.88 26.51 13.88 23.78 13.88"/>
      </g>
      <path class="cls-2" d="M382.24,26.66l.19-.67h1.23c1.22,0,2.34-.18,3.37-.54,1.02-.36,1.91-.9,2.65-1.63.75-.72,1.33-1.61,1.74-2.65.41-1.05.62-2.24.62-3.59s-.29-2.34-.86-2.97c-.57-.64-1.45-.95-2.62-.95-.72,0-1.27.17-1.63.5-.36.34-.68.99-.95,1.96l-5.09,19.29c-.2.75-.32,1.35-.36,1.81-.04.46.13.8.51,1.01.37.21,1.05.34,2.02.39l-.15.75c-.75-.05-1.63-.08-2.64-.09-1.01-.01-2.07-.02-3.2-.02-1.2,0-2.36,0-3.48.02-1.12.01-2.01.04-2.65.09l.15-.75c.85-.05,1.51-.15,1.98-.3s.85-.45,1.12-.9c.27-.45.52-1.12.75-2.02l4.9-18.55c.22-.77.34-1.38.34-1.83s-.18-.79-.54-1.01-1.02-.35-1.96-.37l.19-.75c.45.02,1,.04,1.65.06.65.01,1.33.03,2.04.04.71.01,1.37.02,1.96.02,1.15,0,2.16-.01,3.05-.04.88-.02,1.74-.04,2.56-.04,3.04,0,5.29.42,6.75,1.27,1.46.85,2.19,2.16,2.19,3.93s-.6,3.21-1.81,4.47c-1.21,1.26-2.89,2.24-5.03,2.95-2.14.71-4.64,1.07-7.48,1.07l-1.5.04ZM382.84,26.1c.72.05,1.33.09,1.81.13s.91.08,1.27.11.72.07,1.07.09c1.05.12,2.02.27,2.94.45.91.17,1.68.44,2.32.8.64.36,1.1.85,1.4,1.48s.39,1.43.26,2.43l-.52,3.85c-.07.8-.03,1.43.15,1.91.17.47.51.71,1.01.71s.93-.23,1.29-.69.69-1.13.99-2l.19-.52h.86l-.15.49c-.45,1.55-1.13,2.69-2.04,3.44-.91.75-2.14,1.12-3.68,1.12-1.72,0-2.95-.41-3.68-1.23-.74-.82-1.02-1.86-.84-3.1l.56-4.26c.12-1.02.09-1.88-.11-2.56-.2-.68-.7-1.2-1.5-1.55-.8-.35-2.02-.52-3.67-.52l.08-.56ZM404.37,31.26c1.02-.4,1.99-.85,2.92-1.35.92-.5,1.71-1.05,2.36-1.64.97-.87,1.75-1.89,2.34-3.05s.88-2.41.88-3.76c0-.5-.05-.83-.15-.99s-.25-.24-.45-.24c-.55,0-1.14.28-1.78.84-.63.56-1.26,1.31-1.89,2.24-.62.93-1.19,2-1.7,3.2s-.92,2.44-1.23,3.74c-.31,1.3-.47,2.56-.47,3.78,0,1.4.27,2.35.8,2.86.54.51,1.23.77,2.08.77.67,0,1.51-.22,2.5-.67,1-.45,1.98-1.25,2.95-2.39l.6.3c-.52.82-1.21,1.62-2.06,2.39s-1.83,1.4-2.95,1.89c-1.12.49-2.34.73-3.66.73-1.12,0-2.13-.2-3.01-.6-.89-.4-1.58-.99-2.09-1.78s-.77-1.75-.77-2.9c0-1.32.22-2.68.65-4.08.44-1.4,1.05-2.75,1.85-4.06s1.76-2.49,2.88-3.55,2.37-1.89,3.74-2.51c1.37-.61,2.83-.92,4.38-.92,1.1,0,2.02.24,2.77.73.75.49,1.12,1.23,1.12,2.22s-.27,1.88-.8,2.73c-.54.85-1.25,1.62-2.15,2.32-.9.7-1.9,1.32-3.01,1.87-1.11.55-2.24,1.02-3.4,1.42-1.16.4-2.25.71-3.27.93l.04-.49ZM430.77,20.27c-.92,0-1.83.39-2.73,1.18-.9.79-1.7,1.84-2.41,3.16-.71,1.32-1.28,2.8-1.7,4.45-.42,1.64-.64,3.34-.64,5.08,0,1.32.26,2.27.79,2.86s1.21.88,2.06.88c.8,0,1.61-.24,2.43-.71s1.66-1.33,2.51-2.58l.75.3c-.5.82-1.14,1.62-1.93,2.39s-1.7,1.4-2.73,1.89c-1.03.49-2.2.73-3.5.73-1.75,0-3.18-.47-4.3-1.4-1.12-.93-1.68-2.39-1.68-4.36,0-1.22.19-2.5.58-3.85.39-1.35.94-2.66,1.66-3.94.72-1.28,1.61-2.44,2.65-3.46,1.05-1.02,2.23-1.84,3.55-2.45,1.32-.61,2.75-.92,4.3-.92,1.37,0,2.47.34,3.31,1.03.83.69,1.25,1.54,1.25,2.56,0,.67-.16,1.33-.49,1.96s-.77,1.16-1.33,1.57c-.56.41-1.19.62-1.89.62-.6,0-1.1-.19-1.51-.58-.41-.39-.62-.92-.62-1.59,0-1.02.34-1.9,1.03-2.64s1.48-1.21,2.37-1.44c-.2-.25-.44-.44-.73-.56-.29-.12-.64-.19-1.06-.19ZM440.91,39.37h-5.27l4.56-16.15c.17-.67.23-1.15.17-1.44-.06-.29-.26-.43-.58-.43-.45,0-.86.22-1.23.66-.37.44-.77,1.2-1.2,2.3l-.71,1.91h-.71l1.01-2.84c.37-1,.82-1.77,1.35-2.32.52-.55,1.12-.94,1.78-1.18.66-.24,1.34-.36,2.04-.36.8,0,1.41.16,1.83.47s.71.73.86,1.25.21,1.09.17,1.7c-.04.61-.13,1.21-.28,1.81l-3.78,14.62ZM450.48,20.34c-.5,0-1.03.15-1.61.45-.57.3-1.16.84-1.76,1.61s-1.23,1.84-1.89,3.21c-.66,1.37-1.33,3.12-2.02,5.25-.69,2.13-1.39,4.71-2.11,7.72l.82-5.05c.8-2.74,1.52-5.01,2.17-6.8.65-1.79,1.3-3.22,1.96-4.28.66-1.06,1.36-1.81,2.09-2.26.73-.45,1.58-.67,2.52-.67s1.72.29,2.24.86.79,1.3.79,2.17c0,.7-.16,1.34-.47,1.92-.31.59-.74,1.06-1.27,1.42-.54.36-1.14.54-1.81.54-.72,0-1.28-.19-1.68-.58-.4-.39-.6-.94-.6-1.66,0-.6.14-1.15.41-1.66.27-.51.65-.95,1.12-1.33.47-.37,1-.62,1.57-.75-.07-.03-.15-.05-.22-.08-.08-.02-.16-.04-.26-.04ZM467.71,26.25c-.92,2.74-1.81,5-2.66,6.79-.85,1.78-1.68,3.17-2.49,4.15-.81.99-1.64,1.68-2.49,2.09s-1.74.62-2.69.62c-1.05,0-1.85-.22-2.41-.67-.56-.45-.87-1.1-.93-1.94-.06-.85.09-1.86.47-3.03l3.63-11.03c.25-.72.3-1.21.17-1.48-.14-.26-.36-.39-.65-.39-.32,0-.69.18-1.08.54-.4.36-.82,1.17-1.27,2.41l-.67,1.79h-.71l.93-2.73c.37-1.05.84-1.84,1.4-2.39.56-.55,1.16-.93,1.79-1.14.63-.21,1.24-.32,1.81-.32,1.12,0,1.96.24,2.51.73.55.49.85,1.17.9,2.06.05.88-.12,1.94-.52,3.16l-3.36,10.1c-.55,1.64-.42,2.47.37,2.47.47,0,1.01-.31,1.61-.94.6-.62,1.23-1.48,1.89-2.58.66-1.1,1.31-2.38,1.96-3.85.65-1.47,1.27-3.05,1.87-4.75s1.12-3.43,1.57-5.2l-.93,5.53ZM469.55,36.2c-.17.62-.25,1.09-.22,1.4.02.31.24.47.63.47.45,0,.87-.22,1.25-.65.39-.44.77-1.2,1.14-2.3l.71-1.91h.71l-1.01,2.84c-.32.97-.75,1.74-1.29,2.3s-1.12.96-1.76,1.2c-.64.24-1.29.36-1.96.36s-1.24-.11-1.7-.34c-.46-.22-.82-.54-1.07-.93-.25-.47-.36-1.04-.32-1.7.04-.66.16-1.41.36-2.26l3.78-14.62c1.02-.02,1.99-.07,2.9-.15.91-.07,1.75-.2,2.52-.37l-4.67,16.68ZM480.91,23.22c.42-1.25.29-1.87-.41-1.87-.45,0-.86.22-1.23.67-.37.45-.76,1.21-1.16,2.28l-.75,1.91h-.71l1.05-2.84c.35-1,.79-1.77,1.33-2.32.54-.55,1.13-.94,1.79-1.18.66-.24,1.35-.36,2.07-.36.87,0,1.56.16,2.06.49.5.32.84.74,1.01,1.25s.24,1.07.19,1.68c-.05.61-.17,1.21-.37,1.81l-3.93,11.44c-.22.67-.28,1.15-.17,1.44.11.29.34.43.69.43.32,0,.68-.19,1.07-.56s.82-1.17,1.29-2.39l.67-1.79h.71l-.97,2.73c-.35,1.02-.8,1.81-1.35,2.36-.55.55-1.14.93-1.78,1.16-.64.22-1.28.34-1.93.34-1.07,0-1.89-.24-2.45-.71-.56-.47-.87-1.16-.92-2.06-.05-.9.12-1.96.52-3.18l3.66-10.73ZM482.33,13.8c.05-1.07.44-1.89,1.18-2.47.74-.57,1.61-.86,2.64-.86.92,0,1.63.22,2.11.65.49.44.7,1.04.65,1.81-.05.97-.45,1.76-1.2,2.37-.75.61-1.65.92-2.69.92-.87,0-1.55-.22-2.04-.65-.49-.44-.7-1.03-.65-1.78ZM494.26,36.2c-.17.65-.16,1.12.06,1.42.21.3.53.45.95.45.52,0,1.05-.26,1.57-.79s.98-1.33,1.38-2.43l.56-1.53h.71l-.75,2.17c-.5,1.5-1.23,2.61-2.19,3.33s-2.1,1.08-3.42,1.08c-1.15,0-2.03-.26-2.66-.79s-.99-1.24-1.1-2.15c-.11-.91-.02-1.91.28-3.01l5.61-19.48c1.07-.03,2.04-.08,2.92-.15.87-.07,1.71-.2,2.5-.37l-6.43,22.25ZM503.16,20.04l-.11.75h-12.97l.19-.75h12.9ZM501.66,37.66c0-1,.36-1.83,1.07-2.5.71-.67,1.56-1.01,2.56-1.01.8,0,1.42.2,1.87.6.45.4.67.96.67,1.68,0,.6-.17,1.17-.5,1.7-.34.54-.78.97-1.33,1.29-.55.32-1.16.49-1.83.49-.8,0-1.42-.2-1.85-.6-.44-.4-.65-.95-.65-1.64Z"/>
    </g>
  </g>
</svg>