<svg xmlns="http://www.w3.org/2000/svg" width="1227.4pt" height="289.134pt" viewBox="0 0 1227.4 289.134"><clipPath id="a"><path d="M0 0h1227.401v289.134H0Z"/></clipPath><g clip-path="url(#a)"><path fill="#aed1ef" d="M1092.394 286.08c-75.778 0-141.531-63.362-141.531-141.503 0-78.164 63.354-141.523 141.53-141.523Z"/><path fill="#cc67a4" d="M1222.086 144.577 1092.392 3.054V286.08ZM28.949 222.223c-3.897 0-6.98 1.337-9.19 3.96V223h-6.33v31.154h6.33v-16.47c0-8.15 5.114-9.373 8.165-9.373 4.387 0 6.909 2.61 6.909 7.145v18.698h6.324V235.15c0-7.86-4.79-12.927-12.208-12.927M77.793 238.575c0 5.821-4.362 10.215-10.15 10.215-5.757 0-10.094-4.394-10.094-10.215 0-5.82 4.337-10.214 10.094-10.214 5.788 0 10.15 4.394 10.15 10.214m0-11.526c-2.636-3.159-6.342-4.827-10.813-4.827-8.686 0-15.754 7.336-15.754 16.353 0 9.03 7.068 16.366 15.754 16.366 4.464 0 8.17-1.668 10.813-4.84v4.051h6.324V223h-6.324ZM106.383 214.402l-6.324 1.885V223h-5.954v6.151h5.954v15.742c0 3.465.866 5.91 2.662 7.477 1.599 1.4 3.89 2.09 7.08 2.09 1.23 0 2.593-.104 4.096-.307l.478-.063v-5.745l-1.178.051c-2.93.153-5.05.23-6.012-.687-.547-.523-.802-1.414-.802-2.816V229.15h7.992V223h-7.992ZM129.132 210.505a4.095 4.095 0 0 0-4.095 4.089c0 2.228 1.834 4.037 4.095 4.037a4.04 4.04 0 0 0 4.038-4.037c0-2.255-1.809-4.089-4.038-4.089M125.942 254.152h6.324v-31.153h-6.324ZM168.592 238.575c0 5.796-4.337 10.164-10.094 10.164-5.718 0-10.035-4.368-10.035-10.164 0-5.692 4.406-10.15 10.035-10.15 5.757 0 10.094 4.368 10.094 10.15m-10.094-16.353c-9.176 0-16.359 7.183-16.359 16.353 0 9.184 7.183 16.366 16.36 16.366 9.208 0 16.416-7.182 16.416-16.366 0-9.17-7.208-16.353-16.417-16.353M199.71 222.223c-3.897 0-6.979 1.337-9.189 3.96V223h-6.33v31.154h6.33v-16.47c0-8.15 5.115-9.373 8.165-9.373 4.387 0 6.908 2.61 6.908 7.145v18.698h6.325V235.15c0-7.86-4.79-12.927-12.209-12.927M247.522 238.575c0 5.821-4.37 10.215-10.157 10.215-5.751 0-10.089-4.394-10.089-10.215 0-5.82 4.338-10.214 10.088-10.214 5.788 0 10.157 4.394 10.157 10.214m0-11.526c-2.636-3.159-6.342-4.827-10.812-4.827-8.694 0-15.762 7.336-15.762 16.353 0 9.184 6.923 16.366 15.762 16.366 4.464 0 8.17-1.668 10.813-4.84v4.051h6.323V223h-6.323ZM264.844 254.152h6.323V209.18h-6.323ZM330.26 222.223c-3.942 0-7.247 1.63-9.406 4.623-1.936-3.031-4.986-4.623-8.865-4.623-3.496 0-6.316 1.248-8.412 3.693v-2.917h-6.323v31.154h6.323v-17.258c0-5.375 2.675-8.585 7.145-8.585 3.7 0 5.827 2.472 5.827 6.789v19.054h6.324v-17.258c0-5.54 2.432-8.585 6.845-8.585 3.802 0 6.069 2.535 6.069 6.789v19.054h6.324v-19.245c0-7.591-4.764-12.685-11.851-12.685M369.734 228.246c3.675 0 7.903 2.013 9.024 7.616h-18.761c1.019-4.712 4.7-7.616 9.737-7.616m0-6.023c-9.444 0-16.296 6.877-16.296 16.352 0 9.642 6.852 16.366 16.659 16.366 5.884 0 10.743-2.508 13.679-7.055l.318-.485-5.413-3.069-.28.46c-1.573 2.584-4.63 4.126-8.183 4.126-5.285 0-9.055-2.752-10.202-7.388h24.976l.07-.458c.128-.815.19-1.63.19-2.432 0-9.362-6.672-16.417-15.518-16.417M422.896 238.575c0 5.821-4.363 10.215-10.151 10.215-5.757 0-10.093-4.394-10.093-10.215 0-5.82 4.336-10.214 10.093-10.214 5.788 0 10.15 4.394 10.15 10.214m0-11.526c-2.635-3.159-6.342-4.827-10.812-4.827-8.688 0-15.755 7.336-15.755 16.353 0 9.03 7.068 16.366 15.755 16.366 4.464 0 8.17-1.668 10.813-4.84v4.051h6.322v-43.177h-6.322ZM443.962 210.505a4.095 4.095 0 0 0-4.096 4.089c0 2.228 1.834 4.037 4.096 4.037a4.037 4.037 0 0 0 4.03-4.037c0-2.255-1.808-4.089-4.03-4.089M440.771 254.152h6.323v-31.153h-6.323ZM482.99 243.733c-1.662 3.096-4.872 4.942-8.591 4.942-5.718 0-10.03-4.343-10.03-10.1 0-5.781 4.312-10.15 10.03-10.15 3.738 0 6.954 1.91 8.4 4.98l.254.547 5.344-3.095-.217-.458c-2.426-5.043-7.706-8.177-13.781-8.177-9.33 0-16.36 7.031-16.36 16.353 0 9.337 7.03 16.367 16.36 16.367 5.948 0 11.317-3.108 14.01-8.113l.248-.459-5.4-3.145ZM523.97 238.575c0 5.821-4.368 10.215-10.156 10.215-5.751 0-10.087-4.394-10.087-10.215 0-5.82 4.336-10.214 10.087-10.214 5.788 0 10.157 4.394 10.157 10.214m0-11.526c-2.636-3.159-6.343-4.827-10.813-4.827-8.693 0-15.761 7.336-15.761 16.353 0 9.184 6.922 16.366 15.76 16.366 4.465 0 8.17-1.668 10.814-4.84v4.051h6.324V223h-6.324ZM541.512 254.152h6.324V209.18h-6.324ZM600.02 243.733c-1.667 3.096-4.89 4.942-8.596 4.942-5.718 0-10.036-4.343-10.036-10.1 0-5.781 4.318-10.15 10.036-10.15 3.732 0 6.954 1.91 8.393 4.98l.255.547 5.349-3.095-.216-.458c-2.42-5.043-7.706-8.177-13.781-8.177-9.323 0-16.354 7.031-16.354 16.353 0 9.337 7.03 16.367 16.354 16.367 5.948 0 11.323-3.108 14.01-8.113l.254-.459-5.4-3.145ZM620.406 235.862c1.02-4.712 4.7-7.616 9.743-7.616 3.681 0 7.897 2.012 9.03 7.616Zm9.743-13.64c-9.45 0-16.303 6.877-16.303 16.353 0 9.641 6.853 16.366 16.66 16.366 5.883 0 10.75-2.509 13.678-7.056l.32-.484-5.414-3.069-.28.46c-1.567 2.584-4.636 4.126-8.19 4.126-5.285 0-9.042-2.752-10.2-7.388h24.987l.076-.47a17.71 17.71 0 0 0 .18-2.42c0-9.362-6.675-16.418-15.514-16.418M670.62 222.223c-3.897 0-6.98 1.337-9.196 3.974v-3.198h-6.33v31.154h6.33v-16.47c0-8.15 5.12-9.373 8.164-9.373 4.394 0 6.916 2.61 6.916 7.145v18.698h6.317V235.15c0-7.86-4.789-12.927-12.202-12.927M704.099 214.402l-6.33 1.885V223h-5.947v6.151h5.948v15.742c0 3.465.865 5.91 2.66 7.477 1.606 1.4 3.898 2.09 7.096 2.09 1.22 0 2.585-.104 4.1-.307l.472-.063v-5.745l-1.172.051c-2.942.153-5.07.23-6.024-.687-.548-.523-.803-1.414-.803-2.816V229.15h7.999V223h-8ZM727.362 235.862c1.02-4.712 4.7-7.616 9.73-7.616 3.68 0 7.91 2.012 9.03 7.616Zm9.73-13.64c-9.438 0-16.29 6.877-16.29 16.353 0 9.641 6.852 16.366 16.66 16.366 5.871 0 10.736-2.509 13.678-7.056l.32-.484-5.414-3.069-.28.46c-1.567 2.584-4.636 4.126-8.19 4.126-5.285 0-9.043-2.752-10.202-7.388h24.976l.076-.458a15.59 15.59 0 0 0 .192-2.433c0-9.36-6.674-16.417-15.526-16.417M776.37 222.464c-3.898 0-6.904 1.4-8.827 4.089v-3.554h-6.33v31.153h6.33v-16.468c0-2.827.79-5.018 2.356-6.521 1.541-1.477 3.834-2.178 6.445-2.14l.573.026v-6.585Z"/><path fill="#000006" d="M755.468 60.456c.52 0 .944-.422.944-.944v-7.776a.945.945 0 0 0-.944-.945h-77.874a.946.946 0 0 0-.945.945v7.776c0 .522.424.944.945.944ZM755.468 95.67c.52 0 .944-.421.944-.944V86.95a.945.945 0 0 0-.944-.945H691.97a.944.944 0 0 0-.944.945v7.775c0 .523.422.945.944.945ZM691.026 124.448v7.776c0 .522.423.945.944.945h80.07a.946.946 0 0 0 .943-.945v-7.776a.946.946 0 0 0-.944-.944H691.97a.944.944 0 0 0-.944.944M664.222 160.281a.944.944 0 0 0-.944.944v7.776c0 .522.424.944.944.944H783.22c.52 0 .944-.422.944-.944v-7.776a.944.944 0 0 0-.944-.944ZM685.37 133.169a.944.944 0 0 0 .944-.945V86.95a.943.943 0 0 0-.944-.944h-7.776a.946.946 0 0 0-.946.944v45.274c0 .522.425.945.946.945ZM769.838 95.67a.945.945 0 0 0 .945-.944v-42.99a.945.945 0 0 0-.945-.944h-7.776a.943.943 0 0 0-.945.944v42.99c0 .523.422.945.945.945ZM699.299 138.825v15.8c0 .524.423.946.945.946h7.777a.946.946 0 0 0 .945-.945v-15.801a.947.947 0 0 0-.945-.945h-7.777a.945.945 0 0 0-.945.945M740.645 138.825v15.8c0 .524.423.946.945.946h7.775a.942.942 0 0 0 .944-.945v-15.801a.943.943 0 0 0-.944-.945h-7.775a.945.945 0 0 0-.945.945M839.67 58.38c17.349 0 28.56 6.642 28.56 16.921 0 10.27-11.211 16.912-28.56 16.912-17.348 0-28.559-6.643-28.559-16.912 0-10.279 11.211-16.92 28.559-16.92m0 43.515c23.223 0 38.234-10.439 38.234-26.595s-15.011-26.595-38.234-26.595c-23.227 0-38.234 10.44-38.234 26.595 0 16.156 15.007 26.595 38.234 26.595M883.832 117.58v-7.777a.944.944 0 0 0-.944-.944h-89.54a.946.946 0 0 0-.946.944v7.777c0 .521.425.944.945.944h89.541a.944.944 0 0 0 .944-.944M825.68 167.582a.944.944 0 0 0-.943.944v7.776c0 .522.423.944.944.944h79.269a.944.944 0 0 0 .944-.944v-7.776a.944.944 0 0 0-.944-.944ZM866.145 130.138v7.777c0 .522.42.945.944.945h23.475c.52 0 .945-.423.945-.945v-7.777a.945.945 0 0 0-.945-.943h-23.475a.942.942 0 0 0-.944.943M832.308 124.18v21.142c0 .522.42.945.944.945h7.777c.52 0 .945-.423.945-.945V124.18a.945.945 0 0 0-.945-.944h-7.777a.942.942 0 0 0-.944.944M811.3 135.866a.944.944 0 0 0-.943.944v39.492c0 .522.423.944.944.944h7.777c.52 0 .945-.422.945-.944V136.81a.945.945 0 0 0-.945-.944ZM904.944 47.757h-7.777a.945.945 0 0 0-.945.944v103.71c0 .521.425.943.945.943h7.777a.944.944 0 0 0 .944-.944V48.701a.944.944 0 0 0-.944-.944M580.417 59.716c18.238 0 29.12 11.772 29.12 31.485 0 19.615-10.882 31.326-29.12 31.326-18.048 0-28.826-11.71-28.826-31.326 0-19.713 10.778-31.485 28.826-31.485m0 72.493c23.573 0 38.804-16.094 38.804-41.008 0-25.004-15.23-41.159-38.804-41.159-23.394 0-38.51 16.155-38.51 41.16 0 24.913 15.116 41.007 38.51 41.007M535.36 160.281a.944.944 0 0 0-.944.944v7.776c0 .522.423.944.945.944h92.81a.943.943 0 0 0 .945-.944v-7.776a.943.943 0 0 0-.945-.944ZM637.563 47.757a.944.944 0 0 0-.944.944v127.6c0 .523.423.945.944.945h7.777a.944.944 0 0 0 .945-.945v-127.6a.944.944 0 0 0-.945-.944ZM197.49 60.456a.943.943 0 0 0 .943-.944v-7.776a.944.944 0 0 0-.944-.945h-51.285a.946.946 0 0 0-.944.945v7.776c0 .522.425.944.944.944ZM197.49 86.82a.944.944 0 0 0 .943-.944V78.1a.944.944 0 0 0-.944-.944h-51.285a.946.946 0 0 0-.944.944v7.777c0 .521.425.944.944.944ZM174.016 143.252v7.775c0 .523.42.946.944.946h57.808a.943.943 0 0 0 .945-.946v-7.775a.943.943 0 0 0-.945-.945H174.96a.943.943 0 0 0-.944.945M159.636 105.836v7.777c0 .521.423.944.944.944h59.276a.943.943 0 0 0 .945-.944v-7.777a.943.943 0 0 0-.945-.944H160.58a.944.944 0 0 0-.944.944M146.205 91.53a.944.944 0 0 0-.944.945v21.138c0 .52.424.944.944.944h7.777c.52 0 .945-.423.945-.944V92.475a.945.945 0 0 0-.945-.944ZM211.864 86.82a.943.943 0 0 0 .944-.944v-34.14a.943.943 0 0 0-.944-.945h-7.775a.944.944 0 0 0-.944.945v34.14c0 .521.422.944.944.944ZM203.145 51.736v34.14"/><path fill="#000006" d="M159.64 176.302c0 .522.421.944.943.944h86.563a.943.943 0 0 0 .944-.944V130.07a.944.944 0 0 0-.944-.945h-7.778a.945.945 0 0 0-.944.945v37.51h-69.119v-37.51a.945.945 0 0 0-.945-.945h-7.777a.944.944 0 0 0-.944.945ZM239.369 47.757a.944.944 0 0 0-.944.944v68.5c0 .52.423.944.944.944h7.777a.946.946 0 0 0 .945-.945V48.701a.944.944 0 0 0-.945-.944ZM98.951 60.456a.943.943 0 0 0 .944-.944v-7.776a.944.944 0 0 0-.944-.945H20.708a.945.945 0 0 0-.945.945v7.776c0 .522.423.944.945.944ZM114.264 140.497v-7.776a.944.944 0 0 0-.945-.944H20.71a.943.943 0 0 0-.945.944v7.776c0 .522.422.944.944.944h92.611a.944.944 0 0 0 .945-.944M113.322 88.038a.942.942 0 0 0 .944-.944V51.736a.943.943 0 0 0-.944-.945h-7.775a.944.944 0 0 0-.944.945v35.358c0 .522.422.944.944.944ZM71.847 126.13v-13.748a.945.945 0 0 0-.944-.944h-7.778a.944.944 0 0 0-.944.944v13.748c0 .522.423.944.944.944h7.778a.945.945 0 0 0 .944-.944M105.547 146.153a.943.943 0 0 0-.944.944v29.204c0 .523.422.945.944.945h7.775a.942.942 0 0 0 .944-.945v-29.204a.942.942 0 0 0-.944-.944ZM7.513 97.066a.944.944 0 0 0-.945.944v7.777c0 .521.42.945.945.945h118.993a.944.944 0 0 0 .945-.945V98.01c0-.52-.42-.944-.945-.944ZM344.656 61.001l-1.661-.545H374.4c.52 0 .944-.423.944-.944v-7.776a.945.945 0 0 0-.944-.945h-90.337a.946.946 0 0 0-.944.945v7.776c0 .521.425.944.944.944h31.406l-1.684.56-33.567 22.756a.946.946 0 0 0-.247 1.313l4.259 6.233a.942.942 0 0 0 1.312.248l42.983-29.319.707-.59.707.59 42.984 29.32a.942.942 0 0 0 1.312-.249l4.258-6.233a.945.945 0 0 0-.247-1.313ZM269.735 99.296a.943.943 0 0 0-.944.944v7.778c0 .522.42.944.944.944h118.993a.942.942 0 0 0 .945-.945v-7.776a.944.944 0 0 0-.945-.945ZM334.065 127.077v-12.47a.946.946 0 0 0-.945-.944h-7.777a.946.946 0 0 0-.945.945v12.469c0 .52.425.944.945.944h7.776c.52 0 .945-.423.945-.944M329.143 142.38c-25.032 0-36.818 7.428-36.818 14.415 0 7.235 12.693 14.72 36.818 14.72 24.234 0 36.995-7.485 36.995-14.72 0-6.987-11.848-14.415-36.995-14.415m0 38.796c-28.856 0-46.52-9.797-46.52-24.381 0-14.625 17.213-24.076 46.52-24.076 29.415 0 46.697 9.451 46.697 24.076 0 14.584-17.736 24.381-46.697 24.381M457.887 171.467c-21.827 0-36.5-7.913-36.5-19.694 0-11.613 14.673-19.41 36.5-19.41 21.918 0 36.652 7.797 36.652 19.41 0 11.78-14.734 19.694-36.652 19.694m0-48.78c-28.053 0-46.183 11.418-46.183 29.086 0 17.569 18.559 29.378 46.183 29.378 27.707 0 46.328-11.81 46.328-29.378 0-17.668-18.184-29.085-46.328-29.085M411.143 80.574c0-13.062 10.681-22.184 25.966-22.184 15.283 0 25.954 9.122 25.954 22.184 0 13.062-10.67 22.184-25.954 22.184-15.285 0-25.966-9.122-25.966-22.184m61.602 0c0-18.761-14.653-31.867-35.636-31.867-20.995 0-35.648 13.106-35.648 31.867 0 18.76 14.653 31.867 35.648 31.867 20.983 0 35.636-13.106 35.636-31.867M502.172 115.571a.946.946 0 0 0 .944-.944V48.701a.945.945 0 0 0-.944-.944h-7.777a.944.944 0 0 0-.945.944v65.926c0 .52.423.944.945.944ZM508.773 87.34h13.748a.945.945 0 0 0 .944-.943v-7.778a.944.944 0 0 0-.944-.944h-13.748a.944.944 0 0 0-.944.944v7.778c0 .519.422.944.944.944"/></g></svg>