<svg xmlns="http://www.w3.org/2000/svg" xml:space="preserve" width="567.15271" height="109.02846" viewBox="0 0 567.1527 109.02846"><g style="stroke-width:.438853"><g style="stroke-width:.438853"><path d="M0 0s.136 6.88-.758 9.444c-.905 2.561-1.911 6.69-8.599 11-2.333 1.511-3.104 1.371-3.341 1.231-.247-.138-.611-.762-.543-3.529.073-2.776-.135-10.397 3.121-13.761C-6.856 1.025-4.338.225 0 0" style="fill:#00accd;fill-opacity:1;fill-rule:nonzero;stroke:none;stroke-width:.438853" transform="matrix(3.03823 0 0 -3.03823 40.254 108.226)"/></g><g style="stroke-width:.438853"><path d="M0 0c5.236 8.381 13.126 11.337 13.987 11.598.745.221 1.117.463 1.178 1.078.07.59-.892 1.862-3.669 3.182C7.702 17.665 0 17.454 0 17.454s-7.69.211-11.485-1.596c-2.776-1.32-3.747-2.592-3.675-3.182.07-.615.429-.857 1.178-1.078C-13.125 11.337-5.229 8.381 0 0" style="fill:#00accd;fill-opacity:1;fill-rule:nonzero;stroke:none;stroke-width:.438853" transform="matrix(3.03823 0 0 -3.03823 56.301 53.052)"/></g><g style="stroke-width:.438853"><path d="M0 0c1.377 0 2.646.062 3.802.14 0 0 .138 6.193-.243 8.496-.418 2.557-1.303 6.602-3.559 9.721-2.245-3.119-3.131-7.164-3.552-9.721C-3.92 6.333-3.788.14-3.788.14A56 56 0 0 1 0 0" style="fill:#00accd;fill-opacity:1;fill-rule:nonzero;stroke:none;stroke-width:.438853" transform="matrix(3.03823 0 0 -3.03823 56.301 109.028)"/></g><g style="stroke-width:.438853"><path d="M0 0s-.14 6.88.76 9.444c.908 2.561 1.912 6.69 8.602 11 2.33 1.511 3.105 1.371 3.341 1.231.246-.138.61-.762.536-3.529-.067-2.776.145-10.397-3.118-13.761C6.861 1.025 4.332.225 0 0" style="fill:#00accd;fill-opacity:1;fill-rule:nonzero;stroke:none;stroke-width:.438853" transform="matrix(3.03823 0 0 -3.03823 72.368 108.226)"/></g><g style="stroke-width:.438853"><path d="M0 0c-.473.092-.787.568-.787 1.071 0 .617.497 1.116 1.11 1.116.101 0 .295-.029.444-.096 0 0 5.025-2.277 8.19-6.45l-.085-.125C4.639-1.165 0 0 0 0" style="fill:#00accd;fill-opacity:1;fill-rule:nonzero;stroke:none;stroke-width:.438853" transform="matrix(3.03823 0 0 -3.03823 7.039 24.083)"/></g><g style="stroke-width:.438853"><path d="M0 0a1.125 1.125 0 0 0-.844 1.045c-.017.613.454 1.161 1.072 1.161.142 0 .347-.032.499-.101 0 0 5.061-2.052 8.226-5.924l-.091-.109C4.438-.791 0 0 0 0" style="fill:#00accd;fill-opacity:1;fill-rule:nonzero;stroke:none;stroke-width:.438853" transform="matrix(3.03823 0 0 -3.03823 3.623 31.923)"/></g><g style="stroke-width:.438853"><path d="M0 0c-.46.114-.801.522-.816 1-.027.599.437 1.137 1.044 1.137.039 0 .234-.007.431-.074 0 0 4.876-1.988 7.418-5.066l-.082-.134C3.757-.429 0 0 0 0" style="fill:#00accd;fill-opacity:1;fill-rule:nonzero;stroke:none;stroke-width:.438853" transform="matrix(3.03823 0 0 -3.03823 2.954 40.443)"/></g><g style="stroke-width:.438853"><path d="M0 0c.48.092.802.568.802 1.071 0 .617-.508 1.116-1.126 1.116-.091 0-.29-.029-.442-.096 0 0-5.028-2.277-8.188-6.45l.083-.125C-4.633-1.165 0 0 0 0" style="fill:#00accd;fill-opacity:1;fill-rule:nonzero;stroke:none;stroke-width:.438853" transform="matrix(3.03823 0 0 -3.03823 105.574 24.083)"/></g><g style="stroke-width:.438853"><path d="M0 0c.464.117.818.537.836 1.045.028.613-.461 1.161-1.069 1.161-.14 0-.342-.032-.499-.101 0 0-5.06-2.052-8.235-5.924l.095-.109C-4.448-.791 0 0 0 0" style="fill:#00accd;fill-opacity:1;fill-rule:nonzero;stroke:none;stroke-width:.438853" transform="matrix(3.03823 0 0 -3.03823 109.023 31.923)"/></g><g style="stroke-width:.438853"><path d="M0 0c.454.114.797.522.811 1 .039.599-.43 1.137-1.026 1.137a1.5 1.5 0 0 1-.439-.074S-5.536.075-8.08-3.003l.086-.134C-3.769-.429 0 0 0 0" style="fill:#00accd;fill-opacity:1;fill-rule:nonzero;stroke:none;stroke-width:.438853" transform="matrix(3.03823 0 0 -3.03823 109.675 40.443)"/></g><g style="stroke-width:.438853"><path d="M0 0h-4.686v-28.393H0v15.687h4.86v3.407H0Z" style="fill:#231f20;fill-opacity:1;fill-rule:nonzero;stroke:none;stroke-width:.438853" transform="matrix(3.03823 0 0 -3.03823 364.24 12.304)"/></g><g style="stroke-width:.438853"><path d="M0 0c-3.793 0-6.867 4.986-6.867 11.139S-3.793 22.278 0 22.278c3.792 0 6.866-4.986 6.866-11.139S3.792 0 0 0m0 25.106c-6.375 0-11.542-6.253-11.542-13.967S-6.375-2.828 0-2.828s11.542 6.253 11.542 13.967S6.375 25.106 0 25.106" style="fill:#231f20;fill-opacity:1;fill-rule:nonzero;stroke:none;stroke-width:.438853" transform="matrix(3.03823 0 0 -3.03823 303.292 87.507)"/></g><g style="stroke-width:.438853"><path d="M0 0h-15.047v2.357l13.067.002v2.697h-26.549v3.639H-1.98v2.697h-31.234l.002-6.196c0-1.568 1.399-2.84 3.123-2.84l9.93.001V0h-15.05v-2.84H0Z" style="fill:#231f20;fill-opacity:1;fill-rule:nonzero;stroke:none;stroke-width:.438853" transform="matrix(3.03823 0 0 -3.03823 256.398 48.197)"/></g><g style="stroke-width:.438853"><path d="M0 0c0-2.31-4.872-4.186-10.881-4.186S-21.765-2.31-21.765 0s4.874 4.186 10.884 4.186C-4.872 4.186 0 2.31 0 0m-26.726-.071c0-3.764 7.093-6.815 15.845-6.815 8.749 0 15.843 3.051 15.843 6.815s-7.094 6.814-15.843 6.814c-8.752 0-15.845-3.05-15.845-6.814" style="fill:#231f20;fill-opacity:1;fill-rule:nonzero;stroke:none;stroke-width:.438853" transform="matrix(3.03823 0 0 -3.03823 235.997 81.17)"/></g><g style="stroke-width:.438853"><path d="M0 0c9.043 0 14.229 2.645 14.229 7.254 0 3.966-4.467 5.271-10.127 6.924l-1.38.404c-.853.254-1.672.488-2.455.714-5.432 1.557-9.02 2.586-9.02 5.237 0 2.428 2.673 3.765 7.531 3.765l.171.007c4.52 0 8.982-1.775 12.569-5.001l.296-.269-.003 4.41-.034.163-.041.028c-1.088.747-6.479 3.532-12.962 3.532-8.256 0-13.382-2.612-13.382-6.818 0-5.226 8.015-7.088 11.866-7.983.53-.124.975-.228 1.304-.317l.985-.273c6.425-1.767 8.829-2.429 8.829-4.649 0-2.602-2.782-3.921-8.269-3.921-4.899 0-9.823 1.598-12.258 3.98l-.248.213-2.603-2.899.242-.253C-12.236 2.134-6.692 0 0 0" style="fill:#231f20;fill-opacity:1;fill-rule:nonzero;stroke:none;stroke-width:.438853" transform="matrix(3.03823 0 0 -3.03823 433.94 96.689)"/></g><g style="stroke-width:.438853"><path d="M0 0h11.571v-23.582h5.173V0h11.571v3.163H0Z" style="fill:#231f20;fill-opacity:1;fill-rule:nonzero;stroke:none;stroke-width:.438853" transform="matrix(3.03823 0 0 -3.03823 481.125 24.401)"/></g></g></svg>