<svg xmlns="http://www.w3.org/2000/svg" width="588" height="240" fill="none" viewBox="0 0 147 60"><path fill="#E3E2E1" fill-rule="evenodd" d="m30.194 2.852 2.551 3.732H27.65zM27.33 7.048h5.73l2.586 3.788h-10.9zM24.425 11.3h11.541l2.586 3.788H21.844zm-2.503 4.252h16.551l-2.587 3.788H24.513zm2.904 4.252H35.57l-2.58 3.788h-5.574zm2.904 4.252h4.936l-2.468 3.615z" clip-rule="evenodd"/><path fill="#E3E2E1" d="M12.031 31.896h5.118l-2.556-3.733zm-.318.464-2.599 3.787h10.957l-2.598-3.788zm-2.918 4.252-2.6 3.788H22.99l-2.599-3.789zm-2.518 4.254 2.598 3.788H20.31l2.604-3.788zm2.918 4.252 2.599 3.784h5.597l2.599-3.79zm2.915 4.252 2.479 3.614 2.481-3.614z"/><path fill="#EC6B22" d="m16.048 2.685-8.54 12.698h12.76l8.539-12.698z"/><path fill="#D96129" fill-rule="evenodd" d="M7.508 15.303 16.048 28h12.759l-8.54-12.697z" clip-rule="evenodd"/><path fill="#888784" fill-rule="evenodd" d="m37.325 40.53-8.54-12.697h-12.84l8.54 12.698z" clip-rule="evenodd"/><path fill="#4C4B4A" d="m24.485 40.451-8.54 12.697h12.843l8.539-12.697z"/><mask id="a" width="147" height="60" x="0" y="0" maskUnits="userSpaceOnUse"><path fill="#fff" d="M0 0h146.667v60H0z"/></mask><g mask="url(#a)"><path fill="#D96129" d="M126.245 52.056q.47-.398.471-1.112 0-.727-.5-1.155-.499-.428-1.326-.428h-2.14v3.095h2.196q.829 0 1.299-.4m-3.495-4.021h2.012q.798 0 1.248-.364.448-.364.448-1.048 0-.67-.448-1.048-.45-.377-1.248-.378h-2.012zm5.035 1.497q.556.7.556 1.583 0 .756-.392 1.362t-1.133.956q-.743.348-1.727.348h-3.964v-9.91h3.779q1.014 0 1.74.342.727.342 1.098.919.37.578.371 1.292 0 .855-.456 1.425-.457.572-1.227.842.798.144 1.355.84"/><path fill="#252222" d="M131.738 53.781h-1.625v-7.857h1.625zm-1.54-9.198q-.3-.3-.3-.742 0-.441.3-.741t.742-.3q.428 0 .728.3.298.3.298.741 0 .443-.298.742-.3.3-.728.3-.442 0-.742-.3m8.258 7.613q.55-.3.89-.9.344-.599.344-1.454t-.329-1.448a2.2 2.2 0 0 0-.869-.89q-.542-.3-1.17-.3t-1.162.3-.848.89q-.315.593-.315 1.448 0 1.27.649 1.96.65.694 1.634.694.626-.001 1.176-.3m-3.187 1.205a3.64 3.64 0 0 1-1.412-1.427q-.514-.92-.513-2.132 0-1.197.526-2.125a3.64 3.64 0 0 1 1.442-1.425 4.2 4.2 0 0 1 2.038-.5q1.126 0 2.04.5a3.65 3.65 0 0 1 1.44 1.425q.528.928.528 2.125 0 1.199-.542 2.124a3.76 3.76 0 0 1-1.476 1.435 4.3 4.3 0 0 1-2.06.505 4.04 4.04 0 0 1-2.011-.505m-79.93.209h-1.626v-7.858h1.626zm-1.54-9.2a1 1 0 0 1-.299-.74q0-.443.299-.743.3-.299.741-.299.428 0 .728.299.3.3.3.742t-.3.742a1 1 0 0 1-.728.298q-.442.001-.741-.298"/></g><path fill="#D96129" d="M46.102 52.297h5.588v1.312h-7.213v-9.912h1.625z"/><mask id="b" width="147" height="60" x="0" y="0" maskUnits="userSpaceOnUse"><path fill="#fff" d="M0 0h146.667v60H0z"/></mask><g mask="url(#b)"><path fill="#252222" d="M63.557 48.281a2.36 2.36 0 0 0-.877-.913 2.3 2.3 0 0 0-1.17-.314 2.34 2.34 0 0 0-1.17.307 2.3 2.3 0 0 0-.876.899q-.335.592-.335 1.405 0 .811.335 1.425t.885.934q.548.322 1.161.321a2.29 2.29 0 0 0 2.047-1.233q.335-.607.335-1.419t-.335-1.412m-.77-2.274q.706.364 1.105.905v-1.14h1.64v7.985q0 1.084-.456 1.934a3.3 3.3 0 0 1-1.32 1.333q-.863.484-2.06.484-1.597 0-2.652-.748a2.77 2.77 0 0 1-1.2-2.032h1.613q.186.613.792.99.604.377 1.447.378.984 0 1.59-.599.606-.597.606-1.74v-1.312q-.413.556-1.12.935-.705.376-1.603.377-1.027 0-1.876-.52a3.67 3.67 0 0 1-1.34-1.456q-.492-.933-.492-2.116t.492-2.097a3.6 3.6 0 0 1 1.34-1.419 3.6 3.6 0 0 1 1.876-.507q.912 0 1.619.364m31.592.026q.706.384 1.112 1.14t.407 1.826v4.635h-1.612V49.24q0-1.056-.528-1.62-.528-.563-1.44-.563t-1.447.563-.536 1.62v4.392h-1.625V43.08h1.625v3.608q.414-.5 1.05-.771a3.5 3.5 0 0 1 1.39-.27q.897 0 1.604.385m9.096 2.963q-.014-.898-.641-1.44-.628-.542-1.555-.542-.841 0-1.441.534-.598.536-.713 1.448zm1.64 1.312h-6.004q.071.94.699 1.51.628.573 1.54.573 1.311 0 1.855-1.099h1.753a3.54 3.54 0 0 1-1.291 1.776q-.933.69-2.317.69-1.127 0-2.017-.506a3.6 3.6 0 0 1-1.399-1.425q-.505-.92-.505-2.132t.492-2.132a3.45 3.45 0 0 1 1.384-1.419q.89-.5 2.045-.5 1.112 0 1.983.486.869.484 1.354 1.36.485.878.486 2.02 0 .441-.058.798m12.823-4.275q.736.384 1.156 1.14t.421 1.826v4.635h-1.612V49.24q0-1.056-.528-1.62-.528-.563-1.441-.563-.91 0-1.447.563-.534.564-.534 1.62v4.392h-1.611V49.24q0-1.056-.529-1.62-.527-.563-1.44-.563-.914 0-1.447.563-.535.564-.535 1.62v4.392h-1.626v-7.858h1.626v.898a2.7 2.7 0 0 1 1.012-.756 3.2 3.2 0 0 1 1.312-.27q.94 0 1.683.398a2.73 2.73 0 0 1 1.141 1.156 2.64 2.64 0 0 1 1.112-1.133 3.3 3.3 0 0 1 1.626-.422q.927.001 1.661.386"/><path fill="#D96129" d="M77.826 46.045a4.8 4.8 0 0 1 1.84-1.804 5.14 5.14 0 0 1 2.545-.649q1.584 0 2.816.779 1.235.776 1.79 2.202h-1.954q-.385-.784-1.07-1.169-.683-.385-1.582-.385-.984 0-1.755.441a3.1 3.1 0 0 0-1.205 1.27q-.435.827-.435 1.926t.435 1.924q.435.828 1.205 1.277.772.45 1.755.45.899 0 1.583-.386.684-.384 1.07-1.169h1.952q-.554 1.426-1.789 2.196-1.232.77-2.816.77a5.1 5.1 0 0 1-2.553-.649 4.84 4.84 0 0 1-1.832-1.804q-.678-1.155-.678-2.609 0-1.456.678-2.61"/><path fill="#252223" d="M72.124 52.032q.56-.3.909-.894.35-.596.35-1.449 0-.85-.334-1.44a2.24 2.24 0 0 0-.89-.887 2.5 2.5 0 0 0-1.191-.298q-.641 0-1.187.298a2.15 2.15 0 0 0-.867.887q-.32.59-.32 1.44 0 1.264.663 1.952.661.688 1.667.688.639 0 1.2-.297M68.87 53.23a3.66 3.66 0 0 1-1.44-1.42q-.524-.913-.524-2.121 0-1.192.538-2.113a3.7 3.7 0 0 1 1.47-1.419q.932-.498 2.082-.497 1.15 0 2.08.497.933.495 1.472 1.419.538.92.538 2.113t-.553 2.115a3.8 3.8 0 0 1-1.507 1.426 4.4 4.4 0 0 1-2.102.504q-1.136 0-2.054-.504"/><path fill="#252223" d="M73.86 46.787v-1.252h1.65v8.012h-1.601z"/><path fill="#D96129" d="M134.05 32.001q1.642-1.41 1.643-3.936 0-2.57-1.744-4.086-1.742-1.515-4.628-1.514h-7.467v10.951h7.666q2.887.001 4.53-1.415m-12.196-14.228h7.019q2.787 0 4.356-1.288c1.045-.86 1.568-2.094 1.568-3.71q0-2.37-1.568-3.707t-4.356-1.337h-7.019zm17.571 5.298q1.942 2.474 1.941 5.6 0 2.676-1.368 4.82-1.37 2.147-3.957 3.382-2.589 1.236-6.024 1.236H116.18V3.035h13.19q3.536 0 6.072 1.214 2.54 1.209 3.834 3.252 1.293 2.045 1.294 4.57 0 3.027-1.593 5.044-1.593 2.022-4.281 2.978 2.79.507 4.729 2.978M50.089 33.467H69.59v4.642H44.414V3.036h5.675zm26.755-22.125q2.232-4.086 6.07-6.382 3.833-2.298 8.398-2.298 5.225 0 9.293 2.752 4.072 2.75 5.904 7.797h-6.446q-1.27-2.778-3.528-4.14t-5.223-1.363q-3.245 0-5.787 1.564-2.539 1.568-3.977 4.49-1.434 2.93-1.435 6.817 0 3.885 1.435 6.81 1.438 2.928 3.977 4.517 2.542 1.591 5.787 1.592 2.965 0 5.223-1.363t3.528-4.14h6.446q-1.832 5.048-5.904 7.772-4.068 2.725-9.293 2.725-4.612 0-8.421-2.294-3.815-2.299-6.047-6.387-2.235-4.085-2.235-9.232 0-5.152 2.235-9.237"/></g></svg>