<svg xmlns="http://www.w3.org/2000/svg" xml:space="preserve" width="1120.511" height="273.628" viewBox="0 0 1120.511 273.628"><path d="M64.809 409.703H40.906v23.903h23.903z" style="fill:#003894;fill-opacity:1;fill-rule:nonzero;stroke:none" transform="matrix(11.44745 0 0 -11.44745 -468.27 4963.683)"/><path d="M0 0a8.227 8.227 0 0 0-8.227 8.227A8.227 8.227 0 0 0 0 16.454a8.227 8.227 0 0 0 8.227-8.227A8.227 8.227 0 0 0 0 0m0 18.857c-5.871 0-10.63-4.759-10.63-10.63S-5.871-2.403 0-2.403s10.63 4.759 10.63 10.63S5.871 18.857 0 18.857" style="fill:#fff;fill-opacity:1;fill-rule:nonzero;stroke:none" transform="matrix(11.44745 0 0 -11.44745 136.818 230.998)"/><path d="m0 0 .127-.291.306.133-.126.287A.3.3 0 0 1 .235.24Q.165.302.058.255q-.09-.038-.09-.128A.3.3 0 0 1 0 0m-.271.026Q-.32.062-.393.03q-.08-.035-.078-.109a.5.5 0 0 1 .043-.148l.112-.257.253.11-.125.287a.26.26 0 0 1-.083.113m.773.199.231-.53-1.146-.499-.248.568q-.09.217-.01.358a.3.3 0 0 0 .151.13q.105.046.193.02A.3.3 0 0 0-.223.211a.3.3 0 0 0 .042.18q.05.076.148.118A.36.36 0 0 0 .414.385a1 1 0 0 0 .088-.16" style="fill:#003894;fill-opacity:1;fill-rule:nonzero;stroke:none" transform="matrix(11.44745 0 0 -11.44745 38.837 178.592)"/><path d="m0 0 .169-.596.31.088-.193.679.216.062.264-.93-1.203-.342-.255.9.212.06.185-.649.255.073-.169.596z" style="fill:#003894;fill-opacity:1;fill-rule:nonzero;stroke:none" transform="matrix(11.44745 0 0 -11.44745 33.035 161.1)"/><path d="m0 0 .219.034.058-.377 1.017.157.041-.265L.318-.608l.059-.379-.219-.034Z" style="fill:#003894;fill-opacity:1;fill-rule:nonzero;stroke:none" transform="matrix(11.44745 0 0 -11.44745 22.705 148.359)"/><path d="m0 0 .221.008.013-.382 1.029.036.009-.268L.244-.642l.013-.383-.221-.008Z" style="fill:#003894;fill-opacity:1;fill-rule:nonzero;stroke:none" transform="matrix(11.44745 0 0 -11.44745 22.138 134.828)"/><path d="m0 0-.056-.617.321-.029.063.703.224-.02-.087-.962-1.245.112.084.931.22-.02-.06-.672.264-.024.056.617z" style="fill:#003894;fill-opacity:1;fill-rule:nonzero;stroke:none" transform="matrix(11.44745 0 0 -11.44745 31.206 122.43)"/><path d="M0 0q-.016.085-.12.109-.11.025-.166-.041a.3.3 0 0 1-.05-.122l-.069-.302.328-.075.067.295A.3.3 0 0 1 0 0m.186-.208L.125-.477l.478-.108-.058-.254-1.219.277.139.61a.6.6 0 0 0 .077.194q.045.064.112.1a.342.342 0 0 0 .251.035.4.4 0 0 0 .16-.083.26.26 0 0 0 .086-.175.23.23 0 0 0 .124.1.4.4 0 0 0 .199-.007L.555.193A.6.6 0 0 1 .67.174q.05 0 .081.032l.03-.007-.065-.286Q.672-.09.647-.089a.6.6 0 0 0-.108.013l-.113.024Q.309-.028.26-.061.212-.094.186-.208" style="fill:#003894;fill-opacity:1;fill-rule:nonzero;stroke:none" transform="matrix(11.44745 0 0 -11.44745 31.584 110.582)"/><path d="m0 0 .104.245.944-.402.248.581.207-.088-.352-.826Z" style="fill:#003894;fill-opacity:1;fill-rule:nonzero;stroke:none" transform="matrix(11.44745 0 0 -11.44745 29.7 95.987)"/><path d="m0 0 .124.234 1.105-.587-.125-.234Z" style="fill:#003894;fill-opacity:1;fill-rule:nonzero;stroke:none" transform="matrix(11.44745 0 0 -11.44745 35.023 84.219)"/><path d="m0 0-.347-.537.241-.156.304.47.183-.118-.305-.47.441-.285-.144-.222-1.049.678.491.759z" style="fill:#003894;fill-opacity:1;fill-rule:nonzero;stroke:none" transform="matrix(11.44745 0 0 -11.44745 45.927 71.02)"/><path d="m0 0-.398-.475.246-.206.454.541.172-.145-.621-.74-.958.804.601.716.17-.142-.434-.517.203-.171.399.475z" style="fill:#003894;fill-opacity:1;fill-rule:nonzero;stroke:none" transform="matrix(11.44745 0 0 -11.44745 58.443 64.46)"/><path d="m0 0 .142-.17-.293-.245.66-.789-.206-.172-.66.789-.294-.246-.142.17z" style="fill:#003894;fill-opacity:1;fill-rule:nonzero;stroke:none" transform="matrix(11.44745 0 0 -11.44745 67.949 44.988)"/><path d="m0 0-.3.471-.421-.268.301-.471-.223-.142-.672 1.054.222.142.256-.402.421.268-.257.402.223.143L.223.142Z" style="fill:#003894;fill-opacity:1;fill-rule:nonzero;stroke:none" transform="matrix(11.44745 0 0 -11.44745 85.452 50.586)"/><path d="M0 0q.057.066.014.161-.047.104-.134.107A.3.3 0 0 1-.247.234L-.529.105l.14-.305.275.125Q-.033-.037 0 0m-.052-.274-.251-.115.205-.446-.237-.108L-.856.194l.569.26a.6.6 0 0 0 .201.057.3.3 0 0 0 .148-.028.4.4 0 0 0 .103-.069.367.367 0 0 0 .108-.288.25.25 0 0 0-.087-.173.24.24 0 0 0 .155-.038.4.4 0 0 0 .115-.163l.035-.076a1 1 0 0 1 .055-.103.1.1 0 0 1 .073-.044L.632-.5.366-.622l-.044.054a1 1 0 0 0-.055.093l-.05.105Q.166-.262.11-.244q-.055.02-.162-.03" style="fill:#003894;fill-opacity:1;fill-rule:nonzero;stroke:none" transform="matrix(11.44745 0 0 -11.44745 93.92 37.055)"/><path d="M0 0a.5.5 0 0 1-.003.339.5.5 0 0 1-.18.286.3.3 0 0 1-.274.039.3.3 0 0 1-.21-.18.5.5 0 0 1 .001-.34q.059-.202.182-.286A.31.31 0 0 1-.21-.181Q-.057-.136 0 0m-.147-.393Q-.41-.47-.589-.371-.826-.253-.92.07q-.097.33.041.55.098.18.36.257t.442-.023q.234-.111.33-.44.095-.324-.04-.55-.097-.18-.36-.257" style="fill:#003894;fill-opacity:1;fill-rule:nonzero;stroke:none" transform="matrix(11.44745 0 0 -11.44745 110.814 36.231)"/><path d="m0 0-.107.761.268.038.107-.761a.64.64 0 0 0-.019-.317Q.161-.497-.168-.543q-.327-.045-.473.139a.63.63 0 0 0-.106.299l-.107.761.268.038.107-.761a.4.4 0 0 1 .057-.182q.062-.098.224-.075.16.022.193.133A.4.4 0 0 1 0 0" style="fill:#003894;fill-opacity:1;fill-rule:nonzero;stroke:none" transform="matrix(11.44745 0 0 -11.44745 125.171 31.458)"/><path d="M0 0a.5.5 0 0 0-.26-.062.54.54 0 0 0-.414.175Q-.842.287-.84.587a.68.68 0 0 0 .174.486.59.59 0 0 0 .452.181.6.6 0 0 0 .39-.124.45.45 0 0 0 .167-.302L.081.829a.25.25 0 0 1-.147.18.4.4 0 0 1-.146.029.32.32 0 0 1-.254-.112q-.1-.114-.101-.343-.001-.231.105-.327A.36.36 0 0 1-.219.158a.32.32 0 0 1 .22.075q.087.075.107.198l-.295.002.002.209.531-.004-.004-.671-.177.001-.026.157A.6.6 0 0 0 0 0" style="fill:#003894;fill-opacity:1;fill-rule:nonzero;stroke:none" transform="matrix(11.44745 0 0 -11.44745 140.234 36.025)"/><path d="m0 0 .085.552-.493.075-.085-.551-.26.04.189 1.236.261-.04L-.375.84.117.765l.073.471.261-.04L.262-.04Z" style="fill:#003894;fill-opacity:1;fill-rule:nonzero;stroke:none" transform="matrix(11.44745 0 0 -11.44745 155.025 37.948)"/><path d="M0 0q.059.011.086.086.028.082-.027.132a.5.5 0 0 1-.137.069l-.264.094-.092-.259.295-.106A.3.3 0 0 1 0 0m-.205-.18-.299.107-.112-.314.295-.106A.3.3 0 0 1-.19-.516q.093.01.132.119.033.091-.032.154a.4.4 0 0 1-.115.063m-.179-.521-.544.194.419 1.178.584-.208Q.295.382.343.226A.3.3 0 0 0 .335.027a.28.28 0 0 0-.118-.154.3.3 0 0 0-.115-.035.28.28 0 0 0 .102-.153.366.366 0 0 0-.411-.431 1 1 0 0 0-.177.045" style="fill:#003894;fill-opacity:1;fill-rule:nonzero;stroke:none" transform="matrix(11.44745 0 0 -11.44745 176.058 34.514)"/><path d="m0 0-.551.284-.147-.286.627-.323-.103-.2-.859.443.574 1.111L.372.6.271.404l-.6.309-.122-.236L.1.193Z" style="fill:#003894;fill-opacity:1;fill-rule:nonzero;stroke:none" transform="matrix(11.44745 0 0 -11.44745 190.442 44.302)"/><path d="m0 0-.125-.183-.315.216-.581-.849-.222.152.582.849-.316.216.125.183z" style="fill:#003894;fill-opacity:1;fill-rule:nonzero;stroke:none" transform="matrix(11.44745 0 0 -11.44745 206.803 45.492)"/><path d="m0 0-.146-.167-.287.252-.678-.774-.202.176.678.775-.288.252.146.167z" style="fill:#003894;fill-opacity:1;fill-rule:nonzero;stroke:none" transform="matrix(11.44745 0 0 -11.44745 217.053 54.341)"/><path d="m0 0-.412.462-.24-.214.47-.527-.168-.149-.644.721.934.832.622-.698L.397.28l-.449.504L-.25.607.162.144Z" style="fill:#003894;fill-opacity:1;fill-rule:nonzero;stroke:none" transform="matrix(11.44745 0 0 -11.44745 219.878 69.417)"/><path d="M0 0q.074-.046.161.013.095.063.084.149a.3.3 0 0 1-.055.12L.017.539-.262.351-.092.1A.3.3 0 0 1 0 0m-.279.007-.154.228-.406-.275-.146.216 1.036.7.35-.518A.6.6 0 0 0 .49.169.3.3 0 0 0 .486.018.354.354 0 0 0 .17-.249a.26.26 0 0 0-.186.058.23.23 0 0 0-.012-.159.4.4 0 0 0-.141-.14l-.07-.047a1 1 0 0 1-.092-.071.1.1 0 0 1-.032-.08l-.026-.018-.164.243q.027.033.045.052a1 1 0 0 0 .083.07l.096.066q.098.069.107.127t-.057.155" style="fill:#003894;fill-opacity:1;fill-rule:nonzero;stroke:none" transform="matrix(11.44745 0 0 -11.44745 228.267 77.797)"/><path d="m0 0-.095.23L1.06.708l.149-.359-.82-.59.996.164.147-.355L.377-.91l-.095.23.781.323.095.038.094.038L.19-.459.091-.22l.878.623-.093-.04-.094-.04Z" style="fill:#003894;fill-opacity:1;fill-rule:nonzero;stroke:none" transform="matrix(11.44745 0 0 -11.44745 228.264 94.659)"/><path d="m0 0-.152.601-.312-.079.174-.685-.218-.055-.237.937 1.212.307.229-.907L.482.065.316.719.059.654.211.053Z" style="fill:#003894;fill-opacity:1;fill-rule:nonzero;stroke:none" transform="matrix(11.44745 0 0 -11.44745 241.684 115.505)"/><path d="M0 0q.094.073.074.253L.046.497-.765.405l.028-.244q.02-.187.211-.241a.6.6 0 0 1 .241-.013A.6.6 0 0 1 0 0m-.948.092-.062.546L.232.779.295.233A.7.7 0 0 0 .29.034.43.43 0 0 0 .157-.2a.55.55 0 0 0-.191-.113 1 1 0 0 0-.202-.048.83.83 0 0 0-.432.054.46.46 0 0 0-.28.399" style="fill:#003894;fill-opacity:1;fill-rule:nonzero;stroke:none" transform="matrix(11.44745 0 0 -11.44745 247.734 127.044)"/><path d="m0 0 .004-.265-1.25-.02-.004.265z" style="fill:#003894;fill-opacity:1;fill-rule:nonzero;stroke:none" transform="matrix(11.44745 0 0 -11.44745 251.739 133.374)"/><path d="M0 0a.53.53 0 0 0-.098.374.56.56 0 0 0 .207.418Q.295.935.597.91q.326-.025.489-.219a.54.54 0 0 0 .122-.407Q1.182-.037.963-.169a.45.45 0 0 0-.239-.069l.021.266q.092.018.141.055.087.066.098.208a.27.27 0 0 1-.096.238.54.54 0 0 1-.317.11Q.361.655.25.576A.28.28 0 0 1 .127.36.26.26 0 0 1 .199.139.4.4 0 0 1 .339.06L.317-.203A.56.56 0 0 0 0 0" style="fill:#003894;fill-opacity:1;fill-rule:nonzero;stroke:none" transform="matrix(11.44745 0 0 -11.44745 237.84 149.355)"/><path d="m0 0-.047-.261-1.231.22.047.261z" style="fill:#003894;fill-opacity:1;fill-rule:nonzero;stroke:none" transform="matrix(11.44745 0 0 -11.44745 250.26 155.365)"/><path d="m0 0 .07.257.993.272L.205.76.27 1 1.477.674l-.073-.27L.429.141l.843-.227-.065-.24Z" style="fill:#003894;fill-opacity:1;fill-rule:nonzero;stroke:none" transform="matrix(11.44745 0 0 -11.44745 232.177 169.582)"/><path d="m0 0 .244.57-.296.126L-.33.047l-.206.089.38.888L.994.532l-.368-.86-.204.087.266.621-.244.104L.2-.085Z" style="fill:#003894;fill-opacity:1;fill-rule:nonzero;stroke:none" transform="matrix(11.44745 0 0 -11.44745 233.09 183.457)"/><path d="m0 0-.25.25a.22.22 0 0 1 .048.171.3.3 0 0 1-.094.171.28.28 0 0 1-.261.084.5.5 0 0 1-.247-.145A.5.5 0 0 1-.95.283.27.27 0 0 1-.866.022q.179-.179.371-.016l.25-.251a.54.54 0 0 0-.419-.156.64.64 0 0 0-.413.202.65.65 0 0 0-.203.494.72.72 0 0 0 .225.486.72.72 0 0 0 .49.224.63.63 0 0 0 .49-.203.7.7 0 0 0 .2-.389A.48.48 0 0 0 0 0" style="fill:#003894;fill-opacity:1;fill-rule:nonzero;stroke:none" transform="matrix(11.44745 0 0 -11.44745 68.747 216.3)"/><path d="m0 0 .814 1.088.259-.194L.77.488.773.486a.27.27 0 0 0 .172.021.4.4 0 0 0 .167-.07q.285-.213.055-.519L.788-.59l-.259.194.286.383a.7.7 0 0 1 .099.158Q.941.232.848.301a.15.15 0 0 1-.145.028.23.23 0 0 1-.121-.092L.259-.194Z" style="fill:#003894;fill-opacity:1;fill-rule:nonzero;stroke:none" transform="matrix(11.44745 0 0 -11.44745 64.117 225.309)"/><path d="M0 0a.36.36 0 0 1-.054-.181q0-.103.09-.154a.17.17 0 0 1 .18.001.4.4 0 0 1 .127.14.4.4 0 0 1 .054.181.17.17 0 0 1-.091.157A.17.17 0 0 1 .127.14.37.37 0 0 1 0 0m-.282.159a.52.52 0 0 0 .311.254.5.5 0 0 0 .399-.054.5.5 0 0 0 .196-.712.505.505 0 0 0-.71-.197.5.5 0 0 0-.252.313.51.51 0 0 0 .056.396" style="fill:#003894;fill-opacity:1;fill-rule:nonzero;stroke:none" transform="matrix(11.44745 0 0 -11.44745 81.541 230.563)"/><path d="m0 0 .374.914.29-.119L.613.67.617.669a.3.3 0 0 0 .166.06.4.4 0 0 0 .183-.026q.329-.135.184-.489L.911-.372l-.3.122.181.442q.056.136.057.179.003.09-.104.134A.15.15 0 0 1 .598.496a.24.24 0 0 1-.095-.12L.299-.122Z" style="fill:#003894;fill-opacity:1;fill-rule:nonzero;stroke:none" transform="matrix(11.44745 0 0 -11.44745 88.501 240.751)"/><path d="M0 0q.027.103.004.176a.17.17 0 0 1-.127.115.17.17 0 0 1-.163-.036.3.3 0 0 1-.083-.154.26.26 0 0 1 .001-.165.16.16 0 0 1 .119-.107.18.18 0 0 1 .163.027Q-.026-.097 0 0m.418.372L.192-.466q-.121-.45-.598-.321a.7.7 0 0 0-.287.138.33.33 0 0 0-.099.293L-.48-.44q-.009-.109.14-.148.1-.027.156.029a.4.4 0 0 1 .067.149l.025.09-.004.001A.29.29 0 0 0-.387-.39q-.208.056-.281.221a.54.54 0 0 0-.01.366.5.5 0 0 0 .197.299.4.4 0 0 0 .348.054.28.28 0 0 0 .215-.215L.086.334l.032.119Z" style="fill:#003894;fill-opacity:1;fill-rule:nonzero;stroke:none" transform="matrix(11.44745 0 0 -11.44745 110.875 242.285)"/><path d="m0 0 .084 1.356.354-.022-.033-.52.479.492.439-.027L.788.777l.513-.858-.439.027-.329.593L.379.396.353-.022Z" style="fill:#003894;fill-opacity:1;fill-rule:nonzero;stroke:none" transform="matrix(11.44745 0 0 -11.44745 123.331 250.802)"/><path d="m0 0 .078-.985-.313-.024-.01.134h-.004a.364.364 0 0 0-.287-.187q-.201-.016-.297.091-.084.094-.101.301l-.047.592.323.026.045-.571q.014-.177.174-.164a.16.16 0 0 1 .11.054q.058.063.048.18l-.041.527z" style="fill:#003894;fill-opacity:1;fill-rule:nonzero;stroke:none" transform="matrix(11.44745 0 0 -11.44745 150.706 239.366)"/><path d="m0 0-.205.966.308.065.028-.132L.134.9a.3.3 0 0 0 .104.143.4.4 0 0 0 .166.081q.348.074.427-.3l.131-.62L.646.137.547.604a.7.7 0 0 1-.053.179Q.446.861.332.837A.16.16 0 0 1 .216.746.24.24 0 0 1 .205.594L.316.067Z" style="fill:#003894;fill-opacity:1;fill-rule:nonzero;stroke:none" transform="matrix(11.44745 0 0 -11.44745 155.02 250.138)"/><path d="m0 0 .301-.687.153.068q.186.081.228.197.045.117-.038.303Q.497.219.153.067Zm.099-1.108L-.447.137l.536.234q.285.126.519.033T.969.022q.133-.303.043-.536T.634-.873Z" style="fill:#003894;fill-opacity:1;fill-rule:nonzero;stroke:none" transform="matrix(11.44745 0 0 -11.44745 175.318 231.902)"/><path d="M0 0q.059-.096.174-.025.097.06.099.142T.19.327a.4.4 0 0 0-.09-.1.6.6 0 0 1-.097-.105Q-.036.059 0 0m-.193.351L-.451.192q-.16.292.225.529a.66.66 0 0 0 .303.114Q.24.842.34.68L.566.312A.6.6 0 0 1 .731.116l-.278-.17a.4.4 0 0 0-.065.069.43.43 0 0 0-.213-.274.38.38 0 0 0-.242-.064.28.28 0 0 0-.202.142q-.076.126-.031.24a.5.5 0 0 0 .149.19l.193.163q.064.06.025.123Q.04.578-.02.575a.2.2 0 0 1-.1-.034Q-.238.468-.193.351" style="fill:#003894;fill-opacity:1;fill-rule:nonzero;stroke:none" transform="matrix(11.44745 0 0 -11.44745 193.192 232.875)"/><path d="m0 0-.617.771.245.196.085-.105.002.002a.3.3 0 0 0 .029.175q.04.09.111.147.279.223.517-.077L.768.615.516.413.217.786a.7.7 0 0 1-.128.136Q.011.969-.079.897A.16.16 0 0 1-.143.763a.24.24 0 0 1 .059-.14L.253.202Z" style="fill:#003894;fill-opacity:1;fill-rule:nonzero;stroke:none" transform="matrix(11.44745 0 0 -11.44745 203.937 229.865)"/><path d="M0 0a.3.3 0 0 1-.152.089.17.17 0 0 1-.162-.055.16.16 0 0 1-.047-.161.3.3 0 0 1 .094-.147.27.27 0 0 1 .145-.079.16.16 0 0 1 .151.052.18.18 0 0 1 .055.156A.26.26 0 0 1 0 0m-.123.546L.5-.058Q.835-.382.493-.736a.7.7 0 0 0-.261-.185.33.33 0 0 0-.304.056l.225.232q.09-.06.197.051.073.075.05.15a.4.4 0 0 1-.098.131l-.067.065-.002-.002a.3.3 0 0 0-.079-.29q-.15-.155-.33-.138a.54.54 0 0 0-.325.168.52.52 0 0 0-.166.317.4.4 0 0 0 .121.331.28.28 0 0 0 .293.084l.003.003-.089.086z" style="fill:#003894;fill-opacity:1;fill-rule:nonzero;stroke:none" transform="matrix(11.44745 0 0 -11.44745 216.143 211.045)"/><path d="M0 0c0 .689-.645 1.337-1.774 1.792a3 3 0 0 1-.375.134V.812c.043-.017.14-.056.222-.097.419-.213.641-.461.641-.715 0-.654-1.457-1.215-3.388-1.306h-.004a2 2 0 0 0-.191-.003l-.007.006v7.055a1.83 1.83 0 0 0 1.304-1.751V-.836c.667.101 1.017.265 1.073.298l.009.005v4.534a2.92 2.92 0 0 1-2.139 2.803h2.141v1.049h-5.824V6.804h2.141A2.92 2.92 0 0 1-8.31 4.001V-.533l.009-.005c.056-.033.406-.197 1.073-.298v4.837c0 .826.551 1.525 1.304 1.751v-7.055l-.007-.006a2 2 0 0 0-.19.003h-.005C-8.057-1.215-9.513-.654-9.513 0c0 .254.221.502.641.715.082.041.179.081.222.097v1.114a3 3 0 0 1-.376-.134C-10.155 1.337-10.8.689-10.8 0c0-1.218 1.993-2.239 4.637-2.375h.007a1.478 1.478 0 1 1 1.513 0h.007C-1.993-2.239 0-1.218 0 0" style="fill:#fff;fill-opacity:1;fill-rule:nonzero;stroke:none" transform="matrix(11.44745 0 0 -11.44745 198.633 156.75)"/><path d="M0 0c-4.006 0-4.371 1.212-4.371 2.092l-.001 3.848h-3.317l.029-4.558c0-2.76 4.81-2.76 7.683-2.76 5.184 0 9.415 1.062 9.415 1.062L9.38 1.637S4.974 0 0 0" style="fill:#003894;fill-opacity:1;fill-rule:nonzero;stroke:none" transform="matrix(11.44745 0 0 -11.44745 720.422 222.287)"/><path d="M0 0a1.043 1.043 0 0 1-1.035 1.123h-15.953V-.255h13.374s.009-3.568-.911-6.759h-14.498v-1.379H1.891v1.379h-4.129C-1.793-6.349-.263-3.815 0 0" style="fill:#003894;fill-opacity:1;fill-rule:nonzero;stroke:none" transform="matrix(11.44745 0 0 -11.44745 827.319 48.434)"/><path d="M0 0c-2.979 0-5.379.982-5.379 2.662S-2.979 5.324 0 5.324s5.379-.982 5.379-2.662S2.978 0 0 0m0 6.604c-5.013 0-8.847-1.547-8.847-3.942S-5.013-1.28 0-1.28 8.847.267 8.847 2.662 5.013 6.604 0 6.604" style="fill:#003894;fill-opacity:1;fill-rule:nonzero;stroke:none" transform="matrix(11.44745 0 0 -11.44745 994.612 223.408)"/><path d="M0 0h-3.299v-9.643H0v5.074h2.281v1.379H0Z" style="fill:#003894;fill-opacity:1;fill-rule:nonzero;stroke:none" transform="matrix(11.44745 0 0 -11.44745 1094.399 35.579)"/><path d="M0 0v1.69C-1.391 1.282-4.203.618-7.782.618c-3.412 0-4.08.659-4.08 1.956v4.033H-.955v1.378h-13.169a1.037 1.037 0 0 1-1.038-1.037V2.407c0-2.391 1.549-3.167 7.346-3.167C-4.777-.76-1.558-.272 0 0" style="fill:#003894;fill-opacity:1;fill-rule:nonzero;stroke:none" transform="matrix(11.44745 0 0 -11.44745 1045.702 126.987)"/><path d="M0 0c-3.229 0-5.857.858-5.857 2.368S-3.229 4.736 0 4.736s5.857-.858 5.857-2.368S3.229 0 0 0m0 6.028c-5.359 0-9.334-1.437-9.334-3.66S-5.359-1.291 0-1.291 9.334.145 9.334 2.368 5.359 6.028 0 6.028" style="fill:#003894;fill-opacity:1;fill-rule:nonzero;stroke:none" transform="matrix(11.44745 0 0 -11.44745 466.457 223.282)"/><path d="M0 0h-3.299v-2.56h-9.219v-1.378H9.219v1.378H0Z" style="fill:#003894;fill-opacity:1;fill-rule:nonzero;stroke:none" transform="matrix(11.44745 0 0 -11.44745 485.342 99.433)"/><path d="m0 0 4.255.002S1.432 2.268-4.063 4.261c.294.277.573.562.82.865h7.306v1.379h-18.694V5.126h7.551s-2.222-2.929-7.904-4.96v-.862S-8.967.488-5.057 3.432z" style="fill:#003894;fill-opacity:1;fill-rule:nonzero;stroke:none" transform="matrix(11.44745 0 0 -11.44745 526.951 110.033)"/></svg>