<?xml version="1.0" encoding="UTF-8"?>
<svg id="_레이어_1" data-name="레이어 1" xmlns="http://www.w3.org/2000/svg" viewBox="0 0 392.26 420.62">
  <defs>
    <style>
      .cls-1, .cls-2 {
        fill: #efcd21;
      }

      .cls-3, .cls-4, .cls-5, .cls-6 {
        fill: none;
      }

      .cls-3, .cls-5, .cls-6, .cls-2 {
        stroke-miterlimit: 4.87;
      }

      .cls-3, .cls-6, .cls-2 {
        stroke: #050102;
      }

      .cls-3, .cls-2 {
        stroke-width: .14px;
      }

      .cls-4 {
        stroke: #2c2c2b;
        stroke-width: .06px;
      }

      .cls-7 {
        fill: #eabf1b;
      }

      .cls-8 {
        fill: #2c2c2b;
        fill-rule: evenodd;
      }

      .cls-5 {
        stroke: #359bd0;
        stroke-width: .06px;
      }

      .cls-9 {
        fill: #f1edab;
      }

      .cls-6 {
        stroke-width: .56px;
      }

      .cls-10 {
        fill: #1b2751;
      }

      .cls-11 {
        fill: #fff;
      }

      .cls-12 {
        fill: #231916;
      }

      .cls-13 {
        fill: #241916;
      }

      .cls-14 {
        fill: #9d1f24;
      }

      .cls-15 {
        fill: #d9d9da;
      }

      .cls-16 {
        fill: #050102;
      }

      .cls-17 {
        fill: #e89420;
      }

      .cls-18 {
        fill: #d0d523;
      }

      .cls-19 {
        fill: #f4dfb0;
      }
    </style>
  </defs>
  <path class="cls-19" d="M22.6,194.07c-6.44,8.11-9.42,18.54-12.71,28.2-2.19,6.55-4.43,13.04-6.5,19.62-1.73,5.5-4.31,11.77-2.5,17.57,2.02,6.42,8.02,10.68,14.73,10.68,8.15,0,19.95-2.68,22.8-11.17,3.01-9.03,6.95-17.93,10.58-26.73.26-.61,3.78-6.9,3.2-7.47-9.82-10.24-20.26-20.05-29.6-30.69"/>
  <path class="cls-6" d="M22.6,194.07c-6.44,8.11-9.42,18.54-12.71,28.2-2.19,6.55-4.43,13.04-6.5,19.62-1.73,5.5-4.31,11.77-2.5,17.57,2.02,6.42,8.02,10.68,14.73,10.68,8.15,0,19.95-2.68,22.8-11.17,3.01-9.03,6.95-17.93,10.58-26.73.26-.61,3.78-6.9,3.2-7.47-9.82-10.24-20.26-20.05-29.6-30.69Z"/>
  <path class="cls-19" d="M369.64,194.07c6.45,8.11,9.43,18.54,12.69,28.2,2.19,6.55,4.45,13.04,6.52,19.62,1.73,5.5,4.33,11.77,2.5,17.57-2.04,6.42-8.04,10.68-14.71,10.68-8.15,0-19.97-2.68-22.83-11.17-3-9.03-6.93-17.93-10.58-26.73-.27-.61-3.77-6.9-3.19-7.47,9.8-10.24,20.26-20.05,29.6-30.69"/>
  <path class="cls-6" d="M369.64,194.07c6.45,8.11,9.43,18.54,12.69,28.2,2.19,6.55,4.45,13.04,6.52,19.62,1.73,5.5,4.33,11.77,2.5,17.57-2.04,6.42-8.04,10.68-14.71,10.68-8.15,0-19.97-2.68-22.83-11.17-3-9.03-6.93-17.93-10.58-26.73-.27-.61-3.77-6.9-3.19-7.47,9.8-10.24,20.26-20.05,29.6-30.69Z"/>
  <path class="cls-7" d="M374.7,206.93c0-10.85-9.14-19.66-20.44-19.66s-20.45,8.81-20.45,19.66c0,3.51,1.04,6.78,2.72,9.64.12,2.44.22,4.87.29,7.3.3,9.46.45,19.06-1.98,28.28-2.35,8.9-7.23,17.03-13.09,24.02-3.24,3.92-6.93,7.66-10.9,10.82-21.52,17.07-48.29,26.97-72.25,40.11-7.11,3.92-14.18,7.91-21.21,11.98-3.95,2.27-7.87,4.59-11.77,6.95-1.12.69-9.65,4.95-9.65,6.14,0-1.19-8.52-5.45-9.66-6.14-3.9-2.36-7.82-4.68-11.77-6.95-7.03-4.06-14.1-8.06-21.22-11.98-23.95-13.14-50.71-23.04-72.23-40.11-3.97-3.16-7.66-6.89-10.9-10.82-5.88-6.99-10.75-15.12-13.1-24.02-2.43-9.21-2.28-18.82-1.99-28.28.07-2.26.19-4.48.28-6.74,1.9-2.97,3.03-6.47,3.03-10.2,0-10.85-9.15-19.66-20.45-19.66s-20.43,8.81-20.43,19.66,9.13,19.61,20.43,19.61c2.59,0,5.07-.46,7.34-1.3-8.82,11.19-14.2,22.49-14.2,22.49-4.28,8.91-7.3,19.15-7.5,29.1-.29,14.57,4.42,28.44,12.41,40.49,3.16,4.74,6.54,9.42,10.43,13.59,10.17,10.83,23.81,18.13,36.25,25.99,7.33,4.64,14.91,8.86,22.6,12.88,26.27,13.68,55.21,23.61,79.2,41.35,2.85,2.1,5.63,4.31,8.32,6.62.43.38,3.17,2.28,3.17,2.87,0-.59,2.74-2.49,3.18-2.87.09-.08.21-.17.29-.25v.25c2.67-2.31,5.44-4.52,8.3-6.62,23.98-17.74,52.93-27.67,79.23-41.35,7.68-4.02,15.24-8.25,22.55-12.88,12.46-7.86,26.1-15.15,36.26-25.99,3.91-4.16,7.29-8.85,10.43-13.59,8-12.05,12.7-25.92,12.39-40.49-.2-9.95-3.2-20.19-7.48-29.1,0,0-5.35-11.3-14.19-22.49,2.34.87,4.82,1.31,7.32,1.3,11.29,0,20.44-8.78,20.44-19.61"/>
  <path class="cls-6" d="M374.7,206.93c0-10.85-9.14-19.66-20.44-19.66s-20.45,8.81-20.45,19.66c0,3.51,1.04,6.78,2.72,9.64.12,2.44.22,4.87.29,7.3.3,9.46.45,19.06-1.98,28.28-2.35,8.9-7.23,17.03-13.09,24.02-3.24,3.92-6.93,7.66-10.9,10.82-21.52,17.07-48.29,26.97-72.25,40.11-7.11,3.92-14.18,7.91-21.21,11.98-3.95,2.27-7.87,4.59-11.77,6.95-1.12.69-9.65,4.95-9.65,6.14,0-1.19-8.52-5.45-9.66-6.14-3.9-2.36-7.82-4.68-11.77-6.95-7.03-4.06-14.1-8.06-21.22-11.98-23.95-13.14-50.71-23.04-72.23-40.11-3.97-3.16-7.66-6.89-10.9-10.82-5.88-6.99-10.75-15.12-13.1-24.02-2.43-9.21-2.28-18.82-1.99-28.28.07-2.26.19-4.48.28-6.74,1.9-2.97,3.03-6.47,3.03-10.2,0-10.85-9.15-19.66-20.45-19.66s-20.43,8.81-20.43,19.66,9.13,19.61,20.43,19.61c2.59,0,5.07-.46,7.34-1.3-8.82,11.19-14.2,22.49-14.2,22.49-4.28,8.91-7.3,19.15-7.5,29.1-.29,14.57,4.42,28.44,12.41,40.49,3.16,4.74,6.54,9.42,10.43,13.59,10.17,10.83,23.81,18.13,36.25,25.99,7.33,4.64,14.91,8.86,22.6,12.88,26.27,13.68,55.21,23.61,79.2,41.35,2.85,2.1,5.63,4.31,8.32,6.62.43.38,3.17,2.28,3.17,2.87,0-.59,2.74-2.49,3.18-2.87.09-.08.21-.17.29-.25v.25c2.67-2.31,5.44-4.52,8.3-6.62,23.98-17.74,52.93-27.67,79.23-41.35,7.68-4.02,15.24-8.25,22.55-12.88,12.46-7.86,26.1-15.15,36.26-25.99,3.91-4.16,7.29-8.85,10.43-13.59,8-12.05,12.7-25.92,12.39-40.49-.2-9.95-3.2-20.19-7.48-29.1,0,0-5.35-11.3-14.19-22.49,2.34.87,4.82,1.31,7.32,1.3,11.29,0,20.44-8.78,20.44-19.61Z"/>
  <path class="cls-7" d="M48.93,217.49c0,5.01-4.3,9.05-9.56,9.05s-9.55-4.04-9.55-9.05,4.27-9.05,9.55-9.05,9.56,4.04,9.56,9.05"/>
  <path class="cls-6" d="M48.93,217.49c0,5.01-4.3,9.05-9.56,9.05s-9.55-4.04-9.55-9.05,4.27-9.05,9.55-9.05,9.56,4.04,9.56,9.05Z"/>
  <path class="cls-7" d="M343.34,217.49c0,5.01,4.27,9.05,9.54,9.05s9.55-4.04,9.55-9.05-4.28-9.05-9.55-9.05-9.54,4.04-9.54,9.05"/>
  <path class="cls-6" d="M343.34,217.49c0,5.01,4.27,9.05,9.54,9.05s9.55-4.04,9.55-9.05-4.28-9.05-9.55-9.05-9.54,4.04-9.54,9.05Z"/>
  <path class="cls-16" d="M353.64,41.84L316.09,0H76.46l-37.56,41.84c-.24.28,3.17,5.75,3.34,6.06,2.58,4.79,5.01,9.66,7.29,14.6,4.91,10.82,9.12,22,10.61,33.85,1.54,12.39,1,25.04-.07,37.45-.58,7.09-1.36,14.21-2.04,21.3-2.32,22.96-4.53,45.72-5.23,68.81-.29,9.59-.46,19.35,2.01,28.74,2.41,9.04,7.39,17.3,13.36,24.45,3.29,3.94,7.05,7.74,11.09,10.95,21.89,17.36,49.2,27.45,73.57,40.77,7.27,3.97,14.46,8.08,21.64,12.19,4.01,2.32,7.99,4.68,11.96,7.08,1.17.71,9.83,5.03,9.83,6.21,0-1.19,8.68-5.51,9.85-6.21,3.95-2.41,7.96-4.76,11.96-7.08,7.18-4.11,14.38-8.22,21.64-12.19,24.38-13.32,51.68-23.41,73.59-40.77,4.04-3.21,7.81-7.01,11.11-10.95,5.97-7.15,10.94-15.41,13.32-24.45,2.48-9.38,2.33-19.15,2.04-28.74-.69-23.09-2.94-45.85-5.21-68.81-.72-7.1-1.48-14.21-2.09-21.3-1.04-12.41-1.58-25.05-.03-37.45,1.47-11.85,5.7-23.04,10.63-33.85,2.22-4.94,4.68-9.83,7.25-14.6.19-.31,3.59-5.79,3.35-6.06"/>
  <path class="cls-17" d="M350.62,43.55L313.75,2.38H78.51l-36.89,41.18c-.24.26,3.11,5.67,3.28,5.98,2.53,4.7,4.9,9.48,7.13,14.33,4.83,10.64,8.99,21.68,10.45,33.32,1.51,12.19.95,24.65-.05,36.83-.6,6.99-1.36,13.98-2.04,20.97-2.26,22.58-4.43,44.98-5.13,67.66-.29,9.48-.42,19.09,2.01,28.3,2.32,8.9,7.2,17.01,13.06,24.06,3.26,3.85,6.94,7.6,10.94,10.74,21.5,17.11,48.28,27.01,72.21,40.13,7.12,3.92,14.2,7.92,21.23,11.98,3.94,2.29,7.86,4.59,11.75,6.98,1.15.69,9.67,4.94,9.67,6.12,0-1.19,8.52-5.43,9.66-6.12,3.89-2.4,7.81-4.69,11.76-6.98,7.03-4.07,14.11-8.07,21.23-11.98,23.95-13.12,50.73-23.02,72.23-40.13,3.97-3.15,7.66-6.9,10.9-10.74,5.86-7.05,10.75-15.16,13.08-24.06,2.44-9.21,2.29-18.83,1.99-28.3-.68-22.68-2.86-45.08-5.11-67.66-.7-6.99-1.43-13.98-2.02-20.97-1.04-12.18-1.58-24.65-.05-36.83,1.46-11.64,5.61-22.68,10.43-33.32,2.2-4.84,4.6-9.62,7.13-14.33.17-.31,3.51-5.72,3.28-5.98"/>
  <path class="cls-16" d="M313.43,6.16H78.82c-8.92,10.09-32.31,36.53-32.31,36.53-.2.26,3.04,5.55,3.2,5.87,2.47,4.61,4.77,9.31,6.91,14.08,4.69,10.44,8.67,21.26,10.12,32.72,1.46,11.97.94,24.17-.06,36.15-.58,6.86-1.29,13.72-1.97,20.58-2.2,22.15-4.3,44.17-4.94,66.46-.29,9.27-.44,18.7,1.9,27.74,2.28,8.74,7,16.74,12.69,23.63,3.12,3.8,6.71,7.47,10.55,10.56,20.82,16.8,46.75,26.51,69.95,39.42,6.89,3.84,13.74,7.76,20.53,11.76,3.82,2.24,7.62,4.48,11.38,6.83,1.11.68,9.35,4.85,9.35,6.03,0-1.17,8.26-5.35,9.38-6.03,3.74-2.35,7.54-4.58,11.34-6.83,6.81-3.99,13.66-7.92,20.55-11.76,23.2-12.9,49.12-22.61,69.97-39.42,3.82-3.09,7.42-6.76,10.55-10.56,5.67-6.89,10.4-14.89,12.67-23.63,2.35-9.04,2.19-18.47,1.92-27.74-.67-22.29-2.77-44.31-4.97-66.46-.68-6.86-1.39-13.72-1.97-20.58-1-11.98-1.52-24.19-.03-36.15,1.41-11.46,5.42-22.27,10.1-32.72,2.13-4.79,4.45-9.47,6.9-14.08.13-.33,3.4-5.61,3.18-5.87,0,0-23.37-26.44-32.29-36.53"/>
  <path class="cls-11" d="M311.22,7.91H81.03c-8.77,9.98-31.69,36.1-31.69,36.1-.2.25,2.96,5.47,3.13,5.8,2.39,4.57,4.68,9.2,6.77,13.92,4.6,10.34,8.53,21.02,9.92,32.33,1.44,11.81.93,23.92-.05,35.73-.56,6.79-1.27,13.58-1.93,20.34-2.13,21.92-4.21,43.64-4.86,65.69-.27,9.13-.42,18.46,1.88,27.42,2.23,8.62,6.87,16.5,12.44,23.33,3.07,3.76,6.59,7.4,10.36,10.45,20.45,16.59,45.87,26.2,68.65,38.95,6.74,3.77,13.45,7.67,20.14,11.61,3.75,2.2,7.46,4.45,11.16,6.74,1.09.67,9.19,4.8,9.19,5.96,0-1.16,8.09-5.28,9.17-5.96,3.7-2.29,7.42-4.53,11.17-6.74,6.68-3.94,13.38-7.84,20.16-11.61,22.76-12.75,48.19-22.36,68.63-38.95,3.78-3.05,7.27-6.68,10.36-10.45,5.57-6.83,10.21-14.71,12.45-23.33,2.29-8.96,2.13-18.29,1.87-27.42-.66-22.05-2.72-43.78-4.86-65.69-.64-6.76-1.35-13.55-1.93-20.34-.99-11.81-1.49-23.92-.05-35.73,1.41-11.31,5.32-21.99,9.92-32.33,2.11-4.71,4.37-9.35,6.77-13.92.17-.33,3.35-5.55,3.13-5.8,0,0-22.91-26.12-31.69-36.1"/>
  <path class="cls-14" d="M323.14,131.78c-.27-3.45-.53-6.94-.69-10.46h-87.05V7.91h-76.63v113.41h-88.98c-.18,3.52-.41,7.01-.69,10.46-.57,6.79-1.28,13.58-1.94,20.34-1.48,15.3-2.93,30.55-3.91,45.83h95.52v121.8c5.7,3.21,11.37,6.48,17,9.82,3.75,2.2,7.47,4.45,11.16,6.73,1.08.68,9.19,4.8,9.19,5.96,0-1.16,8.08-5.28,9.17-5.96,3.7-2.28,7.43-4.53,11.18-6.73,6.27-3.71,12.58-7.35,18.94-10.92v-120.7h93.58c-.97-15.28-2.41-30.54-3.91-45.83-.64-6.76-1.36-13.55-1.94-20.34"/>
  <path class="cls-9" d="M197.09,134.38h126.28c-.06-.86-.17-1.71-.23-2.59-.16-1.67-.21-3.38-.34-5.06h-125.71V7.91h-7.66v149.46h-3.87V7.91h-7.66v149.46h-3.79V7.91h-7.66v149.46h-99.78c-.26,2.55-.5,5.1-.73,7.66h131.15v3.8H65.59c-.24,2.54-.48,5.09-.7,7.64h132.2v3.88H64.59c-.22,2.56-.43,5.1-.61,7.67h133.12v153.17c1.9-1.48,6.06-3.66,7.67-4.55v-179.26h3.79v177.01c2.54-1.58,5.09-3.14,7.66-4.67v-172.34h3.88v170.1c2.55-1.51,5.11-2.99,7.68-4.46v-165.64h97.8c-.15-1.75-.3-3.5-.49-5.25-.08-.8-.17-1.61-.25-2.41h-127.73v-3.87h127.38c-.28-2.57-.5-5.11-.73-7.66h-126.65v-3.8Z"/>
  <path class="cls-13" d="M125.99,277.84h-11.3v4.36h8.56v9.82h-4.11v-6.4h-17.15v-3.41h8.63v-4.36h-11.14v-3.48h18.82c.11-.67.2-1.51.3-2.48.09-.85.16-1.6.17-2.24h-16.54v-3.48h21.01c0,1.47-.07,2.94-.19,4.36-.14,1.5-.29,2.8-.48,3.84h3.42v3.48Z"/>
  <path class="cls-13" d="M134.92,283.01c.15.08.15.34.03.74-.06.13-.11.26-.14.4-.05.19-.07.39-.07.59v3.1h17.12v3.46h-21.19v-8.5h2.36c1.03,0,1.66.07,1.89.2M154.28,279.69h-11.03v5.84h-3.97v-5.84h-11.5v-3.51h18.74c.47-2.15.71-4.34.71-6.53h-16.59v-3.48h21.02c0,1.83-.05,3.57-.17,5.27-.15,1.98-.41,3.58-.7,4.75h3.49v3.51Z"/>
  <path class="cls-13" d="M180.69,265.65c.13.07.15.26.03.57-.09.2-.12.36-.15.48-.06.22-.09.44-.09.66v24.65h-4.08v-26.52h2.46c1.02,0,1.62.05,1.82.15M163.11,270.9c-.56.65-.85,1.47-.85,2.51,0,.98.29,1.77.85,2.37.59.64,1.44.97,2.51.97s1.87-.33,2.51-.97c.6-.63.9-1.43.9-2.37,0-1.04-.3-1.87-.9-2.51-.64-.72-1.48-1.03-2.51-1.03s-1.88.32-2.51,1.03M170.67,268.23c1.62,1.28,2.43,2.97,2.43,5.09,0,2.09-.81,3.81-2.43,5.08-1.44,1.14-3.13,1.71-5.04,1.71s-3.62-.57-5.04-1.71c-1.6-1.28-2.41-2.99-2.41-5.08s.81-3.81,2.41-5.09c1.43-1.1,3.12-1.68,5.04-1.68s3.6.58,5.04,1.68M163.52,283.92c3.98-.17,7.74-.43,11.26-.73l.71,3.24c-2.2.17-4.65.38-7.35.58-2.46.19-5.07.36-7.86.56-.37.01-.74.06-1.1.14-.26.05-.52.11-.78.19-.42.13-.74.16-.87.11-.19-.11-.36-.39-.51-.92l-.82-2.95c1.72,0,4.17-.07,7.32-.22"/>
  <path class="cls-13" d="M191.32,273.58h12.63v-3.57h-12.63v3.57ZM208.06,277.03h-20.83v-10.47h20.83v10.47ZM210.83,279.54v3.45h-11.21v9.03h-4.06v-9.03h-11.25v-3.45h26.51Z"/>
  <path class="cls-13" d="M236.14,265.71c.17.1.17.32,0,.71-.06.21-.14.41-.22.61-.05.26-.08.53-.09.79v9.26h3.5v3.59h-3.5v11.34h-4.08v-26.51h2.28c1.17,0,1.86.07,2.1.21M223.52,267.4c.14.12.1.4-.1.84-.1.2-.17.32-.21.4-.06.19-.14.36-.14.51-.12.39-.18.96-.22,1.67-.01.61-.04,1.46-.04,2.5,0,1.96.72,4.15,2.11,6.57,1.48,2.61,3.14,4.38,5.03,5.41-.59.39-1.15.82-1.68,1.29-.64.59-1.16,1.11-1.51,1.56-1.25-.9-2.49-2.37-3.8-4.38-1.2-1.92-1.95-3.5-2.17-4.75-.4,1.45-1.07,3.01-1.98,4.59-1.14,1.98-2.42,3.51-3.77,4.55-.42-.39-.93-.85-1.52-1.29-.58-.46-1.11-.9-1.62-1.22,2.33-1.7,4.11-4.07,5.34-7.11,1.28-3.17,1.95-6.98,1.95-11.4h2.31c1.16,0,1.82.07,2.04.27"/>
  <path class="cls-13" d="M250.15,285.21c-1,.4-1.53.98-1.53,1.73s.5,1.31,1.49,1.75c1.12.49,2.75.76,4.91.76s3.74-.27,4.83-.76c1.01-.44,1.48-1.03,1.48-1.75s-.48-1.32-1.48-1.73c-1.09-.46-2.69-.68-4.77-.68-2.19,0-3.83.22-4.94.68M263.02,283.18c1.69.95,2.55,2.2,2.55,3.7,0,1.55-.85,2.82-2.55,3.82-1.88,1.09-4.55,1.65-8,1.65s-6.15-.56-8.06-1.65c-1.69-1-2.56-2.28-2.56-3.82s.87-2.75,2.56-3.7c1.92-1.05,4.61-1.6,8.06-1.6s6.11.54,8,1.6M265.75,265.72c.14.12.12.38-.08.82-.08.15-.14.3-.18.46-.08.19-.13.39-.15.59v14.09h-4.06v-4.02h-3.97c.07.27.12.61.17.96.03.22.05.56.1,1.01l.03.08c-1.8.26-3.82.4-6.09.53-1.93.07-3.86.11-5.79.1h-2.9v-8.91h8.76v-1.77h-8.76v-3.13h12.82v8.03h-8.78v2.53h.93c1.52,0,2.94-.05,4.3-.11,1.77-.08,3.45-.2,5.01-.4v-2.21h4.18v-2.39h-4.18v-3.26h4.18v-3.2h2.42c1.14,0,1.84.08,2.05.22"/>
  <path class="cls-13" d="M276.15,274.35h12.69v-2.07h-12.69v2.07ZM276.25,266.55c.1.09.12.24.03.53-.03.13-.08.24-.08.32-.02.1-.05.2-.05.32v1.31h12.69v-2.62h2.48c.94,0,1.5.07,1.68.13.14.09.16.26.07.58-.07.13-.08.24-.1.34-.01.13-.01.29-.01.44v9.68h-20.87v-11.17h2.75c.76,0,1.24.07,1.42.13M295.68,279.54v3.45h-11.21v9.03h-4.06v-9.03h-11.24v-3.45h26.51Z"/>
  <path class="cls-16" d="M229.36,172.7c-.33.62-.61,1.2-.94,1.8h-.01c-1.33,2.41-2.68,4.75-4.19,7.03-1.07,1.6-2.17,3.15-3.4,4.63-.42.51-.85,1-1.29,1.49-6.11,6.74-3.79,15.71-4.74,23.9-.41,3.31-.92,8.37-2.96,11.71h-1.7c-.01-.14,0-.26-.01-.39.22-3.43-.39-5.93-1.19-7.72-.19-.56-.39-1.07-.61-1.52.22-.24.41-.49.58-.77.36-.27.7-.59,1-.91,2.02-2.19,2.71-4.85,2.34-7.45.2-1.73-.1-3.5-.87-5.15-.01-.09-.05-.19-.08-.29.13-.15.27-.32.39-.51,1.03-.93,2.11-2.14,2.74-3.41.76-1.5.78-3.21.68-4.82.09-.88.05-1.75-.02-2.61-.06-.97-.35-1.96-.8-2.86-.37-1.32-1.08-2.56-1.96-3.58.19-.24.42-.49.61-.76,2.06-1.74,3.45-4.01,3.27-7.1-.01-.2-.08-.37-.08-.57.07-.56.12-1.15.08-1.8-.05-.93-.3-1.85-.73-2.68-.12-.5-.29-.94-.47-1.35.15-.08.34-.2.49-.32,1.09-.75,2.12-1.77,2.97-2.76.13-.14.19-.27.29-.41.57-.49,1.07-1.04,1.53-1.58,1.89-2.25,2.46-4.99,2.19-7.74.26-2.32-.25-4.74-1.22-6.94-.3-.99-.7-1.92-1.19-2.82-.7-1.17-1.53-2.25-2.47-3.23.95-.27,1.88-.53,2.81-.84,1.7-.48,3.37-1.03,5.01-1.67.12-.05.22-.12.36-.17.05-.02.12-.05.19-.09,1.77-.69,3.48-1.55,5.1-2.56v.17c-.07.47-.07.96,0,1.43-.38,2.66,1.64,5.96,2.17,8.27.63,2.58.97,5.25,1.07,7.93-.26,6.64-1.96,13.28-4.93,19.01M174.69,191.81c-.66-2-1.64-3.89-3.24-5.64-.45-.47-.86-.95-1.26-1.46-1.24-1.49-2.36-3.06-3.44-4.67-1.49-2.27-2.88-4.6-4.16-6.99-.01-.03-.03-.03-.03-.03-.34-.6-.64-1.2-.93-1.78-.65-1.26-1.23-2.54-1.75-3.86-1.7-4.77-2.6-9.79-2.66-14.86.12-2.6.45-5.14,1.08-7.62.48-2.04,2.07-4.82,2.17-7.29,1.68.94,3.41,1.78,5.18,2.51,1.82.76,3.71,1.33,5.62,1.8-1.05,1.33-1.9,2.81-2.5,4.4-.56,1.44-.71,2.95-.62,4.47-.02.08.01.16,0,.22-.02.47-.02.95,0,1.42-.19,2.82.66,5.69,1.87,8.2.1.25.26.44.37.69.16.41.34.87.53,1.29,1.32,2.77,3.21,4.7,5.55,6.4.02.04.09.07.14.11-.58,1.35-.8,2.88-.67,4.41-.02.04,0,.09,0,.11-.04.53-.06,1.03,0,1.54-.15,2.14.36,4.28,1.46,6.13.25.68.59,1.32.97,1.95-1.65,2.33-2.33,5.18-2.17,8.03-.01.09,0,.17-.01.27v1.21c.01.05,0,.1.01.15-.1,1.87.16,3.73.76,5.5.21.64.5,1.26.87,1.83.02.06.04.09.04.16.53,1.5,1.43,2.84,2.61,3.9-.07.18-.14.35-.2.58-.32,1.19-.44,2.42-.34,3.64-.04.49-.04.98,0,1.46,0,.07-.02.14,0,.19-.14,1.88.23,3.79,1.29,5.38.21.67.51,1.3.88,1.89-.6,1.37-.92,2.9-.78,4.47v.15c-.01.4-.01.79,0,1.19h-1.07s-.07-.07-.12-.11c-.71-.78-1.27-1.71-1.73-2.75-1-3-1.38-6.45-1.66-8.91-.77-6.59.57-13.69-2.04-19.69M167.74,116.86c.24,0,.53,0,.8-.01.07,0,.17.01.23.01,1.31.02,2.84-.1,4.13-.81h.02c.17-.05.33-.12.49-.19.54-.29,1.04-.64,1.51-1.04,1.25-.98,2.38-3.41,1.52-5.04.2-.01.42-.03.64-.03.18,0,.36.03.51.05,1.03.24,1.3,1.49,1.65,2.33.18.44.3.93.63,1.32.07.14.97.8,1.1.81-.07,1.92-.2,5.1-.17,7.73-.03,1.48,0,2.9.1,3.99-3.44-.87-6.83-1.97-9.85-3.85-1.55-.97-2.84-1.87-3.83-2.73-1.04-1.02-1.7-1.91-2.14-2.72.88.1,1.78.17,2.66.18M211,112.73c.17-.26.48-.81.8-1.37.34-.54.78-.95,1.33-1.24,0,.29.05.61.15.92-.51,1.24.34,2.73,1.19,3.75,1.21,1.49,2.76,2.56,4.64,3.02,1.68.42,3.62.37,5.15,1.28-.06.09-.09.17-.14.24-.59.37-1.19.72-1.82,1.03-3.85,2.04-7.9,3.69-12.04,5.12.05-2.01-.01-4.82,0-5.28.05-1.22-.07-2.43-.05-3.63.04-1.3.1-2.71.8-3.83M280.28,176.24c.24-1.95-.08-3.41-.68-4.53-.28-1.32-1.05-2.48-2.16-3.25-1.07-1.24-2.54-1.82-3.82-2.09-.14-2.04-.52-3.68-1.12-4.93-.67-2.21-1.8-3.64-2.96-4.51-.52-.57-1.13-1.05-1.8-1.42-.15-1.58-.51-3.17-1.12-4.46-.35-1.3-.91-2.43-1.7-3.14-.14-.12-.32-.24-.54-.39-.14-.18-.3-.35-.45-.51-.58-.51-2.6-1.77-4.03-1.96-.31-1.29-.65-2.41-1.07-3.32-.88-2.74-2.12-4.44-3.48-5.43-1.87-2.06-4.11-2.44-5.86-2.31h-.07c-.32-.01-.64-.01-.96,0-.15-.01-.29,0-.44,0-.33-.37-.7-.72-1.1-1.02-1.09-1.17-2.51-2.05-4.01-2.78-1.17-.58-2.8-1.18-4.18-1.05,2.94-3.26,4.93-7.27,5.24-11.99.03-.69.02-1.37-.05-2.06.01-.12.05-.22.05-.34.14-2.32-.36-4.68-1.31-6.87-1.01-3.23-3.03-6.2-5.6-8.37-1.23-1.17-2.56-2.17-4.01-2.92-1.66-.85-3.64-1.61-5.46-1.92-.7-.1-1.44-.1-2.21-.1h-1.04c-.51,0-1.03-.01-1.56.01-2.24.17-4.42,1.14-5.64,3.08-.68-1.5-1.65-3-3.09-4.11,0-.03-.05-.05-.07-.1.29-.56.54-1.2.68-1.88.22-.97.24-2.01.12-2.99,0-.03,0-.09-.02-.14-.22-1.96-.13-3.98-1.12-6.04-.15-.54-.36-1.06-.61-1.56-1.07-2.09-2.85-3.52-4.02-5.48-1.48-2.42-2.52-5.15-4.28-7.37-1.72-2.19-4.91-3.19-6.18-5.6-.83-1.51-1.79-2.65-2.74-3.94-.01-.04-.03-.05-.05-.09-.06-.09-.13-.16-.23-.29-.07-.08-.14-.14-.17-.17-.7-.66-1.21-.54-1.53-.34-.48-.26-.83-.14-1.07,0-.37.25-1.14.24-1.68.76-.53.47-.94,1.3-1.28,1.91-1.65,3.04-1.09,6.61-1.91,9.86-.76,3.06-2.32,5.76-4.48,8.1-3.26,3.54-7.16,7.74-6.76,12.8-.1,1.06-.02,2.13.25,3.16.05.2.14.4.2.57-.8.6-1.51,1.31-2.1,2.11-1.99-1.16-4.86-1.36-7.08-1.33h-1.07c-9.91-.17-17.43,8.08-19.06,17.33-.2,1.01-.25,2.05-.17,3.08-.03.02,0,.07,0,.09-.06.51-.06,1.03,0,1.54-.19,2.68.51,4.88,1.62,7.49.24.56.52,1.12.79,1.7.05.08.07.18.12.27.38.87.82,1.72,1.31,2.53-.55.17-1.09.38-1.61.64-1.75.85-3.31,1.9-4.46,3.34-.22.15-.48.31-.69.46-.13,0-.25-.01-.39,0-.33-.01-.66-.01-.98,0h-.09c-1.93-.14-4.48.38-6.49,3.08-2.09,1.05-4.11,3.43-5.2,8.37-2.23.9-4.45,2.4-5.89,4.39-.63.87-1.05,1.8-1.36,2.85-.18.68-.17,3.37-.59,3.74-.37.37-.78.76-1.14,1.27-2.09,1.09-4.43,3.53-4.7,9.05-1.17.44-2.35,1.22-3.11,2.51-1.98.87-3.87,2.7-3.56,6.62-.02.07,0,.12,0,.2-.02.07-.02.15-.02.22,0,.29-.01.58.02.9,0,.1-.02.2,0,.31-.12,1.36.07,3.06.75,5.14,0,0,.24,1.64,1.61,4.23,1.1,2.8,3.95,7.88,11.21,13.19.44.87,1.11,1.75,1.89,2.68-1.65.6-2.72,1.94-2.43,4.51v.08c-.03.51-.03,1.03,0,1.54.35,3,.95,5.58,2.74,8.06.53.69,2.18,1.9,2.96,2.9-.29.44-.6.88-.67,1.15-.2.68-.2,1.43-.11,2.19-.32,2.16.78,4.79,2.07,6.4.45.54,4.09,3.36,6.11,4.48-1.55.95-1.94,2.65-1.7,4.38-.2,1.61.34,3.45,1.08,4.8.76,1.38,1.83,1.99,3.36,2.29.98.19,2.34.44,3.55.38.14.02.27,0,.41.02.02.24.03.47.12.72-.49,1.4.7,3.43,1.39,4.44,1.31,1.93,2.64,2.82,4.57,2.63.78.11,1.69-.03,2.76-.37.75.42.85,1.93,1.79,2.8,1.17,1.12,2.78,1.53,4.38,1.53.07,0,.22-.04.4-.07.21.01.43.07.65.07.32,0,2.53-.38,3.82-.65.77,2.11,2.6,2.75,4.64,2.59,1.65.14,3.55-.39,5.17-1.1.44-.19.91-.36,1.32-.58v5.84h41.45v-4.71c1,.28,2.11.45,3.2.4,1.39.09,2.8-.14,3.87-.69.01,0,.01-.02.01-.02.17-.07.36-.14.51-.22.95-.44,1.63-.95,2.09-1.51h.01c1.62.05,4.03.29,5,.22.61.03,1.1.03,1.34-.03.21-.06.36-.16.53-.23,1.74-.47,2.7-1.84,4.13-2.83.18-.15.39-.25.59-.34,1.51-.59,3.25-.56,4.74-1.15.11-.03.2-.09.31-.15.08-.01.16-.05.23-.07,2.77-1.07,2.45-3.17,3.69-5.48.22-.41.27-.85.22-1.34,1.31-.14,2.61-.5,3.85-1.05,3.82-1.6,6.76-5.04,4.69-8.99-.21-.91-.67-1.86-1.46-2.85-.04-.04-.07-.07-.12-.1,2.68-1.41,4.89-2.97,5.95-4.6,1.99-1.63,3.03-3.4,2.28-5.18.38-.95.31-1.97-.34-2.96-.06-.45-.21-.88-.44-1.27.39-.38.81-.73,1.17-1.15,1.8-2.09,3.88-3.97,4.57-6.77.3-1.26.3-2.28.14-3.09.25-1.63.01-2.77-.55-3.6-.2-1.15-.76-1.98-1.59-2.44-.11-.17-.28-.31-.41-.44.88-.92,1.68-1.85,2.27-2.75,2.5-1.94,4.41-3.84,5.9-5.61,6.05-6.12,6.73-10.99,6.73-10.99.72-2.31.89-4.11.68-5.55"/>
  <path class="cls-15" d="M230.25,173.58c-.33.59-.65,1.19-.96,1.76l-.03.03c-1.29,2.38-2.64,4.76-4.16,6.99-1.06,1.6-2.2,3.15-3.39,4.65-.43.5-.87,1-1.31,1.5-6.11,6.76-3.78,15.72-4.74,23.9-.41,3.31-.9,8.35-2.96,11.71h-3.28c.02-.62.02-1.22-.01-1.79.27-4.4-.82-7.29-1.94-9.09.27-.3.49-.61.7-.92.36-.3.71-.59,1.03-.95,2-2.15,2.69-4.84,2.34-7.42.21-1.86-.14-3.74-1-5.4.18-.17.29-.36.43-.54,1.05-.92,2.1-2.17,2.75-3.41.76-1.51.79-3.22.66-4.88.1-.84.05-1.72-.01-2.59-.16-1.95-1.15-3.92-2.51-5.35-.2-.2-.43-.39-.66-.59.38-.35.71-.78,1.03-1.22,2.02-1.76,3.45-4.02,3.25-7.09,0-.22-.05-.39-.08-.59.08-.58.13-1.15.08-1.78-.07-1.69-.68-2.95-1.48-3.88.25-.14.54-.27.78-.47,1.1-.74,2.14-1.77,2.98-2.8.1-.1.17-.24.27-.36.55-.51,1.07-1.05,1.53-1.61,1.88-2.22,2.44-5.01,2.2-7.72.3-2.82-.48-5.82-1.89-8.33-.96-1.75-2.29-3.23-3.8-4.52.35-.12.71-.19,1.08-.27,1.03-.3,2.06-.58,3.07-.94,1.7-.47,3.38-1.03,5-1.66,2.51-1,4.88-2.32,7.05-3.92-.37.85-.48,1.74-.35,2.7-.39,2.66,1.63,5.97,2.17,8.27.7,2.84,1.05,5.81,1.12,8.78-.14,6.89-1.89,13.84-4.96,19.82M171.28,187.05c-.46-.49-.85-.98-1.29-1.49-1.22-1.49-2.36-3.04-3.43-4.65-1.49-2.27-2.88-4.61-4.17-7.01l-.03-.03c-.32-.58-.63-1.19-.94-1.78-3.16-6.07-4.85-13.13-4.94-20.12.11-2.56.47-5.13,1.08-7.62.57-2.32,2.62-5.68,2.13-8.37,2.2,1.34,4.53,2.43,6.81,3.4,2.23.92,4.49,1.58,6.78,2.11-1.61,1.62-2.82,3.6-3.65,5.72-.52,1.43-.73,2.96-.61,4.48-.19,2.82.66,5.69,1.87,8.22.1.24.24.42.39.65.15.44.32.88.53,1.32,1.29,2.77,3.21,4.69,5.51,6.38.24.19.51.39.77.57-.05.09-.14.19-.19.28-.9,1.56-1.26,3.43-1.1,5.33-.15,2.15.37,4.28,1.48,6.13.35,1.02.87,1.98,1.55,2.82-.05.04-.09.06-.12.12-2,2.44-2.82,5.56-2.65,8.67-.1,1.85.16,3.74.75,5.52.24.63.54,1.24.9,1.82,0,.03,0,.09.03.14.59,1.73,1.66,3.29,3.13,4.41-.29.51-.56,1.05-.74,1.72-.3,1.19-.42,2.42-.35,3.65-.1,1.92.25,3.8,1.3,5.4.28.93.73,1.8,1.33,2.57-.94,1.64-1.36,3.53-1.21,5.41-.03.45-.03.89,0,1.34h-2.14s-.07-.06-.11-.1c-2.91-3.18-3.49-9.29-3.92-13.08-.99-8.2,1.34-17.17-4.74-23.89M164.21,115.72c1.45.21,2.91.33,4.38.36,1.29.03,2.84-.09,4.11-.78.39-.2.95-.56,1.49-1,1.3-1.04,2.48-3.63,1.43-5.26.87,0,1.99-.19,2.84,0,1.05.23,1.32,1.49,1.66,2.32.19.42.31.97.6,1.32.1.13,1.17.93,1.17.83.03,1.46-.77,13.47.45,13.73-4.03-.93-7.97-2.07-11.49-4.27-1.54-.96-2.82-1.86-3.82-2.73-1.78-1.75-2.54-3.23-2.86-4.34,0-.07.04-.13.04-.19M174.11,107.52s0,.07-.01.1c-.07-.03-.13-.06-.19-.1h.21ZM172.99,107.02v.05h.96c-.03.27-.05.45-.05.45-.33-.18-.67-.32-1.03-.42.03-.03.08-.05.12-.08M209.53,119.66c.05-1.21-.07-2.44-.05-3.64.02-1.29.11-2.7.8-3.84.16-.27.47-.79.79-1.34.56-.99,1.5-1.51,2.57-1.78.53-.17,1.09-.22,1.63-.27.32-.04.64-.09.98-.09-.4.14-.87.31-1.23.53-1.92,1.29-.79,3.45.32,4.79,1.23,1.5,2.75,2.57,4.64,3.02,1.91.49,4.13.34,5.71,1.68-.15.53-.36,1.02-.7,1.46-.61.38-1.24.77-1.84,1.04-4.42,2.34-9.05,4.21-13.84,5.79.39-.14.2-6.64.22-7.35M234.89,131.88c-.06.17-.08.34-.11.48-.2.03-.39.08-.58.1.22-.17.49-.37.7-.58M279.54,175.73c.39-3.37-.75-5.31-2.29-6.41-1.22-1.4-2.99-1.96-4.3-2.19,0-5.22-1.75-7.93-3.61-9.35-.63-.69-1.39-1.25-2.23-1.65-.15-2.73-.8-5.89-2.4-7.35-.12-.1-.31-.22-.53-.39-.15-.19-.31-.34-.45-.51-.63-.54-2.86-1.9-4.28-1.98-.83-4.76-2.46-7.37-4.3-8.75-1.89-2.02-4.13-2.41-5.86-2.27-.48-.04-.96-.04-1.44,0-.36-.38-.73-.73-1.14-1.03-1.1-1.17-2.51-2.04-4.03-2.8-1.2-.58-2.88-1.22-4.32-1.04-.66-.07-1.29-.01-1.87.22.1-.14.21-.27.33-.43,3.6-3.46,6.06-7.87,6.4-13.19.03-.68.02-1.41-.05-2.07.01-.12.03-.21.05-.29.3-5.18-2.37-10.49-6.38-13.85-1.21-1.17-2.55-2.19-3.99-2.92-1.65-.85-3.66-1.61-5.47-1.94-.73-.1-1.46-.12-2.2-.08-.52-.03-1.04-.03-1.56,0-2.29.18-4.53,1.17-5.74,3.19-.26.1-.48.24-.73.39-.68-1.65-1.7-3.38-3.31-4.63-.29-.32-.61-.6-.96-.85.5-.73.85-1.56,1.03-2.53.22-.95.26-2,.12-2.98v-.17c-.26-2-.14-4.06-1.22-6.17-1.05-2.07-2.84-3.51-4.01-5.47-1.48-2.44-2.53-5.15-4.3-7.4-1.7-2.17-4.89-3.19-6.18-5.58-.82-1.49-1.76-2.65-2.73-3.94-.02,0-.04-.05-.05-.07-.07-.12-.14-.18-.22-.3-.04-.07-.1-.12-.17-.17-.71-.66-1.26-.53-1.55-.32-.37.22-1.14.22-1.68.74-.51.49-.93,1.29-1.29,1.94-1.63,3.02-1.07,6.59-1.88,9.83-.78,3.09-2.32,5.77-4.49,8.12-3.55,3.89-7.96,8.57-6.52,14.31.17.63.48,1.22.9,1.73v.05c-1.33.76-2.34,1.85-3.13,2.98-2-1.52-5.32-1.82-7.81-1.78-9.89-.17-17.43,8.1-19.06,17.35-.19,1.01-.26,2.03-.19,3.06-.17,2.68.53,4.89,1.62,7.5.27.56.54,1.15.81,1.69.05.09.08.19.12.28.59,1.37,1.3,2.7,2.15,3.91-.85.2-1.68.5-2.47.88-1.72.86-3.3,1.92-4.43,3.36-.28.17-.51.33-.73.48-.47-.04-.95-.04-1.42,0-1.94-.13-4.49.36-6.49,3.07-2.09,1.03-4.12,3.41-5.18,8.33-2.24.92-4.48,2.44-5.91,4.41-.61.87-1.07,1.83-1.36,2.86-.17.68-.17,3.38-.59,3.75-.43.38-.81.81-1.13,1.28-2.09,1.07-4.43,3.5-4.67,9.01-1.21.46-2.37,1.22-3.15,2.53-1.97.87-3.87,2.72-3.57,6.62-.14,1.36.07,3.04.77,5.14,0,0,.24,1.66,1.6,4.23,1.1,2.78,3.96,7.85,11.19,13.2.63,1.12,1.54,2.32,2.65,3.52-.12.2-.19.4-.25.59-1.94.53-3.25,1.87-2.91,4.69.35,2.98.92,5.58,2.74,8.06.66.9,3.25,2.63,3.36,3.72.03.34-.96,1.5-1.09,1.98-.63,2.22.57,5.2,1.97,6.95.61.73,6.93,5.54,7.48,4.87-.19.22-.34.48-.43.77-.19.09-.36.14-.56.23-3.08,1.42-2.33,5.43-.99,7.82.75,1.36,1.82,1.97,3.33,2.28,1.47.29,3.72.72,5.08.09-2.31,1.08-.48,4.16.41,5.47,1.68,2.48,3.35,3.24,6.37,2.23,1.75-.59,1.51,1.67,2.75,2.83,1.17,1.1,2.8,1.53,4.36,1.53.48,0,4.82-.73,4.76-.98,1.49,5.07,8.47,2.48,11.3.52-.03.58-.01,1.12-.03,1.7v4.87h39.86v-5.33c1.97,1.23,5.49,1.44,7.61.35,1.02-.52,1.72-1.07,2.19-1.65.31-.38,5.85.32,6.76.07,1.74-.45,2.7-1.82,4.13-2.82,1.73-1.21,3.99-.97,5.89-1.72,2.74-1.07,2.43-3.17,3.65-5.48.26-.46.32-.98.24-1.51,5.74-.32,12.4-5.47,7.62-11.29-.37-.49-.93-.89-1.41-1.15,3.02-1.49,5.55-3.21,6.72-5.01,1.98-1.62,2.99-3.37,2.24-5.14.48-1.12.34-2.31-.69-3.5,0,0-.04-.17-.37-.43.49-.49,1.02-.95,1.47-1.46,1.81-2.07,3.91-3.99,4.57-6.76.31-1.28.32-2.3.14-3.12.41-2.43-.29-3.87-1.59-4.63-.37-.53-.94-.9-1.56-1.16,1.15-1.17,2.14-2.31,2.9-3.41,2.48-1.96,4.41-3.85,5.89-5.6,6.05-6.11,6.72-11.01,6.72-11.01.73-2.3.88-4.1.68-5.53"/>
  <path class="cls-10" d="M196.17,212.01c0,.35-.07.68-.1,1.02.08-.31.1-.63.1-.99v-.03Z"/>
  <path class="cls-16" d="M204.89,199.84v-.17s-.09.03-.14.07c.05.03.09.06.14.1"/>
  <path class="cls-16" d="M188.66,234.45c.31-.52.6-1.08.87-1.64-.4-1.02-.8-2.05-1.24-3.06l.07,2.31c.41.78.63,1.59.3,2.39"/>
  <path class="cls-1" d="M188.09,160.16c-.13-.08-.23-.17-.27-.2.05.03.14.12.27.2"/>
  <path class="cls-1" d="M189.82,161.37s-.02-.02-.03-.02c.01,0,.03.02.03.02"/>
  <path class="cls-1" d="M188.49,160.45c-.06-.04-.12-.08-.18-.13.07.05.12.09.18.13"/>
  <path class="cls-1" d="M208.49,139.84c.2-.03.42-.07.64-.11-.22.04-.44.07-.64.11"/>
  <path class="cls-16" d="M204.45,214.23l.03-.61c-.14.06-.28.12-.43.17.14.13.26.28.39.44"/>
  <path class="cls-18" d="M186.2,163.9c-1.47,1.03-2.85,2.28-3.99,3.69,1.37.73,2.76,1.41,4.18,2.04l-.19-5.73Z"/>
  <path class="cls-5" d="M186.2,163.9c-1.47,1.03-2.85,2.28-3.99,3.69,1.37.73,2.76,1.41,4.18,2.04l-.19-5.73Z"/>
  <path class="cls-18" d="M189.77,233.33l1.57.93-.44-2.78c-1.85-2.28-2.57-4.42-2.76-6.27l.21,6.74c.42.54.9,1.07,1.43,1.38"/>
  <path class="cls-5" d="M189.77,233.33l1.57.93-.44-2.78c-1.85-2.28-2.57-4.42-2.76-6.27l.21,6.74c.42.54.9,1.07,1.43,1.38Z"/>
  <path class="cls-16" d="M204.82,75.2s.07.09.07.11c.67,1.01,1.17,2.14,1.79,3.16.96,1.61,2.58,2.67,3.63,4.21,1.02,1.46,1.43,3.48,1.61,5.23.12.99.08,1.99-.12,2.97-.77,3.84-3.96,6-7.47,6.11-4.91.06-2.62-5.18-1.2-7.81,1.55-2.78,2.76-6.13,2.5-9.53-.05-.82-.27-1.63-.54-2.43-.26-.74-.67-1.6-.64-2.39,0,0,.26.24.37.37"/>
  <path class="cls-1" d="M204.65,75.27c.03.07.07.09.07.12.65,1,1.09,2.11,1.68,3.14.93,1.59,2.47,2.65,3.47,4.16.96,1.47,1.36,3.46,1.56,5.21.09,1,.07,2.04-.13,3-.78,3.8-3.89,5.99-7.26,6.13-4.74.13-2.51-5.15-1.08-7.78,1.49-2.82,2.66-6.15,2.46-9.52-.05-.85-.3-1.66-.54-2.43-.21-.76-.63-1.62-.59-2.42,0,.02.24.24.37.38"/>
  <path class="cls-16" d="M199.71,68.82c.91.51,1.81,1.07,2.56,1.85,1.12,1.15,1.76,2.77,2.39,4.27,1.08,2.65,1.6,5.35,1.87,8.24.14,1.32.18,2.66.12,3.99-.22,3.7-1.72,8.03-4.81,9.6-2.18,1.13-7.12,2.06-8.02-1.74-.71-2.94,1.5-6.23,2.46-8.81.86-2.09,1.17-4.54,1.49-6.89.27-2.16.4-4.41.54-6.59.12-2.05-.92-3.48-1.29-5.38.02.13.79.35.88.44.61.36,1.21.66,1.79,1.02"/>
  <path class="cls-1" d="M199.3,68.87c.87.49,1.72,1.05,2.41,1.84,1.05,1.17,1.67,2.77,2.24,4.27,1.04,2.63,1.51,5.34,1.77,8.24.12,1.31.15,2.65.06,3.97-.22,3.69-1.64,8.03-4.56,9.63-2.09,1.13-6.74,2.08-7.62-1.74-.64-2.92,1.48-6.21,2.41-8.79.81-2.09,1.11-4.54,1.41-6.91.29-2.14.44-4.44.54-6.59.12-2.06-.85-3.48-1.21-5.37.03.14.74.38.86.45.56.34,1.14.65,1.7,1"/>
  <path class="cls-16" d="M193.57,63.55l.1.07c.03.06.06.12.07.19v.05c-.07-.11-.12-.21-.17-.31M201.54,79.82c-.24-4.17-2.24-7.78-3.88-11.3-.14-.32-1.8-3.89-2.94-5.67-.06-.14-.18-.29-.3-.47-.06-.09-.12-.17-.18-.26-.02,0-.02-.02-.02-.02,0,0-.02-.02-.03-.02-.07-.07-.12-.13-.17-.15-1.17-1.11-1.85-.07-1.85-.07-.49.63-.14,1.28-.03,1.95.11.71.1,1.44.07,2.14-.04,1.18-.14,2.36-.32,3.53-.63,4.31-2.19,7.4-4.91,10.35-2.42,2.59-6.33,5.74-6.69,10.1-.05.88-.05,1.85.17,2.68.76,3.04,4.02,3.67,6.2,3.96,1,.15,2.07.23,3.11.15,2.24.12,4.55-.27,6.38-2.07,1.09-1.11,1.78-2.73,2.62-4.16,1.22-2.12,2.26-4.6,2.62-7.23.17-1.14.24-2.32.17-3.45"/>
  <path class="cls-1" d="M192.86,61.89c.56-.63,3.7,6.2,3.89,6.66,1.65,3.53,3.65,7.11,3.89,11.29.07,1.12,0,2.31-.18,3.45-.34,2.63-1.36,5.09-2.6,7.23-.83,1.43-1.51,3.04-2.62,4.14-2.24,2.24-5.19,2.32-7.91,1.95-2.17-.28-5.43-.91-6.2-3.95-.22-.85-.22-1.82-.15-2.68.34-4.4,4.26-7.52,6.67-10.14,2.72-2.93,4.28-6.02,4.94-10.34.15-1.17.27-2.36.31-3.53.02-.71.07-1.43-.07-2.13-.11-.68-.48-1.33.03-1.94"/>
  <path class="cls-16" d="M196.23,102.8h-11.94l4.16,131.89v26.38h15.37v-26.38l4.15-131.89h-11.73Z"/>
  <path class="cls-1" d="M196.19,108.8h-10.86l4.39,151.09h12.65l4.52-151.09h-10.7Z"/>
  <path class="cls-13" d="M197.02,259.88h-1.01V108.8h1.01v151.09Z"/>
  <path class="cls-13" d="M198.84,259.88h-.98l1.96-151.09h1.01l-1.99,151.09Z"/>
  <path class="cls-13" d="M201.34,259.88h-1l3.05-151.12,1.04-.05-3.09,151.17Z"/>
  <path class="cls-13" d="M193.75,259.88h1.03l-1.99-151.09h-1.01l1.97,151.09Z"/>
  <path class="cls-13" d="M191.27,259.88h1.01l-3.07-151.12-1.02-.05,3.08,151.17Z"/>
  <path class="cls-16" d="M210.12,110.72h-28.01v-4.57h28.01v4.57Z"/>
  <path class="cls-1" d="M208.88,109.88h-25.49v-3.59h25.49v3.59Z"/>
  <path class="cls-16" d="M206.08,94.79h-20.14c-9.46,0-10.24,11.5-10.24,11.5h40.62s-.76-11.5-10.24-11.5"/>
  <path class="cls-1" d="M205.72,95.33h-5.38s1.93,1.76,1.93,10.46h7.59c0-8.3-4.15-10.46-4.15-10.46"/>
  <path class="cls-1" d="M185.34,95.33c-8.22,0-8.9,10.46-8.9,10.46h4.74c0-8.3,4.16-10.46,4.16-10.46"/>
  <path class="cls-1" d="M206.68,95.33s4.16,2.16,4.16,10.46h4.75s-.68-10.46-8.91-10.46"/>
  <path class="cls-1" d="M193.54,95.33h-7.23s-4.15,2.16-4.15,10.46h13.49c0-8.59-2.11-10.46-2.11-10.46"/>
  <path class="cls-1" d="M199.37,95.33h-4.87s2.12,1.87,2.12,10.46h4.68c0-8.7-1.93-10.46-1.93-10.46"/>
  <path class="cls-18" d="M187.85,216.08c-.2.15-.37.34-.55.53.27.19.51.32.59.28l-.04-.8Z"/>
  <path class="cls-5" d="M187.85,216.08c-.2.15-.37.34-.55.53.27.19.51.32.59.28l-.04-.8Z"/>
  <path class="cls-18" d="M187.88,216.88l2.84-1.29c-.1.06-.49-.37-.86-.91-.71.4-1.39.87-2.01,1.41l.04.8Z"/>
  <path class="cls-5" d="M187.88,216.88l2.84-1.29c-.1.06-.49-.37-.86-.91-.71.4-1.39.87-2.01,1.41l.04.8Z"/>
  <path class="cls-1" d="M178.96,227.28c-3.91-2.69-4.55-9.86-5.06-14.09-.97-8.2,1.35-17.18-4.76-23.91-1.73-1.92-3.26-3.97-4.66-6.13-1.52-2.27-2.92-4.61-4.2-7.01-2.43-2-3.72-.48-3.72-.48-2.16,2.08-1.51,4.83-.25,7.16.89.94,1.76,1.88,2.64,2.81,1.25,1.36,2.48,2.73,3.58,4.16,2.24,2.92,4.04,6.11,4.69,10.05.52,3.09.38,6.43.47,9.57.22,8.01,2.24,18.82,10.88,21.96.11.01.38.06.7.14,1.17.22,3.29.52,3.41.1.57-2.14-2.36-3.39-3.74-4.32"/>
  <path class="cls-3" d="M178.96,227.28c-3.91-2.69-4.55-9.86-5.06-14.09-.97-8.2,1.35-17.18-4.76-23.91-1.73-1.92-3.26-3.97-4.66-6.13-1.52-2.27-2.92-4.61-4.2-7.01-2.43-2-3.72-.48-3.72-.48-2.16,2.08-1.51,4.83-.25,7.16.89.94,1.76,1.88,2.64,2.81,1.25,1.36,2.48,2.73,3.58,4.16,2.24,2.92,4.04,6.11,4.69,10.05.52,3.09.38,6.43.47,9.57.22,8.01,2.24,18.82,10.88,21.96.11.01.38.06.7.14,1.17.22,3.29.52,3.41.1.57-2.14-2.36-3.39-3.74-4.32Z"/>
  <path class="cls-1" d="M122.33,170.11s-10.54-.54-6.83,11c0,0,1.09,7.99,13.15,16.37l7.77-7.86-11.56-16.62-2.53-2.89Z"/>
  <path class="cls-3" d="M122.33,170.11s-10.54-.54-6.83,11c0,0,1.09,7.99,13.15,16.37l7.77-7.86-11.56-16.62-2.53-2.89Z"/>
  <path class="cls-1" d="M149.88,215.13s-29.16-17.21-22.33-23.76c6.83-6.55,26.84,8.11,26.84,8.11l1.56,9.98-6.06,5.67Z"/>
  <path class="cls-3" d="M149.88,215.13s-29.16-17.21-22.33-23.76c6.83-6.55,26.84,8.11,26.84,8.11l1.56,9.98-6.06,5.67Z"/>
  <path class="cls-1" d="M152.77,241.12s-14.32,4.02-13.76-3.24c.08-1.06,1.43-2.07,2.26-2.46.76-.35,1.61-.55,2.44-.73,2.06-.48,4.23-.48,6.32-.34.85.02,1.69.09,2.53.2.78.09,2.04.03,2.75.37,0,0,8.64,4.14,13.74,8.12l6.14,1.87-2.26,5.55c-.08.19-1,.49-1.19.57-.99.47-1.99.91-3.01,1.31-2.76,1.11-6.06,2.3-9.09,1.65-1-.2-2.12-.67-2.67-1.58-1.15-1.98.87-4.44,2.13-5.83-1.07,1.51-2.86,2.68-4.59,3.24-2.07.7-3.7.95-5.47-.36-2.09-1.52-.3-4.26.87-5.7l2.86-2.63Z"/>
  <path class="cls-3" d="M152.77,241.12s-14.32,4.02-13.76-3.24c.08-1.06,1.43-2.07,2.26-2.46.76-.35,1.61-.55,2.44-.73,2.06-.48,4.23-.48,6.32-.34.85.02,1.69.09,2.53.2.78.09,2.04.03,2.75.37,0,0,8.64,4.14,13.74,8.12l6.14,1.87-2.26,5.55c-.08.19-1,.49-1.19.57-.99.47-1.99.91-3.01,1.31-2.76,1.11-6.06,2.3-9.09,1.65-1-.2-2.12-.67-2.67-1.58-1.15-1.98.87-4.44,2.13-5.83-1.07,1.51-2.86,2.68-4.59,3.24-2.07.7-3.7.95-5.47-.36-2.09-1.52-.3-4.26.87-5.7l2.86-2.63Z"/>
  <path class="cls-2" d="M129.44,158.48s-8.93-.34-7.95,12.75c0,0,.3,9.76,7.95,13.9l11.83,1.1,2.88-5.69-6.81-12.92-3.58-4.83"/>
  <path class="cls-1" d="M134.75,149.18c-1.17-.73-4.34,1.15-5.13,1.85-2.28,2.04-2.61,7.63-2.35,10.39.29,2.7,1.06,5.38,1.8,8,1.53,5.3,5.08,10.02,9.8,12.88,1.73,1.05,3.58,1.8,5.52,2.38.85.26,6.74,1.05,6.95,1.56-.01-.01-7.18-18.98-7.18-18.98l-5.14-15.48s-4.25-2.59-4.26-2.59"/>
  <path class="cls-3" d="M134.75,149.18c-1.17-.73-4.34,1.15-5.13,1.85-2.28,2.04-2.61,7.63-2.35,10.39.29,2.7,1.06,5.38,1.8,8,1.53,5.3,5.08,10.02,9.8,12.88,1.73,1.05,3.58,1.8,5.52,2.38.85.26,6.74,1.05,6.95,1.56-.01-.01-7.18-18.98-7.18-18.98l-5.14-15.48s-4.25-2.59-4.26-2.59Z"/>
  <path class="cls-1" d="M147.03,138.67s-9.75-4.61-12.15,9.6c0,0-2.56,12.76,7.83,31.44l13.72,7.98,1.15-6.06-3.19-11.51-5.94-20.25,1.45-7.81-2.87-3.38Z"/>
  <path class="cls-3" d="M147.03,138.67s-9.75-4.61-12.15,9.6c0,0-2.56,12.76,7.83,31.44l13.72,7.98,1.15-6.06-3.19-11.51-5.94-20.25,1.45-7.81-2.87-3.38Z"/>
  <path class="cls-1" d="M154.4,200.92s-13.69-6.16-18.36-9.88c0,0-11.43-6.84-3.25-11.27,0,0,4.45-3.33,14.98,4.19l12.41,9.22-5.79,7.74Z"/>
  <path class="cls-3" d="M154.4,200.92s-13.69-6.16-18.36-9.88c0,0-11.43-6.84-3.25-11.27,0,0,4.45-3.33,14.98,4.19l12.41,9.22-5.79,7.74Z"/>
  <path class="cls-1" d="M169.05,206.34c.14-.29-1.69-2.41-1.87-2.65-4-5.25-9.2-9.32-14.55-13.12-3.98-2.8-8.46-5.4-11.67-9.12-1.28-1.49-2.87-3.82-1.29-5.7,2.55-3.04,9.05.3,11.33,2.18,4.94,4.09,9.65,8.76,13.49,13.93,2.87,3.85,6.97,9.45,4.57,14.48"/>
  <path class="cls-3" d="M169.05,206.34c.14-.29-1.69-2.41-1.87-2.65-4-5.25-9.2-9.32-14.55-13.12-3.98-2.8-8.46-5.4-11.67-9.12-1.28-1.49-2.87-3.82-1.29-5.7,2.55-3.04,9.05.3,11.33,2.18,4.94,4.09,9.65,8.76,13.49,13.93,2.87,3.85,6.97,9.45,4.57,14.48Z"/>
  <path class="cls-1" d="M155.62,235.98s-28.45-7.35-21.97-14.9c0,0,.32-1.54,7.59-1.97l30.45-.46,2.21,10.93-7.34,7.92-10.94-1.51Z"/>
  <path class="cls-3" d="M155.62,235.98s-28.45-7.35-21.97-14.9c0,0,.32-1.54,7.59-1.97l30.45-.46,2.21,10.93-7.34,7.92-10.94-1.51Z"/>
  <path class="cls-1" d="M164.44,219.61c-.88-.17-1.74-.46-2.54-.86-6.26-3.13-11.78-7.73-17.95-11.09-1.7-.94-3.45-1.78-5.25-2.52-4.5-1.75-12.54-2.7-10.71,4.91.45,1.83,1.54,3.39,2.74,4.77,4.5,5.18,11.08,8.18,17.78,9.09,7.37.96,14.27,3.03,21.25,5.4l5.42-4.68s-1.24-3.53-1.29-3.67c-.04-.15-2.09-.28-2.28-.32-1.48-.17-2.96-.37-4.43-.6-.98-.16-1.87-.26-2.75-.43"/>
  <path class="cls-3" d="M164.44,219.61c-.88-.17-1.74-.46-2.54-.86-6.26-3.13-11.78-7.73-17.95-11.09-1.7-.94-3.45-1.78-5.25-2.52-4.5-1.75-12.54-2.7-10.71,4.91.45,1.83,1.54,3.39,2.74,4.77,4.5,5.18,11.08,8.18,17.78,9.09,7.37.96,14.27,3.03,21.25,5.4l5.42-4.68s-1.24-3.53-1.29-3.67c-.04-.15-2.09-.28-2.28-.32-1.48-.17-2.96-.37-4.43-.6-.98-.16-1.87-.26-2.75-.43Z"/>
  <path class="cls-1" d="M173.79,221.72c-.03.34-11.21-1.61-11.99-1.8-7.04-1.69-13.18-4.48-15.91-8.93-1.4-2.31-.88-4.99,2.07-6.4,3.6-1.73,8.9-.54,12.55,1.31l13.39,10.69-.05,4.68-.05.44Z"/>
  <path class="cls-3" d="M173.79,221.72c-.03.34-11.21-1.61-11.99-1.8-7.04-1.69-13.18-4.48-15.91-8.93-1.4-2.31-.88-4.99,2.07-6.4,3.6-1.73,8.9-.54,12.55,1.31l13.39,10.69-.05,4.68-.05.44Z"/>
  <path class="cls-1" d="M170.6,220.09s-16.4-3.77-9.05-9.31c0,0,11.71-1.86,10.38,3.7l-1.33,5.6Z"/>
  <path class="cls-3" d="M170.6,220.09s-16.4-3.77-9.05-9.31c0,0,11.71-1.86,10.38,3.7l-1.33,5.6Z"/>
  <path class="cls-1" d="M169.17,236.52s-8.71.6-7.27,6.21c0,0,1.82,5.78,11.33,1.93l3.65-4.4-2.34-2.77-4.77-.97h-.6Z"/>
  <path class="cls-3" d="M169.17,236.52s-8.71.6-7.27,6.21c0,0,1.82,5.78,11.33,1.93l3.65-4.4-2.34-2.77-4.77-.97h-.6Z"/>
  <path class="cls-1" d="M188.81,244.23c-.98,0-2.14.2-3.65.62,0,0-13.47,8.97-4.69,13.18,0,0,3.32,1.78,8.34-3.23v-10.57Z"/>
  <path class="cls-3" d="M188.81,244.23c-.98,0-2.14.2-3.65.62,0,0-13.47,8.97-4.69,13.18,0,0,3.32,1.78,8.34-3.23v-10.57Z"/>
  <path class="cls-1" d="M173.9,242.47s-13.47,8.95-4.69,13.16c0,0,4.64,2.5,11.19-6.57,0,0,4.18-9.76-6.5-6.58"/>
  <path class="cls-3" d="M173.9,242.47s-13.47,8.95-4.69,13.16c0,0,4.64,2.5,11.19-6.57,0,0,4.18-9.76-6.5-6.58Z"/>
  <path class="cls-1" d="M167.9,238.64s-13.77,2.9-12.98-4.38c0,0,.39-4.92,12.98-1.27,0,0,9.44,3.11,7.29,3.82l-7.29,1.83Z"/>
  <path class="cls-3" d="M167.9,238.64s-13.77,2.9-12.98-4.38c0,0,.39-4.92,12.98-1.27,0,0,9.44,3.11,7.29,3.82l-7.29,1.83Z"/>
  <path class="cls-1" d="M175.51,225.91s-20.66-2.69-20.63,2.84c0,0-.81,4.24,10.34,4.58l11.66-1.7-1.38-5.73Z"/>
  <path class="cls-3" d="M175.51,225.91s-20.66-2.69-20.63,2.84c0,0-.81,4.24,10.34,4.58l11.66-1.7-1.38-5.73Z"/>
  <path class="cls-1" d="M171.17,220.09c-.27-.31-.95-.42-1.28-.56-1.05-.46-2.07-.9-3.19-1.22-2.95-.9-7.3-2.69-9.88-.04-.63.68-1.13,2.6-.74,3.46.74,1.67,2.27,2.7,3.8,3.59,1.68.97,3.5,1.76,5.34,2.44,12.77,4.8,8.51.44,8.51.44l-1.02-6.5-1.53-1.61Z"/>
  <path class="cls-3" d="M171.17,220.09c-.27-.31-.95-.42-1.28-.56-1.05-.46-2.07-.9-3.19-1.22-2.95-.9-7.3-2.69-9.88-.04-.63.68-1.13,2.6-.74,3.46.74,1.67,2.27,2.7,3.8,3.59,1.68.97,3.5,1.76,5.34,2.44,12.77,4.8,8.51.44,8.51.44l-1.02-6.5-1.53-1.61Z"/>
  <path class="cls-1" d="M181.2,240.43s-11.53-1.3-10.21,6.04c0,0,1.2,5.99,9.72,2.04,8.49-3.96.49-8.08.49-8.08"/>
  <path class="cls-3" d="M181.2,240.43s-11.53-1.3-10.21,6.04c0,0,1.2,5.99,9.72,2.04,8.49-3.96.49-8.08.49-8.08Z"/>
  <path class="cls-1" d="M188.66,242.19s-11.15-1.3-9.83,6.04c0,0,1.18,6,9.68,2.06l.15-8.1Z"/>
  <path class="cls-3" d="M188.66,242.19s-11.15-1.3-9.83,6.04c0,0,1.18,6,9.68,2.06l.15-8.1Z"/>
  <path class="cls-1" d="M171.14,214.01s-21.06-4.06-20.55-20.03c0,0-.02-8.93,22.11,12.04l-1.56,7.99Z"/>
  <path class="cls-3" d="M171.14,214.01s-21.06-4.06-20.55-20.03c0,0-.02-8.93,22.11,12.04l-1.56,7.99Z"/>
  <path class="cls-1" d="M179.07,234.69s-8.73-1.85-8.79,2.51c0,0-2.05,7.39,9.1,4.64,0,0,3.31-4.33,1.8-5.47-.72-.54-1.43-1.1-2.12-1.68"/>
  <path class="cls-3" d="M179.07,234.69s-8.73-1.85-8.79,2.51c0,0-2.05,7.39,9.1,4.64,0,0,3.31-4.33,1.8-5.47-.72-.54-1.43-1.1-2.12-1.68Z"/>
  <path class="cls-1" d="M188.45,244.26v-6.82c-.29-.2-.58-.38-.88-.55,0,0-11.53-1.29-10.25,6.06,0,0,1.21,5.97,9.72,2.02.48-.22.95-.45,1.41-.72"/>
  <path class="cls-3" d="M188.45,244.26v-6.82c-.29-.2-.58-.38-.88-.55,0,0-11.53-1.29-10.25,6.06,0,0,1.21,5.97,9.72,2.02.48-.22.95-.45,1.41-.72Z"/>
  <path class="cls-1" d="M173.44,225.77c-.56-.15-1.14-.24-1.72-.29-2.87-.29-5.03,1.87-4.6,4.72.31,1.92,1.96,3.36,3.57,4.24,3.51,1.9,7.56,1.34,11.34.9,0,0-1.29-4.74-1.32-4.88-.33-1.2-2.53-2.29-3.49-2.97-1.16-.79-2.43-1.37-3.78-1.74"/>
  <path class="cls-3" d="M173.44,225.77c-.56-.15-1.14-.24-1.72-.29-2.87-.29-5.03,1.87-4.6,4.72.31,1.92,1.96,3.36,3.57,4.24,3.51,1.9,7.56,1.34,11.34.9,0,0-1.29-4.74-1.32-4.88-.33-1.2-2.53-2.29-3.49-2.97-1.16-.79-2.43-1.37-3.78-1.74Z"/>
  <path class="cls-1" d="M179.63,230.41c-.57.12-1.12.29-1.66.49-2.72,1-3.7,3.91-2.04,6.27,1.09,1.58,3.23,2.17,5.04,2.22,3.99.17,4.23-.15,7.47-2.2,0,0,0-5.5-.22-5.75-.8-.92-3.26-.94-4.44-1.11-1.38-.23-2.79-.2-4.16.08"/>
  <path class="cls-3" d="M179.63,230.41c-.57.12-1.12.29-1.66.49-2.72,1-3.7,3.91-2.04,6.27,1.09,1.58,3.23,2.17,5.04,2.22,3.99.17,4.23-.15,7.47-2.2,0,0,0-5.5-.22-5.75-.8-.92-3.26-.94-4.44-1.11-1.38-.23-2.79-.2-4.16.08Z"/>
  <path class="cls-1" d="M170.77,206.34s-20.68-12.5-18.36-20.4c0,0,1.84-6.55,11.49,0,0,0,4.95,5.43,6.86,12.75l1.26,3.72-1.26,3.93Z"/>
  <path class="cls-3" d="M170.77,206.34s-20.68-12.5-18.36-20.4c0,0,1.84-6.55,11.49,0,0,0,4.95,5.43,6.86,12.75l1.26,3.72-1.26,3.93Z"/>
  <path class="cls-1" d="M170.09,208.65s-10.43-3.91-9.65.69c0,0,.4,3.59,8.34,3.86,7.96.25,1.31-4.55,1.31-4.55"/>
  <path class="cls-3" d="M170.09,208.65s-10.43-3.91-9.65.69c0,0,.4,3.59,8.34,3.86,7.96.25,1.31-4.55,1.31-4.55Z"/>
  <path class="cls-1" d="M179.28,231.51c-.23-.06-.46-.11-.7-.14-8.64-3.13-10.67-13.94-10.88-21.96-.09-3.14.05-6.48-.47-9.57-1.24-7.54-6.61-12.37-11.52-17.66-5.03-5.41-8.41-11.93-9.97-19.16-.96-4.62-1.26-9.3-1.35-14.01-.05-3.26-.73-6.33.55-9.44,1.1-2.65,3.28-4.18,5.74-5.4,1.92-.94,5.06-1.97,6.46.34,1.7,2.85-1.03,6.98-1.69,9.71-2.39,9.92-.8,21.1,3.87,30.12,2.75,5.3,5.83,10.51,9.82,14.94,6.12,6.74,3.79,15.72,4.76,23.91.51,4.23,1.15,11.39,5.06,14.09,1.37.94,9.44,2.25,8.9,4.36-.11.44-7.4.1-8.57-.13"/>
  <path class="cls-3" d="M179.28,231.51c-.23-.06-.46-.11-.7-.14-8.64-3.13-10.67-13.94-10.88-21.96-.09-3.14.05-6.48-.47-9.57-1.24-7.54-6.61-12.37-11.52-17.66-5.03-5.41-8.41-11.93-9.97-19.16-.96-4.62-1.26-9.3-1.35-14.01-.05-3.26-.73-6.33.55-9.44,1.1-2.65,3.28-4.18,5.74-5.4,1.92-.94,5.06-1.97,6.46.34,1.7,2.85-1.03,6.98-1.69,9.71-2.39,9.92-.8,21.1,3.87,30.12,2.75,5.3,5.83,10.51,9.82,14.94,6.12,6.74,3.79,15.72,4.76,23.91.51,4.23,1.15,11.39,5.06,14.09,1.37.94,9.44,2.25,8.9,4.36-.11.44-7.4.1-8.57-.13Z"/>
  <path class="cls-1" d="M269.93,170.11s10.54-.54,6.81,11c0,0-1.08,7.99-13.12,16.37l-7.81-7.86,11.59-16.62,2.54-2.89Z"/>
  <path class="cls-3" d="M269.93,170.11s10.54-.54,6.81,11c0,0-1.08,7.99-13.12,16.37l-7.81-7.86,11.59-16.62,2.54-2.89Z"/>
  <path class="cls-1" d="M242.39,215.13s29.12-17.21,22.33-23.76c-6.84-6.55-26.83,8.11-26.83,8.11l-1.58,9.98,6.08,5.67Z"/>
  <path class="cls-3" d="M242.39,215.13s29.12-17.21,22.33-23.76c-6.84-6.55-26.83,8.11-26.83,8.11l-1.58,9.98,6.08,5.67Z"/>
  <path class="cls-1" d="M239.5,241.12s14.3,4.02,13.74-3.24c-.09-1.06-1.41-2.07-2.24-2.46-.79-.35-1.65-.55-2.44-.73-2.07-.48-4.25-.48-6.34-.34-.85.02-1.69.09-2.53.2-.78.09-2.04.03-2.75.37,0,0-8.63,4.14-13.72,8.12l-6.16,1.87,2.26,5.55c.1.19,1.01.49,1.21.57,1,.47,2,.93,3.03,1.31,2.74,1.11,6.05,2.3,9.05,1.65.98-.2,2.13-.67,2.67-1.58,1.15-1.98-.85-4.44-2.12-5.83,1.05,1.51,2.85,2.68,4.59,3.24,2.11.7,3.7.95,5.51-.36,2.03-1.52.25-4.26-.92-5.7l-2.81-2.63Z"/>
  <path class="cls-3" d="M239.5,241.12s14.3,4.02,13.74-3.24c-.09-1.06-1.41-2.07-2.24-2.46-.79-.35-1.65-.55-2.44-.73-2.07-.48-4.25-.48-6.34-.34-.85.02-1.69.09-2.53.2-.78.09-2.04.03-2.75.37,0,0-8.63,4.14-13.72,8.12l-6.16,1.87,2.26,5.55c.1.19,1.01.49,1.21.57,1,.47,2,.93,3.03,1.31,2.74,1.11,6.05,2.3,9.05,1.65.98-.2,2.13-.67,2.67-1.58,1.15-1.98-.85-4.44-2.12-5.83,1.05,1.51,2.85,2.68,4.59,3.24,2.11.7,3.7.95,5.51-.36,2.03-1.52.25-4.26-.92-5.7l-2.81-2.63Z"/>
  <path class="cls-2" d="M262.8,158.48s8.92-.34,7.98,12.75c0,0-.31,9.76-7.98,13.9l-11.8,1.1-2.92-5.69,6.82-12.92,3.58-4.83"/>
  <path class="cls-1" d="M257.5,149.18c1.2-.73,4.37,1.15,5.11,1.85,2.3,2.04,2.64,7.63,2.35,10.39-.27,2.7-1.03,5.38-1.78,8-1.51,5.3-5.09,10.02-9.8,12.88-1.73,1.05-3.6,1.8-5.52,2.38-.85.26-6.72,1.05-6.93,1.56,0-.01,7.15-18.98,7.15-18.98l5.16-15.48,4.26-2.59Z"/>
  <path class="cls-3" d="M257.5,149.18c1.2-.73,4.37,1.15,5.11,1.85,2.3,2.04,2.64,7.63,2.35,10.39-.27,2.7-1.03,5.38-1.78,8-1.51,5.3-5.09,10.02-9.8,12.88-1.73,1.05-3.6,1.8-5.52,2.38-.85.26-6.72,1.05-6.93,1.56,0-.01,7.15-18.98,7.15-18.98l5.16-15.48,4.26-2.59Z"/>
  <path class="cls-1" d="M245.24,138.67s9.73-4.61,12.12,9.6c0,0,2.56,12.76-7.83,31.44l-13.73,7.98-1.15-6.06,3.19-11.51,5.96-20.25-1.44-7.81,2.87-3.38Z"/>
  <path class="cls-3" d="M245.24,138.67s9.73-4.61,12.12,9.6c0,0,2.56,12.76-7.83,31.44l-13.73,7.98-1.15-6.06,3.19-11.51,5.96-20.25-1.44-7.81,2.87-3.38Z"/>
  <path class="cls-1" d="M237.85,200.92s13.69-6.16,18.34-9.88c0,0,11.43-6.84,3.26-11.27,0,0-4.44-3.33-15,4.19l-12.38,9.22,5.78,7.74Z"/>
  <path class="cls-3" d="M237.85,200.92s13.69-6.16,18.34-9.88c0,0,11.43-6.84,3.26-11.27,0,0-4.44-3.33-15,4.19l-12.38,9.22,5.78,7.74Z"/>
  <path class="cls-1" d="M223.21,206.34c-.16-.29,1.7-2.41,1.85-2.65,4.01-5.25,9.19-9.32,14.57-13.12,3.96-2.8,8.43-5.4,11.64-9.12,1.29-1.49,2.91-3.82,1.31-5.7-2.55-3.04-9.07.3-11.33,2.18-4.94,4.09-9.63,8.76-13.46,13.93-2.89,3.85-7,9.45-4.57,14.48"/>
  <path class="cls-3" d="M223.21,206.34c-.16-.29,1.7-2.41,1.85-2.65,4.01-5.25,9.19-9.32,14.57-13.12,3.96-2.8,8.43-5.4,11.64-9.12,1.29-1.49,2.91-3.82,1.31-5.7-2.55-3.04-9.07.3-11.33,2.18-4.94,4.09-9.63,8.76-13.46,13.93-2.89,3.85-7,9.45-4.57,14.48Z"/>
  <path class="cls-1" d="M236.63,235.98s28.46-7.35,21.98-14.9c0,0-.32-1.54-7.59-1.97l-30.45-.46-2.23,10.93,7.36,7.92,10.94-1.51Z"/>
  <path class="cls-3" d="M236.63,235.98s28.46-7.35,21.98-14.9c0,0-.32-1.54-7.59-1.97l-30.45-.46-2.23,10.93,7.36,7.92,10.94-1.51Z"/>
  <path class="cls-1" d="M227.82,219.61c.89-.17,1.74-.46,2.55-.86,6.26-3.13,11.75-7.73,17.91-11.09,1.71-.94,3.47-1.78,5.28-2.52,4.48-1.75,12.53-2.7,10.72,4.91-.46,1.83-1.57,3.39-2.79,4.77-4.48,5.18-11.06,8.18-17.76,9.09-7.35.96-14.24,3.03-21.26,5.4l-5.42-4.68s1.25-3.53,1.29-3.67c.07-.15,2.09-.28,2.28-.32,1.49-.17,2.97-.37,4.45-.6.97-.16,1.88-.26,2.75-.43"/>
  <path class="cls-3" d="M227.82,219.61c.89-.17,1.74-.46,2.55-.86,6.26-3.13,11.75-7.73,17.91-11.09,1.71-.94,3.47-1.78,5.28-2.52,4.48-1.75,12.53-2.7,10.72,4.91-.46,1.83-1.57,3.39-2.79,4.77-4.48,5.18-11.06,8.18-17.76,9.09-7.35.96-14.24,3.03-21.26,5.4l-5.42-4.68s1.25-3.53,1.29-3.67c.07-.15,2.09-.28,2.28-.32,1.49-.17,2.97-.37,4.45-.6.97-.16,1.88-.26,2.75-.43Z"/>
  <path class="cls-1" d="M218.45,221.72c.04.34,11.22-1.61,12-1.8,7.05-1.69,13.18-4.48,15.91-8.93,1.4-2.31.89-4.99-2.07-6.4-3.6-1.73-8.92-.54-12.54,1.31l-13.41,10.69.07,4.68.05.44Z"/>
  <path class="cls-3" d="M218.45,221.72c.04.34,11.22-1.61,12-1.8,7.05-1.69,13.18-4.48,15.91-8.93,1.4-2.31.89-4.99-2.07-6.4-3.6-1.73-8.92-.54-12.54,1.31l-13.41,10.69.07,4.68.05.44Z"/>
  <path class="cls-1" d="M221.65,220.09s16.4-3.77,9.05-9.31c0,0-11.72-1.86-10.38,3.7l1.33,5.6Z"/>
  <path class="cls-3" d="M221.65,220.09s16.4-3.77,9.05-9.31c0,0-11.72-1.86-10.38,3.7l1.33,5.6Z"/>
  <path class="cls-1" d="M224.37,238.64s13.77,2.9,12.98-4.38c0,0-.4-4.92-12.98-1.27,0,0-9.46,3.11-7.32,3.82l7.32,1.83Z"/>
  <path class="cls-3" d="M224.37,238.64s13.77,2.9,12.98-4.38c0,0-.4-4.92-12.98-1.27,0,0-9.46,3.11-7.32,3.82l7.32,1.83Z"/>
  <path class="cls-1" d="M216.72,225.91s20.69-2.69,20.66,2.84c0,0,.81,4.24-10.33,4.58l-11.67-1.7,1.34-5.73Z"/>
  <path class="cls-3" d="M216.72,225.91s20.69-2.69,20.66,2.84c0,0,.81,4.24-10.33,4.58l-11.67-1.7,1.34-5.73Z"/>
  <path class="cls-1" d="M221.07,220.09c.25-.31.92-.42,1.27-.56,1.07-.46,2.09-.9,3.2-1.22,2.95-.9,7.3-2.69,9.86-.04.65.68,1.16,2.6.77,3.46-.77,1.67-2.28,2.7-3.81,3.59-1.66.97-3.48,1.76-5.31,2.44-12.79,4.8-8.53.44-8.53.44l1.04-6.5,1.51-1.61Z"/>
  <path class="cls-3" d="M221.07,220.09c.25-.31.92-.42,1.27-.56,1.07-.46,2.09-.9,3.2-1.22,2.95-.9,7.3-2.69,9.86-.04.65.68,1.16,2.6.77,3.46-.77,1.67-2.28,2.7-3.81,3.59-1.66.97-3.48,1.76-5.31,2.44-12.79,4.8-8.53.44-8.53.44l1.04-6.5,1.51-1.61Z"/>
  <path class="cls-1" d="M223.07,236.52s8.7.6,7.28,6.21c0,0-1.84,5.78-11.33,1.93l-3.63-4.4,2.31-2.77,4.77-.97h.61Z"/>
  <path class="cls-3" d="M223.07,236.52s8.7.6,7.28,6.21c0,0-1.84,5.78-11.33,1.93l-3.63-4.4,2.31-2.77,4.77-.97h.61Z"/>
  <path class="cls-1" d="M218.33,242.77s13.5,8.91,4.71,13.14c0,0-4.64,2.47-11.18-6.57,0,0-4.21-9.8,6.47-6.57"/>
  <path class="cls-3" d="M218.33,242.77s13.5,8.91,4.71,13.14c0,0-4.64,2.47-11.18-6.57,0,0-4.21-9.8,6.47-6.57Z"/>
  <path class="cls-1" d="M203.46,243.1c.98,0,2.15.2,3.66.64,0,0,13.49,8.93,4.68,13.16,0,0-3.31,1.76-8.34-3.21v-10.59Z"/>
  <path class="cls-3" d="M203.46,243.1c.98,0,2.15.2,3.66.64,0,0,13.49,8.93,4.68,13.16,0,0-3.31,1.76-8.34-3.21v-10.59Z"/>
  <path class="cls-1" d="M221.09,214.01s21.06-4.06,20.57-20.03c0,0,0-8.93-22.1,12.04l1.53,7.99Z"/>
  <path class="cls-3" d="M221.09,214.01s21.06-4.06,20.57-20.03c0,0,0-8.93-22.1,12.04l1.53,7.99Z"/>
  <path class="cls-1" d="M221.48,206.34s20.68-12.5,18.36-20.4c0,0-1.82-6.55-11.5,0,0,0-4.92,5.43-6.86,12.75l-1.28,3.72,1.28,3.93Z"/>
  <path class="cls-3" d="M221.48,206.34s20.68-12.5,18.36-20.4c0,0-1.82-6.55-11.5,0,0,0-4.92,5.43-6.86,12.75l-1.28,3.72,1.28,3.93Z"/>
  <path class="cls-1" d="M222.18,208.65s10.41-3.91,9.63.69c0,0-.39,3.59-8.32,3.86-7.98.25-1.3-4.55-1.3-4.55"/>
  <path class="cls-3" d="M222.18,208.65s10.41-3.91,9.63.69c0,0-.39,3.59-8.32,3.86-7.98.25-1.3-4.55-1.3-4.55Z"/>
  <path class="cls-1" d="M211.05,240.72s11.51-1.33,10.21,6.04c0,0-1.19,5.98-9.7,2.04-8.51-3.96-.51-8.08-.51-8.08"/>
  <path class="cls-3" d="M211.05,240.72s11.51-1.33,10.21,6.04c0,0-1.19,5.98-9.7,2.04-8.51-3.96-.51-8.08-.51-8.08Z"/>
  <path class="cls-1" d="M203.6,246.88v-7.11c.25-.16.5-.31.76-.44,0,0,11.51-1.32,10.21,6.03,0,0-1.2,5.98-9.72,2.04-.37-.19-.95-.35-1.25-.51"/>
  <path class="cls-3" d="M203.6,246.88v-7.11c.25-.16.5-.31.76-.44,0,0,11.51-1.32,10.21,6.03,0,0-1.2,5.98-9.72,2.04-.37-.19-.95-.35-1.25-.51Z"/>
  <path class="cls-1" d="M212.99,231.51c.22-.06.45-.11.68-.14,8.64-3.13,10.67-13.94,10.89-21.96.08-3.14-.05-6.48.47-9.57,1.25-7.54,6.59-12.37,11.52-17.66,5.01-5.36,8.45-11.98,9.95-19.16.99-4.62,1.28-9.3,1.36-14.01.07-3.26.71-6.33-.54-9.44-1.11-2.65-3.26-4.18-5.73-5.4-1.93-.94-5.07-1.97-6.47.34-1.71,2.85,1,6.98,1.69,9.71,2.39,9.92.8,21.1-3.88,30.12-2.73,5.3-5.81,10.51-9.84,14.94-6.09,6.74-3.78,15.72-4.76,23.91-.49,4.23-1.15,11.39-5.04,14.09-1.38.94-4.28,2.18-3.76,4.32.12.43,2.26.13,3.45-.09"/>
  <path class="cls-3" d="M212.99,231.51c.22-.06.45-.11.68-.14,8.64-3.13,10.67-13.94,10.89-21.96.08-3.14-.05-6.48.47-9.57,1.25-7.54,6.59-12.37,11.52-17.66,5.01-5.36,8.45-11.98,9.95-19.16.99-4.62,1.28-9.3,1.36-14.01.07-3.26.71-6.33-.54-9.44-1.11-2.65-3.26-4.18-5.73-5.4-1.93-.94-5.07-1.97-6.47.34-1.71,2.85,1,6.98,1.69,9.71,2.39,9.92.8,21.1-3.88,30.12-2.73,5.3-5.81,10.51-9.84,14.94-6.09,6.74-3.78,15.72-4.76,23.91-.49,4.23-1.15,11.39-5.04,14.09-1.38.94-4.28,2.18-3.76,4.32.12.43,2.26.13,3.45-.09Z"/>
  <path class="cls-1" d="M213.16,234.97s8.74-1.86,8.8,2.53c0,0,2.03,7.38-9.1,4.62,0,0-3.33-4.33-1.8-5.46,1.51-1.14,2.11-1.68,2.11-1.68"/>
  <path class="cls-3" d="M213.16,234.97s8.74-1.86,8.8,2.53c0,0,2.03,7.38-9.1,4.62,0,0-3.33-4.33-1.8-5.46,1.51-1.14,2.11-1.68,2.11-1.68Z"/>
  <path class="cls-1" d="M203.6,236.76c0-1.33,1.78-1.43,1.78-1.43,0,0,8.77-1.87,8.8,2.51,0,0,2.05,7.39-9.08,4.62,0,0-1.5-.63-1.48-2.29v-3.41Z"/>
  <path class="cls-3" d="M203.6,236.76c0-1.33,1.78-1.43,1.78-1.43,0,0,8.77-1.87,8.8,2.51,0,0,2.05,7.39-9.08,4.62,0,0-1.5-.63-1.48-2.29v-3.41Z"/>
  <path class="cls-1" d="M218.81,225.77c.54-.15,1.14-.24,1.72-.29,2.89-.29,5.03,1.87,4.58,4.72-.29,1.92-1.96,3.36-3.56,4.24-3.48,1.9-7.52,1.34-11.31.9,0,0,1.28-4.74,1.31-4.88.32-1.2,2.55-2.29,3.48-2.97,1.16-.79,2.44-1.37,3.79-1.74"/>
  <path class="cls-3" d="M218.81,225.77c.54-.15,1.14-.24,1.72-.29,2.89-.29,5.03,1.87,4.58,4.72-.29,1.92-1.96,3.36-3.56,4.24-3.48,1.9-7.52,1.34-11.31.9,0,0,1.28-4.74,1.31-4.88.32-1.2,2.55-2.29,3.48-2.97,1.16-.79,2.44-1.37,3.79-1.74Z"/>
  <path class="cls-1" d="M212.05,228.78c.58.05,1.16.12,1.74.24,2.82.62,4.21,3.35,2.92,5.93-.86,1.71-2.87,2.59-4.69,2.94-2.92.56-5.68-.29-8.37-1.39,0,0,.39-5.77.48-5.88,1.1-1.3,2.68-.98,3.79-1.32,1.34-.39,2.76-.6,4.14-.51"/>
  <path class="cls-3" d="M212.05,228.78c.58.05,1.16.12,1.74.24,2.82.62,4.21,3.35,2.92,5.93-.86,1.71-2.87,2.59-4.69,2.94-2.92.56-5.68-.29-8.37-1.39,0,0,.39-5.77.48-5.88,1.1-1.3,2.68-.98,3.79-1.32,1.34-.39,2.76-.6,4.14-.51Z"/>
  <path class="cls-1" d="M213.3,227.28c3.89-2.69,4.55-9.86,5.04-14.09.97-8.2-1.34-17.18,4.75-23.91,1.76-1.92,3.26-3.97,4.71-6.13,1.49-2.27,2.88-4.61,4.16-7.01,2.46-2,3.72-.48,3.72-.48,2.17,2.08,1.54,4.83.26,7.16-.86.94-1.77,1.88-2.62,2.81-1.26,1.36-2.48,2.73-3.6,4.16-2.24,2.92-4.02,6.11-4.69,10.05-.52,3.09-.39,6.43-.47,9.57-.22,8.01-2.25,18.82-10.89,21.96-.23.03-.46.08-.68.14-1.19.22-8.31.52-8.42.1-.54-2.14,7.35-3.39,8.73-4.32"/>
  <path class="cls-3" d="M213.3,227.28c3.89-2.69,4.55-9.86,5.04-14.09.97-8.2-1.34-17.18,4.75-23.91,1.76-1.92,3.26-3.97,4.71-6.13,1.49-2.27,2.88-4.61,4.16-7.01,2.46-2,3.72-.48,3.72-.48,2.17,2.08,1.54,4.83.26,7.16-.86.94-1.77,1.88-2.62,2.81-1.26,1.36-2.48,2.73-3.6,4.16-2.24,2.92-4.02,6.11-4.69,10.05-.52,3.09-.39,6.43-.47,9.57-.22,8.01-2.25,18.82-10.89,21.96-.23.03-.46.08-.68.14-1.19.22-8.31.52-8.42.1-.54-2.14,7.35-3.39,8.73-4.32Z"/>
  <path class="cls-1" d="M184.18,139.79c-5.47-.01-10.83-1.04-15.88-3.15-4.9-2.04-10.13-4.72-13.31-9.15-.88-1.21-1.61-2.57-2.21-3.98-1.3-3.1-2.04-5.63-1.44-9.05.87-4.87,3.04-9.87,7.22-12.81,1.49-1.03,2.94-1.56,4.71-1.84.01,0,9.9-1.6,12.31,2.87,0,0,.72,2.18-3.86,2.32,0,0-4.4-.14-4.35,1.68,0,0-.91,2.31,2.93,3.2.98.2,3.46.66,3.42,2.01-.05,1.33-2.41,1.5-3.33,1.48-1.5-.04-2.99-.17-4.47-.39,0,0-3.68-.15-3.83,2.81,0,0-2.22,4.21,7.66,10.37,5.38,3.33,11.8,4.26,17.86,5.67,1.75.41,3.5.82,5.28,1.18,1.16.21,2.33.4,3.5.56.69.1,2.89.68,3.48.3l-9.84,5.95h-5.84Z"/>
  <path class="cls-3" d="M184.18,139.79c-5.47-.01-10.83-1.04-15.88-3.15-4.9-2.04-10.13-4.72-13.31-9.15-.88-1.21-1.61-2.57-2.21-3.98-1.3-3.1-2.04-5.63-1.44-9.05.87-4.87,3.04-9.87,7.22-12.81,1.49-1.03,2.94-1.56,4.71-1.84.01,0,9.9-1.6,12.31,2.87,0,0,.72,2.18-3.86,2.32,0,0-4.4-.14-4.35,1.68,0,0-.91,2.31,2.93,3.2.98.2,3.46.66,3.42,2.01-.05,1.33-2.41,1.5-3.33,1.48-1.5-.04-2.99-.17-4.47-.39,0,0-3.68-.15-3.83,2.81,0,0-2.22,4.21,7.66,10.37,5.38,3.33,11.8,4.26,17.86,5.67,1.75.41,3.5.82,5.28,1.18,1.16.21,2.33.4,3.5.56.69.1,2.89.68,3.48.3l-9.84,5.95h-5.84Z"/>
  <path class="cls-1" d="M209.01,166.87c-1.01.46-2.07.85-3.12,1.24l-.03,1.27c.08.15.15.32.13.52-.05.19-.11.37-.16.56-.39.98-1.54,1.61-2.36,2.14-1.59,1.01-3.27,1.86-4.94,2.75-1.98,1.02-4,1.95-6.05,2.8-1.05.44-2.12.85-3.15,1.26-.88.36-1.74.77-2.58,1.22t-.05.01c-1,.57-1.93,1.26-2.77,2.04-.52.48-1.05,1.01-1.49,1.6-2.89,3.5-3.36,8.42-1.91,12.63.6,1.77,1.71,3.33,3.19,4.46.58.41,1.5,1.03,2.43,1.43.41-.36.82-.68,1.28-1.01l-.18-6.08c-.2-.98-.24-1.98-.12-2.97.09-.72.29-1.43.57-2.11.97-2.02,3.06-3.38,5.08-4.16,2.14-.78,4.38-1.1,6.58-1.63.82-.22,1.6-.46,2.38-.73,1.04-.34,2.05-.73,3.04-1.15.24-.09.46-.19.71-.29.45-.22.93-.45,1.39-.69,3.63-1.89,6.76-4.7,6.51-9.23-.18-3.55-2.53-5.16-4.36-5.88"/>
  <path class="cls-3" d="M209.01,166.87c-1.01.46-2.07.85-3.12,1.24l-.03,1.27c.08.15.15.32.13.52-.05.19-.11.37-.16.56-.39.98-1.54,1.61-2.36,2.14-1.59,1.01-3.27,1.86-4.94,2.75-1.98,1.02-4,1.95-6.05,2.8-1.05.44-2.12.85-3.15,1.26-.88.36-1.74.77-2.58,1.22t-.05.01c-1,.57-1.93,1.26-2.77,2.04-.52.48-1.05,1.01-1.49,1.6-2.89,3.5-3.36,8.42-1.91,12.63.6,1.77,1.71,3.33,3.19,4.46.58.41,1.5,1.03,2.43,1.43.41-.36.82-.68,1.28-1.01l-.18-6.08c-.2-.98-.24-1.98-.12-2.97.09-.72.29-1.43.57-2.11.97-2.02,3.06-3.38,5.08-4.16,2.14-.78,4.38-1.1,6.58-1.63.82-.22,1.6-.46,2.38-.73,1.04-.34,2.05-.73,3.04-1.15.24-.09.46-.19.71-.29.45-.22.93-.45,1.39-.69,3.63-1.89,6.76-4.7,6.51-9.23-.18-3.55-2.53-5.16-4.36-5.88Z"/>
  <path class="cls-1" d="M207.32,224.84c.39-5.79-1.51-9.03-2.87-10.61l-.56,17.78c3.9-3.68,3.43-7.17,3.43-7.17"/>
  <path class="cls-3" d="M207.32,224.84c.39-5.79-1.51-9.03-2.87-10.61l-.56,17.78c3.9-3.68,3.43-7.17,3.43-7.17Z"/>
  <path class="cls-1" d="M223.6,98.6c-2.34.2-4.67,1.17-5.84,3.31-.36.66-.59,1.39-.68,2.14.18,1.58,1.49,1.89,2.84,2.12,1.33.26,2.64.41,2.82,1.65,0,2.21-3.14.95-5.03,2.21-.3.31-.63.93-.63,1.24.63,1.88,2.21,2.51,3.72,2.86.68.2,1.51.32,2.36.44,2.6.38,5.43.78,5.41,3.85-.02,2.94-3.17,4.75-5.44,5.97-8.93,4.68-18.81,7.43-28.59,9.96-2.67.68-5.39,1.32-8.02,2.15-3.16.99-6.42,2.46-9.05,4.41-2.35,1.77-4.08,4.3-5.12,7.04-1.37,3.67-.37,7.74,1.24,11.15,1.31,2.8,3.21,4.7,5.52,6.4,2.1,1.77,5.98,3.55,7.28,4.11l-.19-5.73-.02-.73-.17-5c-.1-.14-.24-.26-.36-.39-4.28-5.43-1.04-9.9,4.24-12.8,5.73-3.16,12.17-4.13,18.59-5.13.2-.03.42-.07.64-.1,3.3-.53,6.59-1.07,9.78-1.94,2.03-.57,4.02-1.23,5.99-1.98,8.46-3.36,15.63-10.02,16.19-19.35.41-6.39-3.79-12.98-9.38-15.86-1.64-.85-3.64-1.63-5.46-1.92-.88-.15-1.77-.18-2.65-.1"/>
  <path class="cls-3" d="M223.6,98.6c-2.34.2-4.67,1.17-5.84,3.31-.36.66-.59,1.39-.68,2.14.18,1.58,1.49,1.89,2.84,2.12,1.33.26,2.64.41,2.82,1.65,0,2.21-3.14.95-5.03,2.21-.3.31-.63.93-.63,1.24.63,1.88,2.21,2.51,3.72,2.86.68.2,1.51.32,2.36.44,2.6.38,5.43.78,5.41,3.85-.02,2.94-3.17,4.75-5.44,5.97-8.93,4.68-18.81,7.43-28.59,9.96-2.67.68-5.39,1.32-8.02,2.15-3.16.99-6.42,2.46-9.05,4.41-2.35,1.77-4.08,4.3-5.12,7.04-1.37,3.67-.37,7.74,1.24,11.15,1.31,2.8,3.21,4.7,5.52,6.4,2.1,1.77,5.98,3.55,7.28,4.11l-.19-5.73-.02-.73-.17-5c-.1-.14-.24-.26-.36-.39-4.28-5.43-1.04-9.9,4.24-12.8,5.73-3.16,12.17-4.13,18.59-5.13.2-.03.42-.07.64-.1,3.3-.53,6.59-1.07,9.78-1.94,2.03-.57,4.02-1.23,5.99-1.98,8.46-3.36,15.63-10.02,16.19-19.35.41-6.39-3.79-12.98-9.38-15.86-1.64-.85-3.64-1.63-5.46-1.92-.88-.15-1.77-.18-2.65-.1Z"/>
  <path class="cls-1" d="M217.74,147.57c-1.89-3.42-5.13-5.84-8.45-7.86-.07.01-.12.03-.15.03-.22.03-.44.07-.65.11-.58.08-1.14.17-1.7.25l-.39,12.24c.12.34.17.65.07,1.01,0,.1-.07.16-.11.24-.48,1.32-1.8,2.22-2.97,2.86-1.23.7-2.53,1.22-3.82,1.68-1.17.45-2.36.8-3.54,1.19-1.49.46-2.95.98-4.4,1.56-.24.11-.47.21-.7.33-1.67.73-3.26,1.64-4.74,2.69,0,0-3.03,2.31-4.24,4.03-.02,0-.02.01-.02.03-.49.62-.95,1.23-1.34,1.92-2.36,4.06-.93,10.51,3.31,12.8.84-.78,1.77-1.46,2.77-2.04t.05-.01c.83-.46,1.69-.85,2.58-1.22-.32-.31-.63-.65-.85-1.07-1.31-3.01,1.49-4.87,3.79-6.04,3.2-1.65,6.57-2.28,10.02-3.07.84-.19,1.71-.46,2.56-.73.36-.12.72-.26,1.05-.37,1.05-.39,2.1-.78,3.12-1.24.83-.36,1.65-.74,2.44-1.12,1.02-.51,2.04-1.05,3.01-1.7,1.07-.77,2.13-1.78,2.98-2.78,3.3-3.94,2.7-9.44.3-13.7"/>
  <path class="cls-3" d="M217.74,147.57c-1.89-3.42-5.13-5.84-8.45-7.86-.07.01-.12.03-.15.03-.22.03-.44.07-.65.11-.58.08-1.14.17-1.7.25l-.39,12.24c.12.34.17.65.07,1.01,0,.1-.07.16-.11.24-.48,1.32-1.8,2.22-2.97,2.86-1.23.7-2.53,1.22-3.82,1.68-1.17.45-2.36.8-3.54,1.19-1.49.46-2.95.98-4.4,1.56-.24.11-.47.21-.7.33-1.67.73-3.26,1.64-4.74,2.69,0,0-3.03,2.31-4.24,4.03-.02,0-.02.01-.02.03-.49.62-.95,1.23-1.34,1.92-2.36,4.06-.93,10.51,3.31,12.8.84-.78,1.77-1.46,2.77-2.04t.05-.01c.83-.46,1.69-.85,2.58-1.22-.32-.31-.63-.65-.85-1.07-1.31-3.01,1.49-4.87,3.79-6.04,3.2-1.65,6.57-2.28,10.02-3.07.84-.19,1.71-.46,2.56-.73.36-.12.72-.26,1.05-.37,1.05-.39,2.1-.78,3.12-1.24.83-.36,1.65-.74,2.44-1.12,1.02-.51,2.04-1.05,3.01-1.7,1.07-.77,2.13-1.78,2.98-2.78,3.3-3.94,2.7-9.44.3-13.7Z"/>
  <path class="cls-1" d="M212.27,189.41c-.19-1.97-1.19-3.97-2.55-5.37-.78-.82-1.82-1.51-2.87-2.07-.46.24-.92.47-1.39.69l-.27,8.16c.03.29.06.55.03.82-.02.39-.03.73-.09,1.07-.03.06-.05.12-.05.18-.15.36-.29.72-.37.92-.97,1.76-2.71,2.74-4.55,3.43-2.24.81-4.6,1.27-6.88,1.98-1.29.41-2.67.88-3.96,1.5-.67.3-1.31.66-1.92,1.05-.44.31-.86.65-1.27,1.01-1.09.96-1.92,2.19-2.3,3.71-.83,3.16-.4,6.49,2.01,8.83.43.43.89.83,1.37,1.2.2-.24.39-.46.63-.68l-.16-4.53c-.26-1.02-.31-2.04-.07-3.03.36-1.46,1.31-2.77,2.82-3.65.71-.44,1.56-.87,2.35-1.13,2.5-.77,5.09-.96,7.61-1.61v.02l.05-.02c.2-.07.44-.08.66-.16.99-.29,1.95-.67,2.94-1.06v.04l.24-.14c.2-.08.4-.15.59-.25.17-.07.34-.15.53-.24.27-.16.55-.31.85-.46l.41-.21.05-.07c.2-.12.41-.26.59-.36.51-.34.99-.68,1.46-1.05,1.09-.96,2.16-2.24,2.82-3.5.8-1.56.8-3.36.68-5.06"/>
  <path class="cls-3" d="M212.27,189.41c-.19-1.97-1.19-3.97-2.55-5.37-.78-.82-1.82-1.51-2.87-2.07-.46.24-.92.47-1.39.69l-.27,8.16c.03.29.06.55.03.82-.02.39-.03.73-.09,1.07-.03.06-.05.12-.05.18-.15.36-.29.72-.37.92-.97,1.76-2.71,2.74-4.55,3.43-2.24.81-4.6,1.27-6.88,1.98-1.29.41-2.67.88-3.96,1.5-.67.3-1.31.66-1.92,1.05-.44.31-.86.65-1.27,1.01-1.09.96-1.92,2.19-2.3,3.71-.83,3.16-.4,6.49,2.01,8.83.43.43.89.83,1.37,1.2.2-.24.39-.46.63-.68l-.16-4.53c-.26-1.02-.31-2.04-.07-3.03.36-1.46,1.31-2.77,2.82-3.65.71-.44,1.56-.87,2.35-1.13,2.5-.77,5.09-.96,7.61-1.61v.02l.05-.02c.2-.07.44-.08.66-.16.99-.29,1.95-.67,2.94-1.06v.04l.24-.14c.2-.08.4-.15.59-.25.17-.07.34-.15.53-.24.27-.16.55-.31.85-.46l.41-.21.05-.07c.2-.12.41-.26.59-.36.51-.34.99-.68,1.46-1.05,1.09-.96,2.16-2.24,2.82-3.5.8-1.56.8-3.36.68-5.06Z"/>
  <path class="cls-1" d="M207.32,199.02c-.19.1-.39.24-.59.36l-.05.07-.41.21c-.31.15-.58.3-.85.45-.18.09-.35.17-.53.24l-.1,3.15c.22,1.02.17,1.89-.07,2.72-.73,2.24-3.01,3.76-5.26,4.72-1.99.81-4.06,1.49-6.1,2.12-1.58.48-3.23,1.05-4.59,2.03-.3.24-.63.49-.92.77-.24.22-.42.44-.63.67-1.73,1.95-2.58,4.54-2.32,7.13.19,1.82.71,4.16,1.65,5.72.35.63.8,1.26,1.22,1.84.15.18.37.52.59.86.3.44.65.9.93,1.02l1.99.82c-.75-1.99-1.53-3.94-2.28-5.91-.38-1.01-.72-2.02-.87-3.05-.12-.68-.14-1.38-.07-2.07.09-.65.25-1.31.58-1.9.95-1.82,2.96-3.07,4.83-3.8,1.37-.53,2.78-.8,4.19-1.15,1.34-.39,2.79-.71,4.08-1.28.94-.37,1.86-.87,2.73-1.37.95-.61,1.83-1.31,2.6-2.14,3.33-3.58,3.1-8.56.24-12.23"/>
  <path class="cls-3" d="M207.32,199.02c-.19.1-.39.24-.59.36l-.05.07-.41.21c-.31.15-.58.3-.85.45-.18.09-.35.17-.53.24l-.1,3.15c.22,1.02.17,1.89-.07,2.72-.73,2.24-3.01,3.76-5.26,4.72-1.99.81-4.06,1.49-6.1,2.12-1.58.48-3.23,1.05-4.59,2.03-.3.24-.63.49-.92.77-.24.22-.42.44-.63.67-1.73,1.95-2.58,4.54-2.32,7.13.19,1.82.71,4.16,1.65,5.72.35.63.8,1.26,1.22,1.84.15.18.37.52.59.86.3.44.65.9.93,1.02l1.99.82c-.75-1.99-1.53-3.94-2.28-5.91-.38-1.01-.72-2.02-.87-3.05-.12-.68-.14-1.38-.07-2.07.09-.65.25-1.31.58-1.9.95-1.82,2.96-3.07,4.83-3.8,1.37-.53,2.78-.8,4.19-1.15,1.34-.39,2.79-.71,4.08-1.28.94-.37,1.86-.87,2.73-1.37.95-.61,1.83-1.31,2.6-2.14,3.33-3.58,3.1-8.56.24-12.23Z"/>
  <path class="cls-12" d="M224.69,101.46h-.83c-.73,0-1.33.59-1.33,1.34,0,.73.58,1.32,1.31,1.32,0,0,.01,0,.02,0h.83c.73,0,1.33-.58,1.34-1.31,0,0,0,0,0-.01,0-.75-.61-1.34-1.34-1.34"/>
  <path class="cls-12" d="M167.44,104.13h.85c.73,0,1.32-.58,1.33-1.3,0,0,0-.01,0-.02,0-.75-.59-1.34-1.33-1.34h-.85c-.73,0-1.31.59-1.31,1.34s.58,1.32,1.31,1.32"/>
  <g>
    <g>
      <path class="cls-8" d="M172.87,378.59v-2.41c.67-.3,1.33-.9,2-2.11l2,.9c-.67,1.5-1.66,2.71-3,3.31-.33,0-.67.3-1,.3M172.87,371.37v-2.11l3.33.9c.33-1.5.33-2.41,0-3.31s-1-1.81-2.33-2.11h-1v-2.11c.67-.3,1.33,0,1.66,0,1.66.6,3,1.5,3.66,3.31.67,1.5.33,3.61-.33,6.32l-.33.6-4.66-1.5ZM178.87,375.88c-.67,3.31.67,5.42,3.66,6.02,1.66.6,3,.3,4.33-.3,1-.6,1.66-1.81,2-3.31.33-.6.33-1.2.33-2.11-.33-.6-.67-.9-1-1.5-.33-.3-1.33-1.2-3-2.11-1-.9-1.66-1.2-2-1.5-.33-.6-.33-.9-.33-1.5.25-.45.59-.86,1-1.2.67-.3,1.33-.3,2.33,0,1.66.3,2.33,1.5,2,3.01l2,.3c.33-1.2.33-2.11,0-2.71-.32-.67-.77-1.28-1.33-1.81-.67-.3-1.33-.9-2.33-.9-1.33-.6-2.66-.3-3.66.3-1,.6-1.66,1.5-2,2.71-.33.9-.33,1.5,0,2.11,0,.9.33,1.2.67,1.81.67.6,1.66,1.2,3,2.11,1,.6,1.66,1.2,2,1.5s.33.9.33,1.5c-.33.6-.67,1.2-1.33,1.5s-1.33.3-2.33,0c-.67,0-1.33-.6-2-1.2-.33-.6-.33-1.5-.33-2.71h-2ZM172.87,362.64v2.11c-.67,0-1,.3-1.66.6-.67.6-1.33,1.5-2,2.71l3.66,1.2v2.11l-4.33-1.2c-.33,1.81-.33,3.01,0,4.21.33.9,1.33,1.81,2.33,1.81.62.3,1.37.3,2,0v2.41c-1,0-2,0-2.66-.3-2-.3-3-1.5-3.66-3.01v-6.32c.55-2.04,1.7-3.92,3.33-5.42,1-.6,2-.9,3-.9M166.55,365.35h.33c0-1.5,0-2.71-.33-3.61v3.61ZM166.55,361.74v3.61l-2-.3c.33-.9,0-1.81-.33-2.41s-.67-1.2-1.33-1.5c-1-.3-2,0-3,.6s-1.66,2.11-2.33,3.91c-.67,2.11-1,3.61-.67,4.82s1,1.81,2,2.11c.67.3,1.66.3,2.33-.3.67-.3,1.33-1.2,2-2.41l2,.9c-1,1.81-2,3.01-3.33,3.61-1,.6-2.33.6-3.66.3-1-.3-1.66-.9-2.33-1.5v-9.63c1-1.81,2-3.01,3-3.61,1.33-1.2,3-1.2,4.66-.6,1.33.3,2,.9,2.66,2.11l.33.3ZM166.55,369.56c-.67,2.11-.67,4.21,0,5.72v-5.72ZM155.9,359.63l1.66-1.81c-.67-.6-1-1.2-1.66-1.5v3.31ZM155.9,356.32v3.61c-.26-.54-.74-.97-1.33-1.2h-1.33c-.33.3-1,.6-1.33,1.2-.33.9-1,1.81-1.33,2.71l-3,7.83-1-.6v-2.71l4.66-12.04,1.66.6-.67,2.11c.48-.67,1.18-1.19,2-1.5.38-.3.95-.3,1.33,0h.33ZM155.9,363.54c0,.3-.33.9-.67,1.5-.67,2.71-1,4.82-.33,6.32.33.9.67,1.5,1,1.81v-9.63ZM146.58,361.14c.85-1.91,1.08-4,.67-6.02-.33-.3-.33-.9-.67-1.2v7.22ZM146.58,353.91v7.22l-.33.3c-1,2.41-2.33,4.21-3.66,5.12-1.66.9-3.33.9-4.99.3l-.33-.3v-2.71c.33.6.67.9,1.33.9,1,.3,2,.3,3-.3s2-1.81,2.66-3.91c.67-1.81,1-3.31.67-4.51s-1-1.81-2-2.41c-.67-.3-1.66-.3-3,.6-1,.6-1.66,1.81-2.66,3.61v-4.21c.67-.6,1.33-1.2,2-1.5,1.66-.9,3-.9,4.66-.3,1,.3,2,1.2,2.66,2.11M146.58,367.16l-1,2.41,1,.3v-2.71ZM137.27,345.48v-3.01l3.33,1.5-1.33,2.41-2-.9ZM137.27,342.48v3.01l-6.66-3.61-3,6.02,7.32,3.91-1,2.11-7.32-3.61-4.66,8.73-1-.6v-2.71l8.99-17.16,7.32,3.91ZM137.27,353.61c-.67.9-1.33,2.11-2,3.31-1,2.71-1.33,4.82-.67,6.32.33,1.5,1.33,2.71,2.66,3.31v-2.71c-.42-.41-.65-.95-.67-1.5-.33-1.2,0-2.71.67-4.51v-4.21ZM120.96,336.15v-2.41l1,.6-1,1.81ZM120.96,333.75v2.41l-10.32,16.55-1.66-.9,1-1.81c-.67.6-1.66.6-2.33.9-.67,0-1.33-.3-2-.6v-3.91c.33.9.67,1.81,1.33,2.11s1.66.3,2.66,0c1.33-.6,2.33-1.5,3.33-3.01,1-2.11,1.66-3.61,1.66-4.82-.33-1.2-.67-2.11-1.66-2.41-.67-.6-1.66-.6-2.66,0-1,.3-2,1.5-3.33,3.31-.67,1.2-1,2.41-1.33,3.31v-5.12c1-1.2,1.66-2.11,2.66-2.71,1-.9,2-1.5,3-1.5s2,0,3,.6c.33.3,1,.9,1.33,1.5s.33,1.5.33,2.11l3.99-6.62,1,.6ZM120.96,355.72v2.71l-1-.6,1-2.11ZM105.65,334.95c0-.6.33-.9,0-1.5v-.3,1.81ZM105.65,333.14v1.81c0,.9-.33,2.11-1,3.01v-7.52c.67.6,1,1.5,1,2.71M105.65,339.77v10.53l-1-.9v-7.83c0-.3.33-.9.67-1.2,0-.3.33-.6.33-.6M104.65,330.44v7.52c-.33.6-.67.9-1,1.5v.3-10.23l1,.9ZM104.65,341.57v7.83c-.67-.66-1.02-1.52-1-2.41v-2.41c0-.9.33-2.11,1-3.01M103.65,329.53v3.61c-.33-.9-.67-1.5-1.33-1.81s-1.33-.6-2-.6v-2.11c1,0,2,.3,3,.9h.33ZM103.65,334.95v4.82l-.33.3-3-2.11v-2.71l2.33,1.81c.27-.72.61-1.43,1-2.11M103.65,344.58v2.41-.6c-.33-.56-.33-1.24,0-1.81M100.32,343.38v-2.71l1.66,1.5c-.67.3-1.33.9-1.66,1.2M100.32,328.63v2.11c-.33,0-.67.3-.67.3-1,.3-2,.9-3,2.11l3.66,2.11v2.71l-4.99-3.01c-.67,1.5-1.33,2.71-1,3.91,0,1.2.67,1.81,1.33,2.41,1.33.9,3,.6,4.66-.6v2.71c-.67.3-1.33.6-2,.6-1.31.32-2.71-.02-3.66-.9q-.33,0-.67-.3v-9.93c1.66-2.11,3-3.31,4.66-3.91.67-.3,1-.3,1.66-.3M94,330.44l.33-.6c1.33-1.5,2-2.71,2-3.61,0-1.2-.67-2.11-1.66-3.01,0,0-.33-.3-.67-.3v7.52ZM94,322.91v7.52l-6.32,7.83-1.66-1.5,6.32-7.52c.67-.9,1-1.5,1.33-2.11v-1.2c0-.6-.33-.9-.67-1.2-.67-.6-1.66-.6-2.66-.6-.67.3-1.66.9-2.66,2.11l-5.99,7.22-1.66-1.5,6.66-7.83c.67-.9,1-1.81,1.33-2.41,0-.6-.33-1.2-1-1.81-.63-.54-1.56-.66-2.33-.3-1,0-2.33,1.2-3.66,2.71l-4.99,6.32-.33-.3v-2.71l8.65-10.53,1.33,1.2-1.33,1.81c.67-.3,1.66-.6,2.33-.3,1,0,1.66.3,2.33.6.67.6,1,1.5,1.33,2.11,0,.9,0,1.5-.33,2.41,1-.3,1.66-.6,2.66-.6.33.3,1,.3,1.33.6M94,332.84v.3c-1.66,2.11-2.33,4.21-2,6.02,0,1.5.67,2.71,2,3.61v-9.93ZM75.7,316.89c.67-.6,1.33-1.2,2-1.5s1-.6,1.66-.6c.33,0,.67.3,1,.6.67.3.67.9,1,1.5l2-1.2c0-.9-.33-1.81-1-2.11-.33-.6-.67-.6-1.33-.6s-1.33,0-2.33.6l1.66-1.81-1.66-1.2-3,3.31v3.01ZM75.7,302.74v-4.21l1.33,1.5-1.33,2.71ZM75.7,298.53v4.21l-5.99,12.04v-5.42l2.66-4.51c.67-1.81,1.66-3.01,2-4.21-1.02.89-2.14,1.7-3.33,2.41l-1.33.6v-2.41l5.66-3.01.33.3ZM75.7,313.88l-5.99,6.02v3.31l5.66-5.72q0-.3.33-.6v-3.01ZM75.7,325.62v2.71l-1.33-1.2,1.33-1.5ZM69.71,301.24v2.41l-4.66,2.71,4.33,3.91.33-.9v5.42l-2.66,5.72-2-1.81,3.33-6.32-5.32-5.12-4.99,2.71v-2.41l11.65-6.32ZM69.71,319.9l-1.66,2.11,1.66,1.2v-3.31ZM58.06,298.23v-3.01c.33-.6.67-.9.67-1.2.33-1.2.33-2.41-.33-3.01l-.33-.3v-2.71c1,.3,1.33.9,2,1.5,1,1.2,1.33,2.71,1,4.51-.33,1.5-1.33,3.01-3,4.21M54.4,271.44l.33.9h-.33v2.71l1.66-1.2-1.33-1.81-.33.3v-.9ZM58.06,288v2.71c-.33-.6-1.33-.9-2.33-.9-.33,0-1,0-1.33.3v-2.41h1.33c1-.3,1.66,0,2.33.3M58.06,295.22v3.01c0,.3-.33.6-.67.9l-.67.6-2.33-3.31v-3.31l2.66,3.31c.33-.3.67-.9,1-1.2M58.06,307.56v2.41l-1,.9-2-1.81,3-1.5ZM54.4,301.24v-.9l.33.6c0,.3-.33.3-.33.3M51.07,265.12l3.33,6.32v.9l-3.33,2.11v2.71l3.33-2.11v-2.71l-2,1.2-1.33-3.01v-5.42ZM54.4,287.7v2.41c-.67,0-1.33.3-2,.9l2,2.11v3.31l-3.33-3.91v-3.31c1-.6,2-1.2,3.33-1.5M54.4,300.34v.9c-1.33.6-2.33.9-3.33.6v-2.11c.67,0,1.66-.3,2.66-.6l.67,1.2ZM51.07,287.09v-3.01c.33-.3.33-.6.67-.9,0-.9,0-1.5-.33-2.11l-.33-.3v-2.41c.33,0,.33.3.67.3.71.34,1.29.86,1.66,1.5.67,1.2,1,2.11.67,3.31-.33,1.2-1.33,2.41-3,3.61M45.74,267.83l3-1.5-2.66-5.42,2.33-.9,2.66,5.12v5.42l-1.33-2.41-3.99,2.11v-2.41ZM51.07,274.45v2.71l-1.66.9c.67,0,1,.3,1.66.3v2.41c-.58-.5-1.26-.91-2-1.2-1,0-2,.3-3.33,1.2v-2.71l5.32-3.61ZM51.07,284.08v3.01h-.33l-4.99,3.31v-2.41l3.99-2.71c.33-.3,1-.6,1.33-1.2M51.07,289.2c-.33.3-1,.6-1.33.9-2,1.5-3.33,3.31-3.66,5.12s0,3.31,1.33,4.51c.67,1.2,2,1.81,3,2.11h.67v-2.11c-1-.3-1.66-.6-2-1.2-.67-.9-1-1.81-.67-3.01.33-.9,1-2.11,2.33-3.31l.33.3v-3.31ZM31.77,275.05l13.98-7.22v2.41l-12.98,6.92-1-2.11ZM45.74,278.06v2.71c-.33,0-.33.3-.67.3l-6.99,4.82-1.33-1.81,8.99-6.02ZM45.74,288v2.41l-3.33,2.41-1-1.81,4.33-3.01Z"/>
      <path class="cls-4" d="M31.77,275.05l16.97-8.73-2.66-5.42,2.33-.9,6.32,12.34-2.33,1.2-2.66-5.42-16.97,9.03-1-2.11ZM36.76,284.08l17.97-12.04,1.33,1.81-6.66,4.21c1,0,1.66.3,2.33.6.71.34,1.29.86,1.66,1.5.67,1.2,1,2.11.67,3.31s-1.33,2.41-3.33,3.61l-8.32,5.72-1-1.81,8.32-5.72c1-.6,1.66-1.5,2-2.11,0-.9,0-1.5-.33-2.11-.67-.9-1.33-1.2-2.33-1.5-1,0-2.33.3-3.99,1.5l-6.99,4.82-1.33-1.81ZM53.73,299.13l1,1.81c-1.66.9-3,1.2-4.33.9-1-.3-2.33-.9-3-2.11-1.33-1.2-1.66-2.71-1.33-4.51s1.66-3.61,3.66-5.12c2.33-1.81,3.99-2.41,5.99-2.41,1.66-.3,3.33.6,4.33,1.81s1.33,2.71,1,4.51c-.33,1.81-1.66,3.61-3.66,5.12l-.67.6-5.99-7.52c-1.06.92-1.85,2.06-2.33,3.31-.33,1.2,0,2.11.67,3.01,1,1.2,2.33,1.5,4.66.6ZM52.4,291.01l4.66,5.42c1-.9,1.66-1.81,1.66-2.41.33-1.2.33-2.41-.33-3.01-.67-.9-1.66-1.2-2.66-1.2s-2,.3-3.33,1.2ZM55.06,309.07l20.3-10.84,1.66,1.81-9.98,20.47-2-1.81,3.33-6.32-5.32-5.12-5.99,3.61-2-1.81ZM65.05,306.36l4.33,3.91,3-5.42c.67-1.81,1.66-3.01,2-4.21-1.02.89-2.14,1.7-3.33,2.41l-5.99,3.31ZM68.04,322.01l10.65-11.44,1.66,1.2-1.66,1.81c1-.6,1.66-.6,2.33-.6s1,0,1.33.6c.67.3,1,1.2,1,2.11l-2,1.2c-.33-.6-.33-1.2-1-1.5-.33-.3-.67-.6-1-.6-.67,0-1,.3-1.66.6-1,.6-1.66,1.2-2.33,2.11l-5.66,5.72-1.66-1.2ZM74.37,327.12l9.98-12.04,1.33,1.2-1.33,1.81c.67-.3,1.66-.6,2.33-.3,1,0,1.66.3,2.33.6.67.6,1,1.5,1.33,2.11,0,.9,0,1.5-.33,2.41,1-.3,1.66-.6,2.66-.6l2,.9c1,.9,1.66,1.81,1.66,3.01,0,.9-.67,2.11-2,3.61l-6.66,8.43-1.66-1.5,6.32-7.52c.67-.9,1-1.5,1.33-2.11v-1.2c0-.6-.33-.9-.67-1.2-.67-.6-1.66-.6-2.66-.6-.67.3-1.66.9-2.66,2.11l-5.99,7.22-1.66-1.5,6.66-7.83c.67-.9,1-1.81,1.33-2.41,0-.6-.33-1.2-1-1.81-.63-.54-1.56-.66-2.33-.3-1,0-2.33,1.2-3.66,2.71l-4.99,6.32-1.66-1.5ZM100.32,340.67l1.66,1.5c-1.33,1.2-2.33,1.81-3.66,1.81-1.31.32-2.71-.02-3.66-.9-1.66-.9-2.66-2.11-2.66-3.91-.33-1.81.33-3.91,2-6.02,1.33-2.11,3-3.61,4.66-4.21s3.33-.3,4.66.6c1.66.9,2.33,2.11,2.33,3.91.33,1.81-.33,3.91-2,6.02l-.33.6-7.99-5.12c-.67,1.5-1.33,2.71-1,3.91,0,1.2.67,1.81,1.33,2.41,1.33.9,3,.6,4.66-.6h0ZM96.66,333.14l5.99,3.91c.67-1.2,1-2.41,1-3.01,0-1.2-.33-2.11-1.33-2.71s-1.66-.6-2.66-.3-2,.9-3,2.11h0ZM108.98,351.81l1-1.81c-.67.6-1.66.6-2.33.9-.67,0-1.33-.3-2-.6-1.33-.9-2-2.11-2-3.91-.33-1.81.33-3.91,1.66-6.02,1-1.5,2-2.71,3-3.31,1-.9,2-1.5,3-1.5s2,0,3,.6c.33.3,1,.9,1.33,1.5s.33,1.5.33,2.11l3.99-6.62,2,1.2-11.32,18.36-1.66-.9ZM106.98,341.57c-1,1.81-1.33,3.01-1.33,4.21s.67,2.11,1.33,2.71c.67.3,1.66.3,2.66,0,1.33-.6,2.33-1.5,3.33-3.01,1-2.11,1.66-3.61,1.66-4.82-.33-1.2-.67-2.11-1.66-2.41-.67-.6-1.66-.6-2.66,0-1,.3-2,1.5-3.33,3.31h0ZM119.96,357.83l9.98-19.26,10.65,5.42-1.33,2.41-8.65-4.51-3,6.02,7.32,3.91-1,2.11-7.32-3.61-4.66,8.73-2-1.2ZM135.27,356.92c1-2.41,2.33-4.21,3.99-4.82,1.66-.9,3-.9,4.66-.3s2.66,1.81,3.33,3.31c.33,1.81,0,3.91-1,6.32-1,2.41-2.33,4.21-3.66,5.12-1.66.9-3.33.9-4.99.3-1.66-.6-2.66-1.81-3-3.61-.67-1.5-.33-3.61.67-6.32h0ZM137.26,357.83c-.67,1.81-1,3.31-.67,4.51.33,1.2,1,2.11,2,2.41s2,.3,3-.3,2-1.81,2.66-3.91c.67-1.81,1-3.31.67-4.51s-1-1.81-2-2.41c-.67-.3-1.66-.3-3,.6-1,.6-2,1.81-2.66,3.61ZM145.59,369.56l5.66-14.45,1.66.6-.67,2.11c.48-.67,1.18-1.19,2-1.5.38-.3.95-.3,1.33,0,.67.3,1.33.9,2,1.5l-1.66,2.11c-.26-.54-.74-.97-1.33-1.2h-1.33c-.33.3-1,.6-1.33,1.2-.33.9-1,1.81-1.33,2.71l-3,7.83-2-.9ZM163.22,369.86l2,.9c-1,1.81-2,3.01-3.33,3.61-1,.6-2.33.6-3.66.3-1.66-.6-2.66-1.5-3.33-3.31-.67-1.5-.33-3.61.33-6.32,1-2.41,2-4.21,3.66-5.12,1.33-1.2,3-1.2,4.66-.6,1.33.3,2,.9,2.66,2.11.67.9.67,2.41.67,3.91l-2.33-.3c.33-.9,0-1.81-.33-2.41s-.67-1.2-1.33-1.5c-1-.3-2,0-3,.6s-1.66,2.11-2.33,3.91c-.67,2.11-1,3.61-.67,4.82s1,1.81,2,2.11c.67.3,1.66.3,2.33-.3.67-.3,1.33-1.2,2-2.41h0ZM174.87,374.08l2,.9c-.67,1.5-1.66,2.71-3,3.31-1,.3-2.33.6-3.66,0-2-.3-3-1.5-3.66-3.01-.67-1.81-.67-3.61,0-6.32.55-2.04,1.7-3.92,3.33-5.42,1.66-.9,3-1.2,4.66-.9,1.66.6,3,1.5,3.66,3.31.67,1.5.33,3.61-.33,6.32l-.33.6-8.99-2.71c-.33,1.81-.33,3.01,0,4.21.33.9,1.33,1.81,2.33,1.81,1.33.6,2.66,0,3.99-2.11h0ZM169.21,368.06l6.99,2.11c.33-1.5.33-2.41,0-3.31s-1-1.81-2.33-2.11c-.67-.3-1.66,0-2.66.6-.67.6-1.33,1.5-2,2.71h0ZM178.87,375.88h2c0,1.2,0,2.11.33,2.71.67.6,1.33,1.2,2,1.2,1,.3,1.66.3,2.33,0s1-.9,1.33-1.5c0-.6,0-1.2-.33-1.5s-1-.9-2-1.5c-1.33-.9-2.33-1.5-3-2.11-.33-.6-.67-.9-.67-1.81-.33-.6-.33-1.2,0-2.11.33-1.2,1-2.11,2-2.71,1-.6,2.33-.9,3.66-.3,1,0,1.66.6,2.33.9.67.6,1,1.2,1.33,1.81.33.6.33,1.5,0,2.71l-2-.3c.33-1.5-.33-2.71-2-3.01-1-.3-1.66-.3-2.33,0-.41.34-.75.75-1,1.2,0,.6,0,.9.33,1.5.33.3,1,.6,2,1.5,1.66.9,2.66,1.81,3,2.11.33.6.67.9,1,1.5,0,.9,0,1.5-.33,2.11-.33,1.5-1,2.71-2,3.31-1.33.6-2.66.9-4.33.3-3-.6-4.33-2.71-3.66-6.02h0Z"/>
    </g>
    <g>
      <path class="cls-8" d="M348.26,291.01v-.3.3ZM348.26,282.58v-3.01l5.32,3.91-1.33,2.11-3.99-3.01ZM348.26,278.36c1.33.6,2.66,1.2,3.66,1.5,1.33,0,2.33,0,3.33-.6,1-.3,1.66-1.2,2.33-2.11,1-1.5,1-3.01.33-4.51l1.33.9,1.33-1.81-12.31-8.13v3.01l.67.3h-.67v1.81c.33,0,1-.3,1.33-.3,1,0,2.66.3,3.99,1.5,1.66.9,2.33,1.81,2.66,3.01s.33,2.11-.33,3.01c-.33.9-1.33,1.2-2.33,1.5-1,0-2.33-.3-3.99-1.2-.33-.3-1-.6-1.33-.9v3.01ZM348.26,263.62v3.01l-4.99-3.61,1-2.11,3.99,2.71ZM348.26,266.93v1.81l-1.33,1.2c-.33.98-.33,2.03,0,3.01,0,.9.67,1.5,1.33,2.41v3.01c-1-.9-2-1.81-2.66-2.71-.67-1.2-1-2.11-1-3.31s0-2.11.67-3.31c.38-.64.96-1.16,1.66-1.5.37-.32.83-.53,1.33-.6M348.26,279.57l-1.66-1.2c-.67-.9-1.33-1.2-1.66-1.5-.67-.3-1.33-.3-2-.3s-1,0-1.66.6c-.71.34-1.29.86-1.66,1.5-1.33,1.5-1.66,3.31-1,5.12l-1.33-1.2v2.71l9.65,7.52,1.33-1.81v-.3l-5.99-4.51c-1.33-1.2-2-2.11-2.33-3.01,0-1.2.33-2.11,1-2.71.25-.45.59-.86,1-1.2.67-.3,1-.3,1.66,0,.33,0,1,.3,2,.9l2.66,2.41v-3.01ZM337.28,306.36v-1.5l.67.6-.67.9ZM337.28,302.74v-3.01.3c.33.3,1,.3,1.66.3s1.33-.6,1.66-1.2c.67-.9,1-1.5,1-2.41.33-.9,0-1.5-.33-2.41-.33-.3-.67-.9-1.66-1.81l-.67-.3c0,.9-.67,2.11-1.66,3.61v.3-4.21c0-.3.33-.6.33-.9l-.33-.6v-2.71c.33,0,1,.6,1.66,1.2l2.33,2.11c2,1.2,3,2.11,3.33,2.41.67.3,1.33.6,1.66.6l-1.33,2.11c-.67-.3-1-.6-1.66-.9,0,1.2,0,2.41-.33,3.01-.33.9-.67,1.81-1.33,2.41-.67,1.2-1.66,2.11-3,2.11h-1.33ZM337.28,282.58v2.71l-1.33-.9,1.33-1.81ZM337.28,287.7v2.71c-1-.6-1.66-.9-2-.6-.67,0-1,.3-1.33.6v-2.71c.46-.38,1.05-.59,1.66-.6.33,0,1,.3,1.66.6M337.28,291.91v4.21c-.33.6-.67,1.2-.67,1.5-.33.6,0,.9,0,1.2s.33.6.67.9v3.01c-.67-.3-1-.3-1.33-.9-.67-.3-1-.9-1.33-1.5s-.33-1.2-.33-1.81.33-1.2.33-1.81c.39-.68.73-1.38,1-2.11.67-.9,1.33-1.81,1.66-2.71M337.28,304.85l-3.33-3.31v3.31l2.33,2.41,1-.9v-1.5ZM333.95,287.7v2.71l-1,.9c-.67.9-1,1.81-1,2.41s.33,1.5.67,2.11l-1.33,1.81c-.67-.9-1.33-1.5-1.33-2.41-.33-.9-.33-1.5,0-2.71.33-.9,1-1.81,1.66-2.71s1.33-1.5,2-2.11h.33ZM333.95,301.54l-3-3.01c-1-1.2-2-1.81-3.33-1.81-1,0-2,.6-2.66,1.5-1.33,1.5-1.66,3.01-1.33,5.12-.63-.54-1.56-.66-2.33-.3-.7,0-1.34.34-1.66.9v3.61c0-.6.33-.9.67-1.5.67-.6,1.33-.9,1.66-.6.67,0,1.33.6,2.33,1.2l6.32,6.62,1.66-1.81-5.66-5.72c-1-1.2-1.66-2.11-1.66-3.01s.33-1.81,1-2.41c.33-.6.67-.9,1.33-.9h1c.67.3,1,.9,1.66,1.5l3.99,3.91v-3.31ZM319.64,319.3v-3.91l4.33,5.72-1.66,1.5-2.66-3.31ZM319.64,313.58v-3.91.3c.33.6,1,1.5,2,2.41l4.99,5.12-1.66,1.81-5.32-5.72ZM319.64,303.95v3.61c-.33,0-.33.3-.33.3,0,.6,0,1.2.33,1.81v3.91l-4.66-4.51,1.66-1.5,1.33,1.5c-.33-.9-.33-1.81,0-2.41.33-.9.67-1.81,1.33-2.41l.33-.3ZM319.64,315.39l-1.66-2.11c-.85-.99-2.01-1.73-3.33-2.11-1,0-2,.3-3,1.2-1.33,1.2-2,2.71-1.66,4.82-.67-.3-1.33-.6-2.33-.6-.67,0-1.33.6-2.33,1.2-.67.6-1,1.2-1.33,2.11-.33.3-.33.6-.33,1.2v4.51l5.99,7.52,2-1.5-4.66-5.72c-1-.9-1.33-1.81-1.66-2.41-.33-.9-.33-1.5,0-2.11,0-.6.67-1.2,1-1.5.67-.6,1.33-.9,2-.6.67,0,1.33.6,2,1.5l5.66,6.92,1.66-1.5-4.99-6.32c-1-1.2-1.33-2.11-1.33-3.01s.33-1.81,1.33-2.41c.33-.3.67-.6,1.33-.6.33,0,.67,0,1,.3.33,0,1,.6,1.66,1.5l3,3.61v-3.91ZM303.67,338.56v-3.01c.33-.6.67-1.2.67-1.81s-.33-1.5-.67-2.41v-4.21l1,.9c1,1.5,1.66,3.01,1.66,4.21.33,1.2,0,2.11-.33,3.31-.33,1.2-1,2.11-2,2.71l-.33.3ZM303.67,321.11v4.51l-2.66-3.61,1.33-1.2,1.33,1.5v-1.2ZM303.67,327.12c-1-1.2-2.33-2.11-3.66-2.11-1.66-.3-3.33,0-4.66,1.2h-.33v3.31c.33-.6.67-1.2,1.33-1.81,1-.6,2-.9,3-.6,1.33.3,2.33,1.2,3.33,2.71.33.3.67.9,1,1.5v-4.21ZM303.67,335.55v3.01c-1.33.9-3,1.2-4.66.9-1.33,0-2.66-.9-3.99-2.41v-4.51c.33.6.67,1.5,1.33,2.11,1,1.5,2,2.41,3.33,2.71,1,.3,2,0,3-.6.41-.34.75-.75,1-1.2M295.01,342.48c.33-1.5.33-3.01,0-4.51v4.51ZM295.01,326.22v4.51c-.33.6,0,1.2,0,1.81v4.51c0-.3-.33-.6-.67-.9,0-.3-.33-.3-.33-.6v-8.13c.33-.3.67-.9,1-1.2M295.01,337.96v4.82c-.27.72-.61,1.43-1,2.11v-7.52l1-.3v.9ZM294.01,327.43v8.13c-1.22-1.58-1.7-3.52-1.33-5.42.33-.9.67-1.81,1.33-2.71M294.01,337.36l-1.66.6c.67,1.5.67,3.01.33,4.21s-1.33,2.11-2.33,3.01c-.97.62-2.14.93-3.33.9-1,0-2.33-.3-3.33-1.2s-2-1.81-2.66-3.31c-.67-1.2-1.33-2.41-1.66-3.61,0-1.2,0-2.41.33-3.61.67-1.2,1.33-2.11,2.66-3.01,1-.6,2-.9,3-.9,1,.3,2.33.9,3.33,1.81l1.66-1.81c-1.33-1.2-2.66-2.11-4.33-2.11-1.66-.3-3.33,0-4.66,1.2-1.66.9-2.66,2.11-3.33,3.31-1,1.5-1.33,3.01-1,4.82,0,1.81.67,3.61,1.66,5.12,1,1.81,2.33,3.01,3.66,4.21,1.33.9,3,1.5,4.33,1.5,1.66,0,3.33-.3,4.99-1.5,1-.6,1.66-1.5,2.33-2.11v-7.52ZM263.73,362.94v-2.11h.67l2-1.81c.33-.6.67-1.5.33-2.11,0-.6,0-1.5-.67-2.41l-.33-.9c-.33.6-1,1.2-2,1.81v-2.41c.5-.23.95-.53,1.33-.9-.33-.3-.33-.6-.33-.6-.25-.45-.59-.86-1-1.2v-2.71h.67c.6.24,1.07.67,1.33,1.2.33.3.67.9,1.33,2.11l1.33,2.71c1,2.11,1.66,3.31,2,3.91.33.3.67.9,1.33,1.2l-2.33,1.2c-.33-.3-.67-.9-1-1.5-.67,1.2-1,2.11-1.66,2.71-.33.6-1.33,1.2-2,1.5-.33.3-.67.3-1,.3M263.73,340.67l8.99,17.46,2-1.2-8.99-17.46-2,1.2ZM263.73,347.59v2.71c0-.3-.33-.3-.67-.6-.67,0-1.66,0-2.66.6-1,.6-1.66,1.2-2,1.81,0,.6-.33,1.2,0,2.41l-1,.3v-4.82c.67-.6,1.66-1.2,2.33-1.5,1.33-.6,2-.9,3-.9.33-.3.67-.3,1,0M263.73,353.01c-.67.6-1.33.9-2,1.5-1,.6-1.33,1.2-1.66,1.5-.67.3-1,.9-1.33,1.5-.33.3-.33.9-.33,1.81,0,.6,0,1.2.33,1.81.67,1.2,1.33,1.81,2.33,2.11s1.66.3,2.66-.3v-2.11c-.33.3-1,.3-1.33.3-.67-.3-1.33-.6-1.33-1.2-.33-.3-.33-.9-.33-1.2s.33-.9.33-1.2c.33-.3,1-.6,1.66-1.2l1-.9v-2.41ZM257.41,365.65v-5.42l1.33-.3c.33,1.5.33,3.01-.33,4.21,0,.6-.33.9-1,1.5M257.41,350v4.82l-1,.3c-.33-.9-.33-1.81-.33-2.71.33-.6.67-1.5,1.33-2.11v-.3ZM257.41,360.23l-.67.3c.33,1.2.33,2.11-.33,3.01-.33.6-.67,1.2-1.66,1.5-.89.6-2.11.6-3,0-1-.6-1.66-1.81-2.66-3.61-.67-1.81-.67-3.01-.33-4.21s1-1.81,2-2.41c.62-.3,1.37-.3,2,0,.67.3,1.33.9,2,1.5l2-1.2c-1-1.2-2-2.11-3-2.41-1.33-.3-2.33-.3-3.66.3s-2,1.2-3,2.11v7.83c1,1.81,2,3.31,3.66,3.91,1.33.9,3,.9,4.99,0,.67-.3,1.33-.6,1.66-1.2v-5.42ZM247.09,370.17v-3.01l1,2.71-1,.3ZM247.09,355.42v7.52-.3c-.62-1.34-.96-2.77-1-4.21,0-1.2.33-2.11,1-3.01M247.09,367.16l-3.99-10.84-.67.3v4.82l3.66,9.33,1-.6v-3.01ZM242.43,372.27v-5.42l1.66,4.82-1.66.6ZM242.43,356.62v4.82l-1.66-4.21,1.66-.6ZM242.43,366.85l-2-5.72v11.74c.67-.66,1.02-1.52,1-2.41l.67,1.81h.33v-5.42ZM240.43,354.51v-3.01h.67l1,2.41-1.66.6ZM240.43,351.5v3.01l-.67.3-1-2.41,1.66-.9ZM240.43,361.14l-3-8.13-1,.3v3.01l1.33,4.21c-.33-.3-1-.6-1.33-.9v1.81c.33.3.67.3,1,.6,1,.6,1.66,1.81,2.33,3.61s.67,3.01.33,4.21c-.33.9-1,1.81-2,2.11-.67.3-1.33.3-1.66,0v2.11c.67.3,1.33,0,2-.3,1,0,1.66-.6,2-.9v-11.74ZM236.44,353.31v3.01l-1-2.71,1-.3ZM236.44,359.63v1.81c-.67,0-1.33,0-2,.3-1,.3-1.66.9-2,2.11-.33.9-.33,2.41.33,4.21s1.33,3.01,2.33,3.61c.33,0,.67.3,1.33.3v2.11h-1c-1-.3-2-.9-3-1.81-.67-.9-1.33-2.11-2-3.31v-6.32c0-.3.33-.6.67-.9.67-.9,1.33-1.5,2.33-1.81s1.66-.3,2.33-.3h.67ZM230.45,374.68c.33-.9.67-1.81.67-3.01h-.67v3.01ZM230.45,362.64v5.72c-.33-1.2-.67-2.11-.67-3.31.33-.9.33-1.81.67-2.41M230.45,371.67v3.01c0,.3-.33.6-.67.9-.67,1.2-1.66,1.81-3.33,2.41-1,.3-2,.3-2.66.3v-2.41c.62.3,1.37.3,2,0,1-.3,1.66-.6,2-1.2s.67-1.5.67-2.71l2-.3ZM223.79,371.67l6.66-2.11c0-.3-.33-.6-.33-.6-.67-2.41-1.66-3.91-3-4.82-1-.57-2.15-.88-3.33-.9v2.11c.67,0,1.33.3,2,.6.67.6,1.33,1.2,1.66,2.41l-3.66,1.2v2.11ZM218.14,376.79l.67,3.91h-.67v-3.91ZM223.79,363.24c-.67,0-1,.3-1.66.3-1.66.6-3,1.81-3.99,3.31v6.32c.67,1.81,2,3.31,3.33,4.21.67.6,1.33.6,2.33.9v-2.41c-.33,0-.67,0-1-.3-1-.6-1.66-1.5-2.33-3.01l3.33-.9v-2.11l-3.66.9c-.33-1.2,0-2.11.33-3.01.41-.97,1.26-1.74,2.33-2.11h1v-2.11ZM200.83,383.41l-3-19.56,3.99-.6,6.32,13.24c.67,1.2,1,2.11,1.33,2.71.33-.9.33-1.81.67-3.31l2.33-14.45,3.33-.3,2.33,15.65v3.91l-1.66.3-2.66-16.25-2.66,17.16-2.33.3-7.99-15.95,2.66,16.55-2.66.6ZM218.14,366.85c-.67,1.5-.67,3.61,0,5.72v.6-6.32Z"/>
      <path class="cls-4" d="M200.83,383.41l-3-19.56,3.99-.6,6.32,13.24c.67,1.2,1,2.11,1.33,2.71.33-.9.33-1.81.67-3.31l2.33-14.45,3.33-.3,3,19.56-2.33.3-2.66-16.25-2.66,17.16-2.33.3-7.99-15.95,2.66,16.55-2.66.6ZM228.45,371.97l2.66-.3c0,1.5-.33,2.71-1.33,3.91-.67,1.2-1.66,1.81-3.33,2.41-2,.6-3.66.3-4.99-.6-1.66-.9-2.66-2.41-3.33-4.82-.67-2.11-.67-4.21,0-5.72,1-1.5,2.33-2.71,3.99-3.31s3.33-.3,4.99.6c1.33.9,2.33,2.41,3,4.82,0,0,.33.3.33.6l-9.98,3.01c.67,1.5,1.33,2.41,2.33,3.01s2,.6,3,.3,1.66-.6,2-1.2.67-1.5.67-2.71h0ZM220.13,370.47l7.32-2.11c-.33-1.2-1-1.81-1.66-2.41-1-.6-2-.9-3-.6-1.07.37-1.92,1.14-2.33,2.11-.33.9-.67,1.81-.33,3.01h0ZM242.1,372.27l-.67-1.81c-.33,1.81-1.33,3.01-3,3.31-1,.6-2,.6-3,.3s-2-.9-3-1.81c-.67-.9-1.33-2.11-2-3.31-.33-1.5-.67-2.71-.67-3.91.33-1.2.67-2.41,1.33-3.31s1.33-1.5,2.33-1.81,1.66-.3,2.33-.3,1.33.3,2,.9l-2.33-6.92,2-.6,6.66,18.66-2,.6ZM232.78,368.06c.67,1.81,1.33,3.01,2.33,3.61s2,.6,3,.3,1.66-1.2,2-2.11c.33-1.2.33-2.41-.33-4.21s-1.33-3.01-2.33-3.61-2-.6-3-.3-1.66.9-2,2.11c-.33.9-.33,2.41.33,4.21h0ZM239.77,354.82l-1-2.41,2.33-.9,1,2.41-2.33.9ZM246.09,370.77l-5.32-13.54,2.33-.9,4.99,13.54-2,.9ZM256.74,360.53l2-.6c.33,1.5.33,3.01-.33,4.21-.33,1.2-1.33,2.11-2.66,2.71-2,.9-3.66.9-4.99,0-1.66-.6-2.66-2.11-3.66-4.21-.62-1.34-.96-2.77-1-4.21,0-1.2.33-2.41,1-3.31,1-.9,1.66-1.5,3-2.11s2.33-.6,3.66-.3c1,.3,2,1.2,3,2.41l-2,1.2c-.67-.6-1.33-1.2-2-1.5-.62-.3-1.37-.3-2,0-1,.6-1.66,1.2-2,2.41s-.33,2.41.33,4.21c1,1.81,1.66,3.01,2.66,3.61.89.6,2.11.6,3,0,1-.3,1.33-.9,1.66-1.5.67-.9.67-1.81.33-3.01h0ZM268.39,358.43c-.67,1.2-1,2.11-1.66,2.71-.33.6-1.33,1.2-2,1.5-1.33.6-2.66.9-3.66.6s-1.66-.9-2.33-2.11c-.33-.6-.33-1.2-.33-1.81,0-.9,0-1.5.33-1.81.33-.6.67-1.2,1.33-1.5.33-.3.67-.9,1.66-1.5,1.33-.9,2.66-1.81,3.33-2.41-.33-.3-.33-.6-.33-.6-.67-.9-1-1.5-1.66-1.81-.67,0-1.66,0-2.66.6-1,.6-1.66,1.2-2,1.81,0,.6-.33,1.2,0,2.41l-2,.6c-.33-.9-.33-1.81-.33-2.71.33-.6.67-1.5,1.33-2.11.67-.9,1.33-1.5,2.33-1.81,1.33-.6,2-.9,3-.9.67-.3,1.33,0,1.66,0,.6.24,1.07.67,1.33,1.2.33.3.67.9,1.33,2.11l1.33,2.71c1,2.11,1.66,3.31,2,3.91.33.3.67.9,1.33,1.2l-2.33,1.2c-.33-.3-.67-.9-1-1.5h0ZM265.73,353.61c-.67.9-1.66,1.5-3,2.71-.67.6-1.33.9-1.66,1.2,0,.3-.33.9-.33,1.2s0,.9.33,1.2c0,.6.67.9,1.33,1.2.33,0,1.33,0,2-.3l2-1.81c.33-.6.67-1.5.33-2.11,0-.6,0-1.5-.67-2.41l-.33-.9ZM272.72,358.13l-8.99-17.46,2-1.2,8.99,17.46-2,1.2ZM292.35,337.96l2.66-.9c.67,2.11.67,4.21,0,5.72-.67,1.81-1.66,3.01-3.33,4.21s-3.33,1.5-4.99,1.5c-1.33,0-3-.6-4.33-1.5-1.33-1.2-2.66-2.41-3.66-4.21-1.05-1.54-1.63-3.31-1.66-5.12-.35-1.66,0-3.38,1-4.82.67-1.2,1.66-2.41,3.33-3.31,1.33-1.2,3-1.5,4.66-1.2,1.66,0,3,.9,4.33,2.11l-1.66,1.81c-.95-.82-2.08-1.44-3.33-1.81-1,0-2,.3-3,.9-1.33.9-2,1.81-2.66,3.01-.33,1.2-.33,2.41-.33,3.61.33,1.2,1,2.41,1.66,3.61.67,1.5,1.66,2.41,2.66,3.31s2.33,1.2,3.33,1.2c1.33,0,2.33-.3,3.33-.9,1-.9,2-1.81,2.33-3.01.38-1.4.26-2.88-.33-4.21h0ZM294.35,336.15c-1.33-2.11-2-4.21-1.66-6.02.35-1.55,1.29-2.93,2.66-3.91,1.33-1.2,3-1.5,4.66-1.2s3.33,1.2,4.66,3.01c1,1.5,1.66,3.01,1.66,4.21.33,1.2,0,2.11-.33,3.31s-1,2.11-2,2.71c-1.66,1.2-3.33,1.5-4.99,1.2s-3.33-1.2-4.66-3.31h0ZM296.34,334.65c1,1.5,2,2.41,3.33,2.71,1,.3,2,0,3-.6,1-.9,1.33-1.81,1.66-3.01,0-1.2-.67-2.41-1.66-3.91s-2-2.41-3.33-2.71c-1-.3-2,0-3,.6-1,.9-1.33,1.81-1.33,3.01-.33,1.2.33,2.41,1.33,3.91ZM309.66,333.14l-8.65-11.14,1.33-1.2,1.33,1.5c0-.9,0-1.5.33-2.41s.67-1.5,1.33-2.11c1-.6,1.66-1.2,2.33-1.2,1,0,1.66.3,2.33.6-.33-2.11.33-3.61,1.66-4.82,1-.9,2-1.2,3-1.2,1,.3,2.33.9,3.33,2.11l5.99,7.83-1.66,1.5-5.66-6.92c-.67-.9-1.33-1.5-1.66-1.5-.33-.3-.67-.3-1-.3-.67,0-1,.3-1.33.6-1,.6-1.33,1.5-1.33,2.41s.33,1.81,1.33,3.01l4.99,6.32-1.66,1.5-5.66-6.92c-.67-.9-1.33-1.5-2-1.5-.67-.3-1.33,0-2,.6-.33.3-1,.9-1,1.5-.33.6-.33,1.2,0,2.11.33.6.67,1.5,1.66,2.41l4.66,5.72-2,1.5ZM324.97,319.3l-9.98-10.23,1.66-1.5,1.33,1.5c-.33-.9-.33-1.81,0-2.41.33-.9.67-1.81,1.33-2.41s1.33-1.2,2-1.2c.77-.36,1.7-.24,2.33.3-.33-2.11,0-3.61,1.33-5.12.67-.9,1.66-1.5,2.66-1.5,1.33,0,2.33.6,3.33,1.81l6.99,6.92-1.66,1.81-6.32-6.32c-.67-.6-1-1.2-1.66-1.5h-1c-.67,0-1,.3-1.33.9-.67.66-1.02,1.52-1,2.41,0,.9.67,1.81,1.66,3.01l5.66,5.72-1.66,1.81-6.32-6.62c-1-.6-1.66-1.2-2.33-1.2-.33-.3-1,0-1.66.6l-1,1.81c0,.6,0,1.5.33,2.11s1,1.5,2,2.41l4.99,5.12-1.66,1.81ZM343.27,295.22c0,1.2,0,2.41-.33,3.01-.33.9-.67,1.81-1.33,2.41-.67,1.2-1.66,2.11-3,2.11-1,.3-2,0-2.66-.9-.67-.3-1-.9-1.33-1.5s-.33-1.2-.33-1.81.33-1.2.33-1.81c.39-.68.73-1.38,1-2.11,1-1.5,1.66-2.71,2-3.61-.33-.3-.33-.6-.33-.6-1-.6-1.66-.9-2-.6-1,0-1.66.6-2.33,1.5s-1,1.81-1,2.41.33,1.5.67,2.11l-1.33,1.81c-.67-.9-1.33-1.5-1.33-2.41-.33-.9-.33-1.5,0-2.71.33-.9,1-1.81,1.66-2.71s1.33-1.5,2-2.11c.67-.3,1.33-.6,2-.6.33,0,1,.3,1.66.6.33,0,1,.6,1.66,1.2l2.33,2.11c2,1.2,3,2.11,3.33,2.41.67.3,1.33.6,1.66.6l-1.33,2.11c-.67-.3-1-.6-1.66-.9h0ZM338.94,292.21c0,.9-.67,2.11-1.66,3.61-.33.9-.67,1.5-.67,1.81-.33.6,0,.9,0,1.2,0,.6.33.9.67,1.2s1,.3,1.66.3,1.33-.6,1.66-1.2c.67-.9,1-1.5,1-2.41.33-.9,0-1.5-.33-2.41-.33-.3-.67-.9-1.66-1.81l-.67-.3ZM346.93,292.81l-10.98-8.43,1.33-1.81,1.33,1.2c-.69-1.75-.31-3.69,1-5.12.38-.64.96-1.16,1.66-1.5.67-.6,1-.6,1.66-.6s1.33,0,2,.3c.33.3,1,.6,1.66,1.5l6.99,5.12-1.33,2.11-6.66-5.42c-1-.6-1.66-.9-2-.9-.67-.3-1-.3-1.66,0-.41.34-.75.75-1,1.2-.67.6-1,1.5-1,2.71.33.9,1,1.81,2.33,3.01l5.99,4.82-1.33,1.81ZM359.24,273.55l-1.33-.9c.67,1.5.67,3.01-.33,4.51-.67.9-1.33,1.81-2.33,2.11-1,.6-2,.6-3.33.6-1-.3-2.33-.9-3.66-1.5-1-.9-2-1.81-2.66-2.71-.67-1.2-1-2.11-1-3.31s0-2.11.67-3.31c.38-.64.96-1.16,1.66-1.5.67-.3,1.33-.6,2-.6l-5.66-3.91,1-2.11,16.31,10.84-1.33,1.81ZM349.59,276.26c1.66.9,3,1.2,3.99,1.2,1-.3,2-.6,2.33-1.5.67-.9.67-1.81.33-3.01s-1-2.11-2.66-3.01c-1.07-.95-2.5-1.49-3.99-1.5-1,.3-2,.6-2.66,1.5-.33.98-.33,2.03,0,3.01.33,1.2,1,2.11,2.66,3.31Z"/>
    </g>
  </g>
</svg>