<svg xmlns="http://www.w3.org/2000/svg" width="426.10046pt" height="150.00002pt" viewBox="0 0 426.10048 150.00002"><path fill="#014da2" d="M28.29 45.662c.576 1.487.386 3.376.116 4.524-.53 2.016-1.874 4.09-5.948 4.09-3.831 0-6.133-2.195-6.133-5.545v-5.884H0v4.704c0 13.573 10.673 17.664 22.135 17.664 11.007 0 20.066-3.742 21.505-13.907.741-5.265.212-8.684-.037-9.985-2.587-12.753-25.685-16.563-27.421-23.67-.28-1.26-.201-2.519-.058-3.217.439-1.985 1.767-4.07 5.567-4.07 3.56 0 5.646 2.165 5.646 5.477v3.778h15.208v-4.296C42.545 2.09 30.623 0 22.003 0 11.18 0 2.333 3.598.693 13.541c-.407 2.704-.487 5.15.185 8.187 2.61 12.467 24.257 16.076 27.411 23.934M226.26 45.547c.592 1.466.418 3.334.116 4.45-.476 2.022-1.836 4.054-5.874 4.054-3.762 0-6.075-2.17-6.075-5.461v-5.816h-16.155V47.4c0 13.446 10.567 17.515 21.929 17.515 10.895 0 19.854-3.704 21.299-13.774.703-5.223.2-8.61-.075-9.885-2.534-12.641-25.42-16.414-27.151-23.468-.265-1.222-.212-2.482-.027-3.165.424-1.942 1.726-4.048 5.52-4.048 3.508 0 5.572 2.149 5.572 5.477v3.71h15.039v-4.25c0-13.112-11.795-15.187-20.33-15.187-10.685 0-19.458 3.556-21.083 13.404-.413 2.667-.444 5.085.154 8.123 2.624 12.34 24.06 15.885 27.14 23.696M352.61 50.952l-.846-49.027h15.076v60.267h-21.67l-15.388-50.61.852 50.61h-15.002V1.925h22.638zM78.885 6.444l-8.498 56.372H53.935L65.222 1.925h27.077l11.235 60.89H87.156ZM167.737 6.444 157.24 62.816h-15.462L131.315 6.444l-.408 56.372h-15.245l1.36-60.891h24.834l7.689 47.603 7.683-47.603h24.802l1.339 60.89h-15.245zM277.391 53.726c4.234 0 5.525-2.905 5.848-4.408.122-.666.137-1.54.137-2.328V1.937h15.404v43.672c.022 1.122-.095 3.397-.164 3.99-1.053 11.372-10.027 15.05-21.225 15.05-11.186 0-20.193-3.678-21.246-15.05-.074-.593-.195-2.868-.174-3.99V1.937h15.457V46.99c0 .788 0 1.662.116 2.328.291 1.503 1.598 4.408 5.847 4.408M404.42 53.088c4.409 0 5.943-2.783 6.234-4.424.111-.677.132-1.513.132-2.318v-8.82h-6.26v-8.88H426.1v16.34c0 1.117-.037 1.974-.222 4.012-.995 11.064-10.615 15.017-21.41 15.017-10.784 0-20.4-3.953-21.431-15.017-.175-2.038-.18-2.895-.18-4.011V19.354c0-1.101.143-2.985.264-4.027 1.35-11.393 10.563-15.05 21.347-15.05 10.8 0 20.235 3.636 21.405 15.05.174 1.963.111 4.027.111 4.027v2.026h-15.33v-3.407s-.058-1.45-.212-2.345c-.264-1.328-1.412-4.408-6.111-4.408-4.43 0-5.694 2.937-6.012 4.408-.2.805-.27 1.91-.27 2.895v27.823c0 .805.016 1.64.127 2.318.297 1.64 1.831 4.424 6.244 4.424" style="stroke-width:5.29166"/><path d="M3.26 148.892V95.668h18.198c7.737 0 10.367 2.508 12.457 5.456 1.937 2.873 2.244 6.048 2.244 7.08 0 6.63-2.398 11.054-9.594 12.605v.365c7.969.889 11.45 5.46 11.45 12.758 0 13.637-10.445 14.96-16.795 14.96zm7.123-30.819h10.371c5.573-.069 8.282-3.313 8.282-8.472 0-4.418-2.63-8.038-8.594-8.038h-10.06Zm0 24.924h10.06c7.587 0 10.297-5.16 10.297-9.065 0-8.477-5.498-9.953-12.774-9.953h-7.583zM57.906 148.893h-7.123V95.664h7.123zM71.137 129.43v-17.473c0-10.61 5.73-17.393 17.574-17.393 11.848 0 17.573 6.784 17.573 17.393v17.474c0 14.742-5.725 20.563-17.573 20.563-11.843 0-17.574-5.82-17.574-20.563m27.871.296V111.74c0-11.133-8.048-11.504-10.297-11.504-2.244 0-10.293.37-10.293 11.504v17.987c0 11.647 3.551 14.6 10.293 14.6 6.736 0 10.297-2.953 10.297-14.6M118.666 148.894v-53.23h28.802v5.901h-21.68v17.103h20.13v5.9h-20.13v18.43h22.14v5.896zM158.849 148.893V95.669h16.568c7.51 0 15.558 2.651 15.558 15.187 0 12.086-9.912 14.6-15.637 14.6h-9.366v23.437zm7.123-29.337h7.82c2.943 0 9.907-.741 9.907-9.07 0-8.107-6.35-8.922-7.9-8.922h-9.827zM208.4 148.893h-7.122V95.664h7.123zM226.618 133.044v1.55c0 7.224 4.8 9.51 9.366 9.51 5.652 0 9.985-2.286 9.985-8.631 0-11.79-25.082-10.467-25.082-26.458 0-9.435 7.048-14.447 16.41-14.447 10.223 0 15.954 4.71 15.493 15.547h-7.44c.085-5.826-1.852-9.662-8.593-9.662-4.26 0-8.589 2.069-8.589 7.826 0 11.721 25.083 10.023 25.083 26.903 0 11.202-8.128 14.817-17.341 14.817-16.494.148-16.494-11.864-16.335-16.955z" style="stroke-width:5.29166"/></svg>